{
	"asset":{
		"generator":"Khronos glTF Blender I/O v4.2.70",
		"version":"2.0"
	},
	"extensionsUsed":[
		"KHR_materials_specular",
		"KHR_materials_ior"
	],
	"scene":0,
	"scenes":[
		{
			"name":"Scene",
			"nodes":[
				2
			]
		}
	],
	"nodes":[
		{
			"mesh":0,
			"name":"dvere",
			"translation":[
				0.49443212151527405,
				0.0014262038748711348,
				0.08353996276855469
			]
		},
		{
			"children":[
				0
			],
			"mesh":1,
			"name":"ram",
			"translation":[
				-0.05901113152503967,
				0.0036847752053290606,
				-0.005904197692871094
			]
		},
		{
			"children":[
				1
			],
			"name":"Door"
		}
	],
	"materials":[
		{
			"doubleSided":true,
			"name":"grey",
			"pbrMetallicRoughness":{
				"baseColorFactor":[
					0.02570514753460884,
					0.02570514753460884,
					0.02570514753460884,
					1
				],
				"metallicFactor":0,
				"roughnessFactor":0.28460457921028137
			}
		},
		{
			"doubleSided":true,
			"extensions":{
				"KHR_materials_specular":{
					"specularColorFactor":[
						4.800000190734863,
						4.800000190734863,
						4.800000190734863
					]
				},
				"KHR_materials_ior":{
					"ior":1.4500000476837158
				}
			},
			"name":"stainless",
			"pbrMetallicRoughness":{
				"baseColorFactor":[
					0.4599728286266327,
					0.475714772939682,
					0.475714772939682,
					1
				]
			}
		},
		{
			"doubleSided":true,
			"extensions":{
				"KHR_materials_specular":{
					"specularFactor":0
				},
				"KHR_materials_ior":{
					"ior":1.4500000476837158
				}
			},
			"name":"black",
			"pbrMetallicRoughness":{
				"baseColorFactor":[
					0,
					0,
					0,
					1
				],
				"metallicFactor":0,
				"roughnessFactor":0.5
			}
		},
		{
			"doubleSided":true,
			"name":"glass dvere"
		},
		{
			"doubleSided":true,
			"extensions":{
				"KHR_materials_specular":{
					"specularColorFactor":[
						4.800000190734863,
						4.800000190734863,
						4.800000190734863
					]
				},
				"KHR_materials_ior":{
					"ior":1.4500000476837158
				}
			},
			"name":"prah.002",
			"pbrMetallicRoughness":{
				"baseColorFactor":[
					0.4599728286266327,
					0.475714772939682,
					0.475714772939682,
					1
				]
			}
		}
	],
	"meshes":[
		{
			"name":"Cube.007",
			"primitives":[
				{
					"attributes":{
						"POSITION":0,
						"NORMAL":1,
						"TEXCOORD_0":2
					},
					"indices":3,
					"material":0
				},
				{
					"attributes":{
						"POSITION":4,
						"NORMAL":5,
						"TEXCOORD_0":6
					},
					"indices":7,
					"material":1
				},
				{
					"attributes":{
						"POSITION":8,
						"NORMAL":9,
						"TEXCOORD_0":10
					},
					"indices":11,
					"material":2
				},
				{
					"attributes":{
						"POSITION":12,
						"NORMAL":13,
						"TEXCOORD_0":14
					},
					"indices":15,
					"material":3
				}
			]
		},
		{
			"name":"Cube.006",
			"primitives":[
				{
					"attributes":{
						"POSITION":16,
						"NORMAL":17,
						"TEXCOORD_0":18
					},
					"indices":19,
					"material":0
				},
				{
					"attributes":{
						"POSITION":20,
						"NORMAL":21,
						"TEXCOORD_0":22
					},
					"indices":23,
					"material":4
				}
			]
		}
	],
	"accessors":[
		{
			"bufferView":0,
			"componentType":5126,
			"count":50,
			"max":[
				-0.0067439391277730465,
				2.026902914047241,
				0.007448548451066017
			],
			"min":[
				-0.8632587790489197,
				1.1910699981854123e-07,
				-0.030898479744791985
			],
			"type":"VEC3"
		},
		{
			"bufferView":1,
			"componentType":5126,
			"count":50,
			"type":"VEC3"
		},
		{
			"bufferView":2,
			"componentType":5126,
			"count":50,
			"type":"VEC2"
		},
		{
			"bufferView":3,
			"componentType":5123,
			"count":96,
			"type":"SCALAR"
		},
		{
			"bufferView":4,
			"componentType":5126,
			"count":130,
			"max":[
				0.007048693019896746,
				1.8309601545333862,
				0.04616517573595047
			],
			"min":[
				-0.7994985580444336,
				0.14583298563957214,
				-0.07024681568145752
			],
			"type":"VEC3"
		},
		{
			"bufferView":5,
			"componentType":5126,
			"count":130,
			"type":"VEC3"
		},
		{
			"bufferView":6,
			"componentType":5126,
			"count":130,
			"type":"VEC2"
		},
		{
			"bufferView":7,
			"componentType":5123,
			"count":150,
			"type":"SCALAR"
		},
		{
			"bufferView":8,
			"componentType":5126,
			"count":6,
			"max":[
				-0.7646812796592712,
				1.0661429166793823,
				0.01422474067658186
			],
			"min":[
				-0.7925121188163757,
				1.0295867919921875,
				-0.037704795598983765
			],
			"type":"VEC3"
		},
		{
			"bufferView":9,
			"componentType":5126,
			"count":6,
			"type":"VEC3"
		},
		{
			"bufferView":10,
			"componentType":5126,
			"count":6,
			"type":"VEC2"
		},
		{
			"bufferView":11,
			"componentType":5123,
			"count":6,
			"type":"SCALAR"
		},
		{
			"bufferView":12,
			"componentType":5126,
			"count":10,
			"max":[
				-0.4978402853012085,
				1.8511297702789307,
				-0.007601168006658554
			],
			"min":[
				-0.6828219294548035,
				0.15082871913909912,
				-0.01574350707232952
			],
			"type":"VEC3"
		},
		{
			"bufferView":13,
			"componentType":5126,
			"count":10,
			"type":"VEC3"
		},
		{
			"bufferView":14,
			"componentType":5126,
			"count":10,
			"type":"VEC2"
		},
		{
			"bufferView":15,
			"componentType":5123,
			"count":18,
			"type":"SCALAR"
		},
		{
			"bufferView":16,
			"componentType":5126,
			"count":288,
			"max":[
				0.5387950539588928,
				2.0773448944091797,
				0.07416930049657822
			],
			"min":[
				-0.42083173990249634,
				-0.0035740137100219727,
				-0.06354345381259918
			],
			"type":"VEC3"
		},
		{
			"bufferView":17,
			"componentType":5126,
			"count":288,
			"type":"VEC3"
		},
		{
			"bufferView":18,
			"componentType":5126,
			"count":288,
			"type":"VEC2"
		},
		{
			"bufferView":19,
			"componentType":5123,
			"count":486,
			"type":"SCALAR"
		},
		{
			"bufferView":20,
			"componentType":5126,
			"count":8,
			"max":[
				0.4589815139770508,
				-1.1920928955078125e-07,
				0.02689804695546627
			],
			"min":[
				-0.3410184979438782,
				-0.003573894500732422,
				-0.005646424368023872
			],
			"type":"VEC3"
		},
		{
			"bufferView":21,
			"componentType":5126,
			"count":8,
			"type":"VEC3"
		},
		{
			"bufferView":22,
			"componentType":5126,
			"count":8,
			"type":"VEC2"
		},
		{
			"bufferView":23,
			"componentType":5123,
			"count":18,
			"type":"SCALAR"
		}
	],
	"bufferViews":[
		{
			"buffer":0,
			"byteLength":600,
			"byteOffset":0,
			"target":34962
		},
		{
			"buffer":0,
			"byteLength":600,
			"byteOffset":600,
			"target":34962
		},
		{
			"buffer":0,
			"byteLength":400,
			"byteOffset":1200,
			"target":34962
		},
		{
			"buffer":0,
			"byteLength":192,
			"byteOffset":1600,
			"target":34963
		},
		{
			"buffer":0,
			"byteLength":1560,
			"byteOffset":1792,
			"target":34962
		},
		{
			"buffer":0,
			"byteLength":1560,
			"byteOffset":3352,
			"target":34962
		},
		{
			"buffer":0,
			"byteLength":1040,
			"byteOffset":4912,
			"target":34962
		},
		{
			"buffer":0,
			"byteLength":300,
			"byteOffset":5952,
			"target":34963
		},
		{
			"buffer":0,
			"byteLength":72,
			"byteOffset":6252,
			"target":34962
		},
		{
			"buffer":0,
			"byteLength":72,
			"byteOffset":6324,
			"target":34962
		},
		{
			"buffer":0,
			"byteLength":48,
			"byteOffset":6396,
			"target":34962
		},
		{
			"buffer":0,
			"byteLength":12,
			"byteOffset":6444,
			"target":34963
		},
		{
			"buffer":0,
			"byteLength":120,
			"byteOffset":6456,
			"target":34962
		},
		{
			"buffer":0,
			"byteLength":120,
			"byteOffset":6576,
			"target":34962
		},
		{
			"buffer":0,
			"byteLength":80,
			"byteOffset":6696,
			"target":34962
		},
		{
			"buffer":0,
			"byteLength":36,
			"byteOffset":6776,
			"target":34963
		},
		{
			"buffer":0,
			"byteLength":3456,
			"byteOffset":6812,
			"target":34962
		},
		{
			"buffer":0,
			"byteLength":3456,
			"byteOffset":10268,
			"target":34962
		},
		{
			"buffer":0,
			"byteLength":2304,
			"byteOffset":13724,
			"target":34962
		},
		{
			"buffer":0,
			"byteLength":972,
			"byteOffset":16028,
			"target":34963
		},
		{
			"buffer":0,
			"byteLength":96,
			"byteOffset":17000,
			"target":34962
		},
		{
			"buffer":0,
			"byteLength":96,
			"byteOffset":17096,
			"target":34962
		},
		{
			"buffer":0,
			"byteLength":64,
			"byteOffset":17192,
			"target":34962
		},
		{
			"buffer":0,
			"byteLength":36,
			"byteOffset":17256,
			"target":34963
		}
	],
	"buffers":[
		{
			"byteLength":17292,
			"uri":"elevator.bin"
		}
	]
}
