{
	"asset":{
		"generator":"Khronos glTF Blender I/O v4.2.70",
		"version":"2.0"
	},
	"extensionsUsed":[
		"KHR_materials_specular",
		"KHR_materials_sheen",
		"KHR_materials_anisotropy",
		"KHR_materials_ior"
	],
	"scene":0,
	"scenes":[
		{
			"name":"Scene",
			"nodes":[
				1
			]
		}
	],
	"nodes":[
		{
			"mesh":0,
			"name":"toilet_paper.001",
			"translation":[
				0.0002989768981933594,
				0.03427690267562866,
				0.03431444615125656
			]
		},
		{
			"children":[
				0
			],
			"mesh":1,
			"name":"Toilet paper holder"
		}
	],
	"materials":[
		{
			"doubleSided":true,
			"extensions":{
				"KHR_materials_specular":{
					"specularFactor":0
				},
				"KHR_materials_sheen":{
					"sheenColorFactor":[
						1.0,
						1.0,
						1.0
					],
					"sheenRoughnessFactor":0.5
				},
				"KHR_materials_ior":{
					"ior":1.4500000476837158
				}
			},
			"name":"toilet_paper",
			"normalTexture":{
				"index":0
			},
			"pbrMetallicRoughness":{
				"baseColorTexture":{
					"index":1
				},
				"metallicFactor":0
			}
		},
		{
			"doubleSided":true,
			"name":"paper",
			"pbrMetallicRoughness":{
				"baseColorTexture":{
					"index":2
				},
				"metallicFactor":0,
				"roughnessFactor":0.5
			}
		},
		{
			"doubleSided":true,
			"extensions":{
				"KHR_materials_specular":{
					"specularFactor":0
				},
				"KHR_materials_ior":{
					"ior":1.4500000476837158
				}
			},
			"name":"toilet_paper_side",
			"pbrMetallicRoughness":{
				"baseColorTexture":{
					"index":3
				},
				"metallicFactor":0
			}
		},
		{
			"doubleSided":true,
			"extensions":{
				"KHR_materials_anisotropy":{
					"anisotropyStrength":1
				}
			},
			"name":"metal_(steel)_trashcan",
			"pbrMetallicRoughness":{
				"baseColorFactor":[
					0.5600000023841858,
					0.5699999928474426,
					0.5799999833106995,
					1
				],
				"roughnessFactor":0.15000000596046448
			}
		}
	],
	"meshes":[
		{
			"name":"toilet_paper.001",
			"primitives":[
				{
					"attributes":{
						"POSITION":0,
						"NORMAL":1,
						"TEXCOORD_0":2
					},
					"indices":3,
					"material":0
				},
				{
					"attributes":{
						"POSITION":4,
						"NORMAL":5,
						"TEXCOORD_0":6
					},
					"indices":7,
					"material":1
				},
				{
					"attributes":{
						"POSITION":8,
						"NORMAL":9,
						"TEXCOORD_0":10
					},
					"indices":11,
					"material":2
				}
			]
		},
		{
			"name":"toilet_paper_holder",
			"primitives":[
				{
					"attributes":{
						"POSITION":12,
						"NORMAL":13,
						"TEXCOORD_0":14
					},
					"indices":15,
					"material":3
				}
			]
		}
	],
	"textures":[
		{
			"sampler":0,
			"source":0
		},
		{
			"sampler":0,
			"source":1
		},
		{
			"sampler":0,
			"source":2
		},
		{
			"sampler":0,
			"source":3
		}
	],
	"images":[
		{
			"mimeType":"image/jpeg",
			"name":"nvzsg 0006",
			"uri":"nvzsg%200006.jpg"
		},
		{
			"mimeType":"image/jpeg",
			"name":"nvzsg 0004",
			"uri":"nvzsg%200004.jpg"
		},
		{
			"mimeType":"image/jpeg",
			"name":"paper textur3213",
			"uri":"paper%20textur3213.jpg"
		},
		{
			"mimeType":"image/jpeg",
			"name":"Ikea Set Book Paper",
			"uri":"Ikea%20Set%20Book%20Paper.jpg"
		}
	],
	"accessors":[
		{
			"bufferView":0,
			"componentType":5126,
			"count":48,
			"max":[
				0.04574703052639961,
				0.06130151450634003,
				0.08398790657520294
			],
			"min":[
				-0.048423316329717636,
				-0.03227464109659195,
				-0.009137510322034359
			],
			"type":"VEC3"
		},
		{
			"bufferView":1,
			"componentType":5126,
			"count":48,
			"type":"VEC3"
		},
		{
			"bufferView":2,
			"componentType":5126,
			"count":48,
			"type":"VEC2"
		},
		{
			"bufferView":3,
			"componentType":5123,
			"count":138,
			"type":"SCALAR"
		},
		{
			"bufferView":4,
			"componentType":5126,
			"count":41,
			"max":[
				0.045747026801109314,
				0.03397516906261444,
				0.05727401748299599
			],
			"min":[
				-0.04842331260442734,
				-0.0053534312173724174,
				0.01805276609957218
			],
			"type":"VEC3"
		},
		{
			"bufferView":5,
			"componentType":5126,
			"count":41,
			"type":"VEC3"
		},
		{
			"bufferView":6,
			"componentType":5126,
			"count":41,
			"type":"VEC2"
		},
		{
			"bufferView":7,
			"componentType":5123,
			"count":96,
			"type":"SCALAR"
		},
		{
			"bufferView":8,
			"componentType":5126,
			"count":34,
			"max":[
				0.04574703052639961,
				0.06130151450634003,
				0.08398790657520294
			],
			"min":[
				-0.048423316329717636,
				-0.03227464109659195,
				-0.009137510322034359
			],
			"type":"VEC3"
		},
		{
			"bufferView":9,
			"componentType":5126,
			"count":34,
			"type":"VEC3"
		},
		{
			"bufferView":10,
			"componentType":5126,
			"count":34,
			"type":"VEC2"
		},
		{
			"bufferView":11,
			"componentType":5123,
			"count":90,
			"type":"SCALAR"
		},
		{
			"bufferView":12,
			"componentType":5126,
			"count":126,
			"max":[
				0.06989602744579315,
				0.051838219165802,
				0.06664809584617615
			],
			"min":[
				-0.07077021151781082,
				-3.916784407920204e-05,
				-0.018911341205239296
			],
			"type":"VEC3"
		},
		{
			"bufferView":13,
			"componentType":5126,
			"count":126,
			"type":"VEC3"
		},
		{
			"bufferView":14,
			"componentType":5126,
			"count":126,
			"type":"VEC2"
		},
		{
			"bufferView":15,
			"componentType":5123,
			"count":525,
			"type":"SCALAR"
		}
	],
	"bufferViews":[
		{
			"buffer":0,
			"byteLength":576,
			"byteOffset":0,
			"target":34962
		},
		{
			"buffer":0,
			"byteLength":576,
			"byteOffset":576,
			"target":34962
		},
		{
			"buffer":0,
			"byteLength":384,
			"byteOffset":1152,
			"target":34962
		},
		{
			"buffer":0,
			"byteLength":276,
			"byteOffset":1536,
			"target":34963
		},
		{
			"buffer":0,
			"byteLength":492,
			"byteOffset":1812,
			"target":34962
		},
		{
			"buffer":0,
			"byteLength":492,
			"byteOffset":2304,
			"target":34962
		},
		{
			"buffer":0,
			"byteLength":328,
			"byteOffset":2796,
			"target":34962
		},
		{
			"buffer":0,
			"byteLength":192,
			"byteOffset":3124,
			"target":34963
		},
		{
			"buffer":0,
			"byteLength":408,
			"byteOffset":3316,
			"target":34962
		},
		{
			"buffer":0,
			"byteLength":408,
			"byteOffset":3724,
			"target":34962
		},
		{
			"buffer":0,
			"byteLength":272,
			"byteOffset":4132,
			"target":34962
		},
		{
			"buffer":0,
			"byteLength":180,
			"byteOffset":4404,
			"target":34963
		},
		{
			"buffer":0,
			"byteLength":1512,
			"byteOffset":4584,
			"target":34962
		},
		{
			"buffer":0,
			"byteLength":1512,
			"byteOffset":6096,
			"target":34962
		},
		{
			"buffer":0,
			"byteLength":1008,
			"byteOffset":7608,
			"target":34962
		},
		{
			"buffer":0,
			"byteLength":1050,
			"byteOffset":8616,
			"target":34963
		}
	],
	"samplers":[
		{
			"magFilter":9729,
			"minFilter":9987
		}
	],
	"buffers":[
		{
			"byteLength":9668,
			"uri":"toilet%20paper.bin"
		}
	]
}
