{
	"asset":{
		"generator":"Khronos glTF Blender I/O v4.2.70",
		"version":"2.0"
	},
	"extensionsUsed":[
		"KHR_materials_clearcoat"
	],
	"scene":0,
	"scenes":[
		{
			"name":"Scene",
			"nodes":[
				0,
				1,
				2
			]
		}
	],
	"nodes":[
		{
			"mesh":0,
			"name":"lid",
			"translation":[
				-0.010875973850488663,
				0.1561318337917328,
				0.11239808797836304
			]
		},
		{
			"mesh":1,
			"name":"seat",
			"translation":[
				-0.010875973850488663,
				0.1561318337917328,
				0.11239808797836304
			]
		},
		{
			"mesh":2,
			"name":"toilet"
		}
	],
	"materials":[
		{
			"doubleSided":true,
			"extensions":{
				"KHR_materials_clearcoat":{
					"clearcoatFactor":1
				}
			},
			"name":"White Gloss",
			"pbrMetallicRoughness":{
				"metallicFactor":0,
				"roughnessFactor":0
			}
		}
	],
	"meshes":[
		{
			"name":"Mesh.001",
			"primitives":[
				{
					"attributes":{
						"POSITION":0,
						"NORMAL":1,
						"TEXCOORD_0":2
					},
					"indices":3,
					"material":0
				}
			]
		},
		{
			"name":"Mesh.002",
			"primitives":[
				{
					"attributes":{
						"POSITION":4,
						"NORMAL":5,
						"TEXCOORD_0":6
					},
					"indices":7,
					"material":0
				}
			]
		},
		{
			"name":"Mesh.187",
			"primitives":[
				{
					"attributes":{
						"POSITION":8,
						"NORMAL":9,
						"TEXCOORD_0":10
					},
					"indices":11,
					"material":0
				}
			]
		}
	],
	"accessors":[
		{
			"bufferView":0,
			"componentType":5126,
			"count":480,
			"max":[
				0.19670942425727844,
				0.02371746301651001,
				0.4452053904533386
			],
			"min":[
				-0.17456398904323578,
				-0.020608151331543922,
				-0.020074881613254547
			],
			"type":"VEC3"
		},
		{
			"bufferView":1,
			"componentType":5126,
			"count":480,
			"type":"VEC3"
		},
		{
			"bufferView":2,
			"componentType":5126,
			"count":480,
			"type":"VEC2"
		},
		{
			"bufferView":3,
			"componentType":5123,
			"count":2088,
			"type":"SCALAR"
		},
		{
			"bufferView":4,
			"componentType":5126,
			"count":742,
			"max":[
				0.1877593994140625,
				0.01584593765437603,
				0.42718812823295593
			],
			"min":[
				-0.16576111316680908,
				-0.037559811025857925,
				-0.017270665615797043
			],
			"type":"VEC3"
		},
		{
			"bufferView":5,
			"componentType":5126,
			"count":742,
			"type":"VEC3"
		},
		{
			"bufferView":6,
			"componentType":5126,
			"count":742,
			"type":"VEC2"
		},
		{
			"bufferView":7,
			"componentType":5123,
			"count":3336,
			"type":"SCALAR"
		},
		{
			"bufferView":8,
			"componentType":5126,
			"count":917,
			"max":[
				0.18487702310085297,
				0.17373181879520416,
				0.5398166179656982
			],
			"min":[
				-0.18486569821834564,
				-0.23368830978870392,
				0.00022620389063376933
			],
			"type":"VEC3"
		},
		{
			"bufferView":9,
			"componentType":5126,
			"count":917,
			"type":"VEC3"
		},
		{
			"bufferView":10,
			"componentType":5126,
			"count":917,
			"type":"VEC2"
		},
		{
			"bufferView":11,
			"componentType":5123,
			"count":4752,
			"type":"SCALAR"
		}
	],
	"bufferViews":[
		{
			"buffer":0,
			"byteLength":5760,
			"byteOffset":0,
			"target":34962
		},
		{
			"buffer":0,
			"byteLength":5760,
			"byteOffset":5760,
			"target":34962
		},
		{
			"buffer":0,
			"byteLength":3840,
			"byteOffset":11520,
			"target":34962
		},
		{
			"buffer":0,
			"byteLength":4176,
			"byteOffset":15360,
			"target":34963
		},
		{
			"buffer":0,
			"byteLength":8904,
			"byteOffset":19536,
			"target":34962
		},
		{
			"buffer":0,
			"byteLength":8904,
			"byteOffset":28440,
			"target":34962
		},
		{
			"buffer":0,
			"byteLength":5936,
			"byteOffset":37344,
			"target":34962
		},
		{
			"buffer":0,
			"byteLength":6672,
			"byteOffset":43280,
			"target":34963
		},
		{
			"buffer":0,
			"byteLength":11004,
			"byteOffset":49952,
			"target":34962
		},
		{
			"buffer":0,
			"byteLength":11004,
			"byteOffset":60956,
			"target":34962
		},
		{
			"buffer":0,
			"byteLength":7336,
			"byteOffset":71960,
			"target":34962
		},
		{
			"buffer":0,
			"byteLength":9504,
			"byteOffset":79296,
			"target":34963
		}
	],
	"buffers":[
		{
			"byteLength":88800,
			"uri":"boss%20toilet.bin"
		}
	]
}
