{
	"asset":{
		"generator":"Khronos glTF Blender I/O v4.2.70",
		"version":"2.0"
	},
	"extensionsUsed":[
		"KHR_materials_clearcoat",
		"KHR_materials_emissive_strength",
		"KHR_materials_specular",
		"KHR_materials_ior"
	],
	"scene":0,
	"scenes":[
		{
			"name":"Scene",
			"nodes":[
				1
			]
		}
	],
	"nodes":[
		{
			"mesh":0,
			"name":"Cube.010",
			"rotation":[
				1,
				0,
				0,
				1.6292068494294654e-07
			]
		},
		{
			"children":[
				0
			],
			"name":"Tubelight"
		}
	],
	"materials":[
		{
			"doubleSided":true,
			"extensions":{
				"KHR_materials_clearcoat":{
					"clearcoatFactor":0.25
				},
				"KHR_materials_specular":{
					"specularFactor":0.9881656765937805
				},
				"KHR_materials_ior":{
					"ior":1.4500000476837158
				}
			},
			"name":"Material.021",
			"pbrMetallicRoughness":{
				"baseColorFactor":[
					0.0765756368637085,
					0.0765756368637085,
					0.0765756368637085,
					1
				],
				"metallicFactor":0,
				"roughnessFactor":0.36734694242477417
			}
		},
		{
			"doubleSided":true,
			"emissiveFactor":[
				1,
				1,
				1
			],
			"extensions":{
				"KHR_materials_clearcoat":{
					"clearcoatFactor":1
				},
				"KHR_materials_emissive_strength":{
					"emissiveStrength":3.799999713897705
				}
			},
			"name":"Material.022",
			"pbrMetallicRoughness":{
				"baseColorFactor":[
					0.800000011920929,
					0.800000011920929,
					0.800000011920929,
					1
				],
				"metallicFactor":0,
				"roughnessFactor":0
			}
		}
	],
	"meshes":[
		{
			"name":"Cube.016",
			"primitives":[
				{
					"attributes":{
						"POSITION":0,
						"NORMAL":1,
						"TEXCOORD_0":2
					},
					"indices":3,
					"material":0
				},
				{
					"attributes":{
						"POSITION":4,
						"NORMAL":5,
						"TEXCOORD_0":6
					},
					"indices":7,
					"material":1
				}
			]
		}
	],
	"accessors":[
		{
			"bufferView":0,
			"componentType":5126,
			"count":5548,
			"max":[
				0.4535108506679535,
				1.73225998878479e-07,
				0.06939011812210083
			],
			"min":[
				-0.4535108208656311,
				-0.08027131855487823,
				-0.06939011067152023
			],
			"type":"VEC3"
		},
		{
			"bufferView":1,
			"componentType":5126,
			"count":5548,
			"type":"VEC3"
		},
		{
			"bufferView":2,
			"componentType":5126,
			"count":5548,
			"type":"VEC2"
		},
		{
			"bufferView":3,
			"componentType":5123,
			"count":23568,
			"type":"SCALAR"
		},
		{
			"bufferView":4,
			"componentType":5126,
			"count":644,
			"max":[
				0.42233818769454956,
				-0.03425132483243942,
				0.05336381122469902
			],
			"min":[
				-0.4223381578922272,
				-0.07160565257072449,
				-0.05336382985115051
			],
			"type":"VEC3"
		},
		{
			"bufferView":5,
			"componentType":5126,
			"count":644,
			"type":"VEC3"
		},
		{
			"bufferView":6,
			"componentType":5126,
			"count":644,
			"type":"VEC2"
		},
		{
			"bufferView":7,
			"componentType":5123,
			"count":1920,
			"type":"SCALAR"
		}
	],
	"bufferViews":[
		{
			"buffer":0,
			"byteLength":66576,
			"byteOffset":0,
			"target":34962
		},
		{
			"buffer":0,
			"byteLength":66576,
			"byteOffset":66576,
			"target":34962
		},
		{
			"buffer":0,
			"byteLength":44384,
			"byteOffset":133152,
			"target":34962
		},
		{
			"buffer":0,
			"byteLength":47136,
			"byteOffset":177536,
			"target":34963
		},
		{
			"buffer":0,
			"byteLength":7728,
			"byteOffset":224672,
			"target":34962
		},
		{
			"buffer":0,
			"byteLength":7728,
			"byteOffset":232400,
			"target":34962
		},
		{
			"buffer":0,
			"byteLength":5152,
			"byteOffset":240128,
			"target":34962
		},
		{
			"buffer":0,
			"byteLength":3840,
			"byteOffset":245280,
			"target":34963
		}
	],
	"buffers":[
		{
			"byteLength":249120,
			"uri":"tube%20light.bin"
		}
	]
}
