{
	"asset":{
		"generator":"Khronos glTF Blender I/O v4.2.70",
		"version":"2.0"
	},
	"extensionsUsed":[
		"KHR_materials_specular"
	],
	"scene":0,
	"scenes":[
		{
			"name":"Scene",
			"nodes":[
				0
			]
		}
	],
	"nodes":[
		{
			"mesh":0,
			"name":"pln03",
			"translation":[
				-0.002728581428527832,
				0.0005906167789362371,
				1.6278772354125977
			]
		}
	],
	"materials":[
		{
			"doubleSided":true,
			"extensions":{
				"KHR_materials_specular":{
					"specularColorFactor":[
						2.0,
						2.0,
						2.0
					]
				}
			},
			"name":"pot",
			"pbrMetallicRoughness":{
				"baseColorFactor":[
					0.5678625702857971,
					0.5678625702857971,
					0.5678625702857971,
					1
				],
				"metallicRoughnessTexture":{
					"index":0
				},
				"roughnessFactor":0.5527864098548889
			}
		},
		{
			"doubleSided":true,
			"extensions":{
				"KHR_materials_specular":{
					"specularFactor":0
				}
			},
			"name":"mud",
			"pbrMetallicRoughness":{
				"baseColorTexture":{
					"index":1
				},
				"metallicFactor":0
			}
		},
		{
			"doubleSided":true,
			"extensions":{
				"KHR_materials_specular":{
					"specularFactor":0
				}
			},
			"name":"planter_stem",
			"normalTexture":{
				"index":2
			},
			"pbrMetallicRoughness":{
				"baseColorTexture":{
					"index":3
				},
				"metallicFactor":0,
				"roughnessFactor":0
			}
		},
		{
			"doubleSided":true,
			"extensions":{
				"KHR_materials_specular":{
					"specularColorFactor":[
						2.0,
						2.0,
						2.0
					]
				}
			},
			"name":"planter_stem.001",
			"pbrMetallicRoughness":{
				"baseColorTexture":{
					"index":4
				},
				"metallicFactor":0,
				"roughnessFactor":0.5527864098548889
			}
		},
		{
			"doubleSided":true,
			"extensions":{
				"KHR_materials_specular":{
					"specularColorFactor":[
						2.0,
						2.0,
						2.0
					]
				}
			},
			"name":"planter_leaf1",
			"pbrMetallicRoughness":{
				"baseColorTexture":{
					"index":5
				},
				"metallicFactor":0,
				"roughnessFactor":0.5527864098548889
			}
		},
		{
			"doubleSided":true,
			"extensions":{
				"KHR_materials_specular":{
					"specularColorFactor":[
						2.0,
						2.0,
						2.0
					]
				}
			},
			"name":"planter_leaf2",
			"pbrMetallicRoughness":{
				"baseColorTexture":{
					"index":6
				},
				"metallicFactor":0,
				"roughnessFactor":0.5527864098548889
			}
		},
		{
			"doubleSided":true,
			"extensions":{
				"KHR_materials_specular":{
					"specularColorFactor":[
						2.0,
						2.0,
						2.0
					]
				}
			},
			"name":"planter_leaf5",
			"pbrMetallicRoughness":{
				"baseColorTexture":{
					"index":7
				},
				"metallicFactor":0,
				"roughnessFactor":0.5527864098548889
			}
		},
		{
			"doubleSided":true,
			"extensions":{
				"KHR_materials_specular":{
					"specularColorFactor":[
						2.0,
						2.0,
						2.0
					]
				}
			},
			"name":"planter_leaf4",
			"pbrMetallicRoughness":{
				"baseColorTexture":{
					"index":8
				},
				"metallicFactor":0,
				"roughnessFactor":0.5527864098548889
			}
		}
	],
	"meshes":[
		{
			"name":"Mesh.015",
			"primitives":[
				{
					"attributes":{
						"POSITION":0,
						"NORMAL":1,
						"TEXCOORD_0":2,
						"TEXCOORD_1":3
					},
					"indices":4,
					"material":0
				},
				{
					"attributes":{
						"POSITION":5,
						"NORMAL":6,
						"TEXCOORD_0":7,
						"TEXCOORD_1":8
					},
					"indices":9,
					"material":1
				},
				{
					"attributes":{
						"POSITION":10,
						"NORMAL":11,
						"TEXCOORD_0":12,
						"TEXCOORD_1":13
					},
					"indices":14,
					"material":2
				},
				{
					"attributes":{
						"POSITION":15,
						"NORMAL":16,
						"TEXCOORD_0":17,
						"TEXCOORD_1":18
					},
					"indices":19,
					"material":3
				},
				{
					"attributes":{
						"POSITION":20,
						"NORMAL":21,
						"TEXCOORD_0":22,
						"TEXCOORD_1":23
					},
					"indices":24,
					"material":4
				},
				{
					"attributes":{
						"POSITION":25,
						"NORMAL":26,
						"TEXCOORD_0":27,
						"TEXCOORD_1":28
					},
					"indices":29,
					"material":5
				},
				{
					"attributes":{
						"POSITION":30,
						"NORMAL":31,
						"TEXCOORD_0":32,
						"TEXCOORD_1":33
					},
					"indices":34,
					"material":6
				},
				{
					"attributes":{
						"POSITION":35,
						"NORMAL":36,
						"TEXCOORD_0":37,
						"TEXCOORD_1":38
					},
					"indices":39,
					"material":7
				}
			]
		}
	],
	"textures":[
		{
			"sampler":0,
			"source":0
		},
		{
			"sampler":0,
			"source":1
		},
		{
			"sampler":0,
			"source":2
		},
		{
			"sampler":0,
			"source":2
		},
		{
			"sampler":0,
			"source":2
		},
		{
			"sampler":0,
			"source":3
		},
		{
			"sampler":0,
			"source":4
		},
		{
			"sampler":0,
			"source":5
		},
		{
			"sampler":0,
			"source":6
		}
	],
	"images":[
		{
			"mimeType":"image/png",
			"name":"pot_conc",
			"uri":"pot_conc.png"
		},
		{
			"mimeType":"image/jpeg",
			"name":"pot_soil_m",
			"uri":"pot_soil_m.jpg"
		},
		{
			"mimeType":"image/jpeg",
			"name":"pot_conc",
			"uri":"pot_conc.jpg"
		},
		{
			"mimeType":"image/jpeg",
			"name":"leaf-planter",
			"uri":"leaf-planter.jpg"
		},
		{
			"mimeType":"image/jpeg",
			"name":"leaf-planter-2",
			"uri":"leaf-planter-2.jpg"
		},
		{
			"mimeType":"image/jpeg",
			"name":"leaf-planter-5",
			"uri":"leaf-planter-5.jpg"
		},
		{
			"mimeType":"image/jpeg",
			"name":"leaf-planter-4",
			"uri":"leaf-planter-4.jpg"
		}
	],
	"accessors":[
		{
			"bufferView":0,
			"componentType":5126,
			"count":118,
			"max":[
				0.1362040936946869,
				0.2933180630207062,
				-1.4946545362472534
			],
			"min":[
				-0.13077177107334137,
				-0.001217575161717832,
				-1.7613435983657837
			],
			"type":"VEC3"
		},
		{
			"bufferView":1,
			"componentType":5126,
			"count":118,
			"type":"VEC3"
		},
		{
			"bufferView":2,
			"componentType":5126,
			"count":118,
			"type":"VEC2"
		},
		{
			"bufferView":3,
			"componentType":5126,
			"count":118,
			"type":"VEC2"
		},
		{
			"bufferView":4,
			"componentType":5123,
			"count":654,
			"type":"SCALAR"
		},
		{
			"bufferView":5,
			"componentType":5126,
			"count":158,
			"max":[
				0.12290136516094208,
				0.29530149698257446,
				-1.5082205533981323
			],
			"min":[
				-0.11571332812309265,
				0.26695653796195984,
				-1.7461801767349243
			],
			"type":"VEC3"
		},
		{
			"bufferView":6,
			"componentType":5126,
			"count":158,
			"type":"VEC3"
		},
		{
			"bufferView":7,
			"componentType":5126,
			"count":158,
			"type":"VEC2"
		},
		{
			"bufferView":8,
			"componentType":5126,
			"count":158,
			"type":"VEC2"
		},
		{
			"bufferView":9,
			"componentType":5123,
			"count":762,
			"type":"SCALAR"
		},
		{
			"bufferView":10,
			"componentType":5126,
			"count":756,
			"max":[
				0.23986594378948212,
				1.174431562423706,
				-1.4045957326889038
			],
			"min":[
				-0.2190486341714859,
				0.18397007882595062,
				-1.826311469078064
			],
			"type":"VEC3"
		},
		{
			"bufferView":11,
			"componentType":5126,
			"count":756,
			"type":"VEC3"
		},
		{
			"bufferView":12,
			"componentType":5126,
			"count":756,
			"type":"VEC2"
		},
		{
			"bufferView":13,
			"componentType":5126,
			"count":756,
			"type":"VEC2"
		},
		{
			"bufferView":14,
			"componentType":5123,
			"count":3042,
			"type":"SCALAR"
		},
		{
			"bufferView":15,
			"componentType":5126,
			"count":281,
			"max":[
				0.15162499248981476,
				1.1144518852233887,
				-1.494179368019104
			],
			"min":[
				-0.11224832385778427,
				0.1845419555902481,
				-1.7865713834762573
			],
			"type":"VEC3"
		},
		{
			"bufferView":16,
			"componentType":5126,
			"count":281,
			"type":"VEC3"
		},
		{
			"bufferView":17,
			"componentType":5126,
			"count":281,
			"type":"VEC2"
		},
		{
			"bufferView":18,
			"componentType":5126,
			"count":281,
			"type":"VEC2"
		},
		{
			"bufferView":19,
			"componentType":5123,
			"count":1128,
			"type":"SCALAR"
		},
		{
			"bufferView":20,
			"componentType":5126,
			"count":1731,
			"max":[
				0.3139556050300598,
				1.1686222553253174,
				-1.2283411026000977
			],
			"min":[
				-0.35248464345932007,
				0.3162142038345337,
				-1.969146966934204
			],
			"type":"VEC3"
		},
		{
			"bufferView":21,
			"componentType":5126,
			"count":1731,
			"type":"VEC3"
		},
		{
			"bufferView":22,
			"componentType":5126,
			"count":1731,
			"type":"VEC2"
		},
		{
			"bufferView":23,
			"componentType":5126,
			"count":1731,
			"type":"VEC2"
		},
		{
			"bufferView":24,
			"componentType":5123,
			"count":3177,
			"type":"SCALAR"
		},
		{
			"bufferView":25,
			"componentType":5126,
			"count":389,
			"max":[
				0.36450105905532837,
				1.1082298755645752,
				-1.3114038705825806
			],
			"min":[
				-0.3363375961780548,
				0.34995001554489136,
				-1.902087926864624
			],
			"type":"VEC3"
		},
		{
			"bufferView":26,
			"componentType":5126,
			"count":389,
			"type":"VEC3"
		},
		{
			"bufferView":27,
			"componentType":5126,
			"count":389,
			"type":"VEC2"
		},
		{
			"bufferView":28,
			"componentType":5126,
			"count":389,
			"type":"VEC2"
		},
		{
			"bufferView":29,
			"componentType":5123,
			"count":729,
			"type":"SCALAR"
		},
		{
			"bufferView":30,
			"componentType":5126,
			"count":603,
			"max":[
				0.3755098283290863,
				1.1247837543487549,
				-1.2965232133865356
			],
			"min":[
				-0.3189224898815155,
				0.32911109924316406,
				-2.002098560333252
			],
			"type":"VEC3"
		},
		{
			"bufferView":31,
			"componentType":5126,
			"count":603,
			"type":"VEC3"
		},
		{
			"bufferView":32,
			"componentType":5126,
			"count":603,
			"type":"VEC2"
		},
		{
			"bufferView":33,
			"componentType":5126,
			"count":603,
			"type":"VEC2"
		},
		{
			"bufferView":34,
			"componentType":5123,
			"count":1113,
			"type":"SCALAR"
		},
		{
			"bufferView":35,
			"componentType":5126,
			"count":482,
			"max":[
				0.30496731400489807,
				1.0977214574813843,
				-1.2667385339736938
			],
			"min":[
				-0.32520490884780884,
				0.316434383392334,
				-1.9699361324310303
			],
			"type":"VEC3"
		},
		{
			"bufferView":36,
			"componentType":5126,
			"count":482,
			"type":"VEC3"
		},
		{
			"bufferView":37,
			"componentType":5126,
			"count":482,
			"type":"VEC2"
		},
		{
			"bufferView":38,
			"componentType":5126,
			"count":482,
			"type":"VEC2"
		},
		{
			"bufferView":39,
			"componentType":5123,
			"count":888,
			"type":"SCALAR"
		}
	],
	"bufferViews":[
		{
			"buffer":0,
			"byteLength":1416,
			"byteOffset":0,
			"target":34962
		},
		{
			"buffer":0,
			"byteLength":1416,
			"byteOffset":1416,
			"target":34962
		},
		{
			"buffer":0,
			"byteLength":944,
			"byteOffset":2832,
			"target":34962
		},
		{
			"buffer":0,
			"byteLength":944,
			"byteOffset":3776,
			"target":34962
		},
		{
			"buffer":0,
			"byteLength":1308,
			"byteOffset":4720,
			"target":34963
		},
		{
			"buffer":0,
			"byteLength":1896,
			"byteOffset":6028,
			"target":34962
		},
		{
			"buffer":0,
			"byteLength":1896,
			"byteOffset":7924,
			"target":34962
		},
		{
			"buffer":0,
			"byteLength":1264,
			"byteOffset":9820,
			"target":34962
		},
		{
			"buffer":0,
			"byteLength":1264,
			"byteOffset":11084,
			"target":34962
		},
		{
			"buffer":0,
			"byteLength":1524,
			"byteOffset":12348,
			"target":34963
		},
		{
			"buffer":0,
			"byteLength":9072,
			"byteOffset":13872,
			"target":34962
		},
		{
			"buffer":0,
			"byteLength":9072,
			"byteOffset":22944,
			"target":34962
		},
		{
			"buffer":0,
			"byteLength":6048,
			"byteOffset":32016,
			"target":34962
		},
		{
			"buffer":0,
			"byteLength":6048,
			"byteOffset":38064,
			"target":34962
		},
		{
			"buffer":0,
			"byteLength":6084,
			"byteOffset":44112,
			"target":34963
		},
		{
			"buffer":0,
			"byteLength":3372,
			"byteOffset":50196,
			"target":34962
		},
		{
			"buffer":0,
			"byteLength":3372,
			"byteOffset":53568,
			"target":34962
		},
		{
			"buffer":0,
			"byteLength":2248,
			"byteOffset":56940,
			"target":34962
		},
		{
			"buffer":0,
			"byteLength":2248,
			"byteOffset":59188,
			"target":34962
		},
		{
			"buffer":0,
			"byteLength":2256,
			"byteOffset":61436,
			"target":34963
		},
		{
			"buffer":0,
			"byteLength":20772,
			"byteOffset":63692,
			"target":34962
		},
		{
			"buffer":0,
			"byteLength":20772,
			"byteOffset":84464,
			"target":34962
		},
		{
			"buffer":0,
			"byteLength":13848,
			"byteOffset":105236,
			"target":34962
		},
		{
			"buffer":0,
			"byteLength":13848,
			"byteOffset":119084,
			"target":34962
		},
		{
			"buffer":0,
			"byteLength":6354,
			"byteOffset":132932,
			"target":34963
		},
		{
			"buffer":0,
			"byteLength":4668,
			"byteOffset":139288,
			"target":34962
		},
		{
			"buffer":0,
			"byteLength":4668,
			"byteOffset":143956,
			"target":34962
		},
		{
			"buffer":0,
			"byteLength":3112,
			"byteOffset":148624,
			"target":34962
		},
		{
			"buffer":0,
			"byteLength":3112,
			"byteOffset":151736,
			"target":34962
		},
		{
			"buffer":0,
			"byteLength":1458,
			"byteOffset":154848,
			"target":34963
		},
		{
			"buffer":0,
			"byteLength":7236,
			"byteOffset":156308,
			"target":34962
		},
		{
			"buffer":0,
			"byteLength":7236,
			"byteOffset":163544,
			"target":34962
		},
		{
			"buffer":0,
			"byteLength":4824,
			"byteOffset":170780,
			"target":34962
		},
		{
			"buffer":0,
			"byteLength":4824,
			"byteOffset":175604,
			"target":34962
		},
		{
			"buffer":0,
			"byteLength":2226,
			"byteOffset":180428,
			"target":34963
		},
		{
			"buffer":0,
			"byteLength":5784,
			"byteOffset":182656,
			"target":34962
		},
		{
			"buffer":0,
			"byteLength":5784,
			"byteOffset":188440,
			"target":34962
		},
		{
			"buffer":0,
			"byteLength":3856,
			"byteOffset":194224,
			"target":34962
		},
		{
			"buffer":0,
			"byteLength":3856,
			"byteOffset":198080,
			"target":34962
		},
		{
			"buffer":0,
			"byteLength":1776,
			"byteOffset":201936,
			"target":34963
		}
	],
	"samplers":[
		{
			"magFilter":9729,
			"minFilter":9987
		}
	],
	"buffers":[
		{
			"byteLength":203712,
			"uri":"plant%202.bin"
		}
	]
}
