{
	"asset":{
		"generator":"Khronos glTF Blender I/O v4.2.70",
		"version":"2.0"
	},
	"extensionsUsed":[
		"KHR_texture_transform"
	],
	"extensionsRequired":[
		"KHR_texture_transform"
	],
	"scene":0,
	"scenes":[
		{
			"name":"Scene",
			"nodes":[
				0
			]
		}
	],
	"nodes":[
		{
			"mesh":0,
			"name":"Sand clock"
		}
	],
	"materials":[
		{
			"doubleSided":true,
			"name":"metal",
			"pbrMetallicRoughness":{
				"baseColorFactor":[
					0.057801827788352966,
					0.057801827788352966,
					0.057801827788352966,
					1
				],
				"roughnessFactor":0.25
			}
		},
		{
			"doubleSided":true,
			"name":"Chestnut fine wood texture",
			"normalTexture":{
				"extensions":{
					"KHR_texture_transform":{
						"offset":[
							0,
							1.3999998569488525
						],
						"scale":[
							-0.39999985694885254,
							-0.39999985694885254
						]
					}
				},
				"index":0,
				"scale":0.10000000149011612
			},
			"pbrMetallicRoughness":{
				"baseColorTexture":{
					"extensions":{
						"KHR_texture_transform":{
							"offset":[
								0,
								1.3999998569488525
							],
							"scale":[
								-0.39999985694885254,
								-0.39999985694885254
							]
						}
					},
					"index":1
				},
				"metallicFactor":0,
				"metallicRoughnessTexture":{
					"extensions":{
						"KHR_texture_transform":{
							"offset":[
								0,
								1.3999998569488525
							],
							"scale":[
								-0.39999985694885254,
								-0.39999985694885254
							]
						}
					},
					"index":2
				}
			}
		},
		{
			"doubleSided":true,
			"name":"Sand orange",
			"normalTexture":{
				"index":3
			},
			"pbrMetallicRoughness":{
				"baseColorTexture":{
					"index":4
				},
				"metallicFactor":0,
				"metallicRoughnessTexture":{
					"index":5
				}
			}
		},
		{
			"doubleSided":true,
			"name":"Transparent Glass"
		}
	],
	"meshes":[
		{
			"name":"Cylinder.003",
			"primitives":[
				{
					"attributes":{
						"POSITION":0,
						"NORMAL":1,
						"TEXCOORD_0":2,
						"TEXCOORD_1":3
					},
					"indices":4,
					"material":0
				},
				{
					"attributes":{
						"POSITION":5,
						"NORMAL":6,
						"TEXCOORD_0":7,
						"TEXCOORD_1":8
					},
					"indices":9,
					"material":1
				},
				{
					"attributes":{
						"POSITION":10,
						"NORMAL":11,
						"TEXCOORD_0":12,
						"TEXCOORD_1":13
					},
					"indices":14,
					"material":2
				},
				{
					"attributes":{
						"POSITION":15,
						"NORMAL":16,
						"TEXCOORD_0":17,
						"TEXCOORD_1":18
					},
					"indices":19,
					"material":3
				}
			]
		}
	],
	"textures":[
		{
			"sampler":0,
			"source":0
		},
		{
			"sampler":0,
			"source":1
		},
		{
			"sampler":0,
			"source":2
		},
		{
			"sampler":0,
			"source":3
		},
		{
			"sampler":0,
			"source":4
		},
		{
			"sampler":0,
			"source":5
		}
	],
	"images":[
		{
			"mimeType":"image/png",
			"name":"C:\\Users\\Spektrus\\blenderkit_data\\materials\\chestnut_fine_wood_texture_57864b59-0d42-4086-b3a2-25a274fbb5b0\\textures\\Normal",
			"uri":"CUsersSpektrusblenderkit_datamaterialschestnut_fine_wood_texture_57864b59-0d42-4086-b3a2-25a274fbb5b0texturesNormal.png"
		},
		{
			"mimeType":"image/png",
			"name":"C:\\Users\\Spektrus\\blenderkit_data\\materials\\chestnut_fine_wood_texture_57864b59-0d42-4086-b3a2-25a274fbb5b0\\textures\\Diffuse",
			"uri":"CUsersSpektrusblenderkit_datamaterialschestnut_fine_wood_texture_57864b59-0d42-4086-b3a2-25a274fbb5b0texturesDiffuse.png"
		},
		{
			"mimeType":"image/png",
			"name":"C:\\Users\\Spektrus\\blenderkit_data\\materials\\chestnut_fine_wood_texture_57864b59-0d42-4086-b3a2-25a274fbb5b0\\textures\\Roughness",
			"uri":"CUsersSpektrusblenderkit_datamaterialschestnut_fine_wood_texture_57864b59-0d42-4086-b3a2-25a274fbb5b0texturesRoughness.png"
		},
		{
			"mimeType":"image/jpeg",
			"name":"C:\\Users\\Spektrus\\blenderkit_data\\materials\\sand_orange_57181d3e-09d4-40e9-862c-155f5c974300\\textures_1k\\sand02 normal 4k",
			"uri":"CUsersSpektrusblenderkit_datamaterialssand_orange_57181d3e-09d4-40e9-862c-155f5c974300textures_1ksand02%20normal%204k.jpg"
		},
		{
			"mimeType":"image/jpeg",
			"name":"C:\\Users\\Spektrus\\blenderkit_data\\materials\\sand_orange_57181d3e-09d4-40e9-862c-155f5c974300\\textures_1k\\sand02 diffuse 4k",
			"uri":"CUsersSpektrusblenderkit_datamaterialssand_orange_57181d3e-09d4-40e9-862c-155f5c974300textures_1ksand02%20diffuse%204k.jpg"
		},
		{
			"mimeType":"image/png",
			"name":"C:\\Users\\Spektrus\\blenderkit_data\\materials\\sand_orange_57181d3e-09d4-40e9-862c-155f5c974300\\textures_1k\\sand02 roughness 4k",
			"uri":"CUsersSpektrusblenderkit_datamaterialssand_orange_57181d3e-09d4-40e9-862c-155f5c974300textures_1ksand02%20roughness%204k.png"
		}
	],
	"accessors":[
		{
			"bufferView":0,
			"componentType":5126,
			"count":58,
			"max":[
				0.03845576196908951,
				0.19955980777740479,
				0.038992736488580704
			],
			"min":[
				-0.03846835345029831,
				-0.0003650670114438981,
				-0.03844667971134186
			],
			"type":"VEC3"
		},
		{
			"bufferView":1,
			"componentType":5126,
			"count":58,
			"type":"VEC3"
		},
		{
			"bufferView":2,
			"componentType":5126,
			"count":58,
			"type":"VEC2"
		},
		{
			"bufferView":3,
			"componentType":5126,
			"count":58,
			"type":"VEC2"
		},
		{
			"bufferView":4,
			"componentType":5123,
			"count":204,
			"type":"SCALAR"
		},
		{
			"bufferView":5,
			"componentType":5126,
			"count":51,
			"max":[
				0.04018252715468407,
				0.19420363008975983,
				0.040599528700113297
			],
			"min":[
				-0.04021633416414261,
				0.005145236849784851,
				-0.04020507633686066
			],
			"type":"VEC3"
		},
		{
			"bufferView":6,
			"componentType":5126,
			"count":51,
			"type":"VEC3"
		},
		{
			"bufferView":7,
			"componentType":5126,
			"count":51,
			"type":"VEC2"
		},
		{
			"bufferView":8,
			"componentType":5126,
			"count":51,
			"type":"VEC2"
		},
		{
			"bufferView":9,
			"componentType":5123,
			"count":90,
			"type":"SCALAR"
		},
		{
			"bufferView":10,
			"componentType":5126,
			"count":74,
			"max":[
				0.025930900126695633,
				0.046531908214092255,
				0.025476127862930298
			],
			"min":[
				-0.02516316995024681,
				0.012262515723705292,
				-0.025050876662135124
			],
			"type":"VEC3"
		},
		{
			"bufferView":11,
			"componentType":5126,
			"count":74,
			"type":"VEC3"
		},
		{
			"bufferView":12,
			"componentType":5126,
			"count":74,
			"type":"VEC2"
		},
		{
			"bufferView":13,
			"componentType":5126,
			"count":74,
			"type":"VEC2"
		},
		{
			"bufferView":14,
			"componentType":5123,
			"count":201,
			"type":"SCALAR"
		},
		{
			"bufferView":15,
			"componentType":5126,
			"count":152,
			"max":[
				0.02721964381635189,
				0.18834546208381653,
				0.028165709227323532
			],
			"min":[
				-0.027969248592853546,
				0.011412516236305237,
				-0.027178674936294556
			],
			"type":"VEC3"
		},
		{
			"bufferView":16,
			"componentType":5126,
			"count":152,
			"type":"VEC3"
		},
		{
			"bufferView":17,
			"componentType":5126,
			"count":152,
			"type":"VEC2"
		},
		{
			"bufferView":18,
			"componentType":5126,
			"count":152,
			"type":"VEC2"
		},
		{
			"bufferView":19,
			"componentType":5123,
			"count":336,
			"type":"SCALAR"
		}
	],
	"bufferViews":[
		{
			"buffer":0,
			"byteLength":696,
			"byteOffset":0,
			"target":34962
		},
		{
			"buffer":0,
			"byteLength":696,
			"byteOffset":696,
			"target":34962
		},
		{
			"buffer":0,
			"byteLength":464,
			"byteOffset":1392,
			"target":34962
		},
		{
			"buffer":0,
			"byteLength":464,
			"byteOffset":1856,
			"target":34962
		},
		{
			"buffer":0,
			"byteLength":408,
			"byteOffset":2320,
			"target":34963
		},
		{
			"buffer":0,
			"byteLength":612,
			"byteOffset":2728,
			"target":34962
		},
		{
			"buffer":0,
			"byteLength":612,
			"byteOffset":3340,
			"target":34962
		},
		{
			"buffer":0,
			"byteLength":408,
			"byteOffset":3952,
			"target":34962
		},
		{
			"buffer":0,
			"byteLength":408,
			"byteOffset":4360,
			"target":34962
		},
		{
			"buffer":0,
			"byteLength":180,
			"byteOffset":4768,
			"target":34963
		},
		{
			"buffer":0,
			"byteLength":888,
			"byteOffset":4948,
			"target":34962
		},
		{
			"buffer":0,
			"byteLength":888,
			"byteOffset":5836,
			"target":34962
		},
		{
			"buffer":0,
			"byteLength":592,
			"byteOffset":6724,
			"target":34962
		},
		{
			"buffer":0,
			"byteLength":592,
			"byteOffset":7316,
			"target":34962
		},
		{
			"buffer":0,
			"byteLength":402,
			"byteOffset":7908,
			"target":34963
		},
		{
			"buffer":0,
			"byteLength":1824,
			"byteOffset":8312,
			"target":34962
		},
		{
			"buffer":0,
			"byteLength":1824,
			"byteOffset":10136,
			"target":34962
		},
		{
			"buffer":0,
			"byteLength":1216,
			"byteOffset":11960,
			"target":34962
		},
		{
			"buffer":0,
			"byteLength":1216,
			"byteOffset":13176,
			"target":34962
		},
		{
			"buffer":0,
			"byteLength":672,
			"byteOffset":14392,
			"target":34963
		}
	],
	"samplers":[
		{
			"magFilter":9729,
			"minFilter":9987
		}
	],
	"buffers":[
		{
			"byteLength":15064,
			"uri":"hourglass.bin"
		}
	]
}
