{
	"asset":{
		"generator":"Khronos glTF Blender I/O v4.2.70",
		"version":"2.0"
	},
	"extensionsUsed":[
		"KHR_materials_specular",
		"KHR_materials_ior"
	],
	"scene":0,
	"scenes":[
		{
			"name":"Scene",
			"nodes":[
				0
			]
		}
	],
	"nodes":[
		{
			"mesh":0,
			"name":"whiteboard",
			"rotation":[
				-0.70710688829422,
				0,
				0,
				0.7071066498756409
			],
			"translation":[
				0,
				0.008935824036598206,
				0
			]
		}
	],
	"materials":[
		{
			"doubleSided":true,
			"name":"WB_Metal",
			"pbrMetallicRoughness":{
				"metallicFactor":0.699999988079071,
				"roughnessFactor":0.20000000298023224
			}
		},
		{
			"doubleSided":true,
			"name":"WB_Wood",
			"normalTexture":{
				"index":0,
				"scale":0.20000000298023224
			},
			"pbrMetallicRoughness":{
				"baseColorTexture":{
					"index":1
				},
				"metallicFactor":0,
				"metallicRoughnessTexture":{
					"index":2
				}
			}
		},
		{
			"doubleSided":true,
			"extensions":{
				"KHR_materials_specular":{
					"specularFactor":0.5454545021057129
				},
				"KHR_materials_ior":{
					"ior":1.4500000476837158
				}
			},
			"name":"WB_Plastic",
			"pbrMetallicRoughness":{
				"baseColorFactor":[
					0,
					0,
					0,
					1
				],
				"metallicFactor":0
			}
		},
		{
			"doubleSided":true,
			"name":"WB_Board",
			"pbrMetallicRoughness":{
				"metallicFactor":0,
				"roughnessFactor":0.10000000149011612
			}
		}
	],
	"meshes":[
		{
			"name":"Plane",
			"primitives":[
				{
					"attributes":{
						"POSITION":0,
						"NORMAL":1,
						"TEXCOORD_0":2,
						"TEXCOORD_1":3
					},
					"indices":4,
					"material":0
				},
				{
					"attributes":{
						"POSITION":5,
						"NORMAL":6,
						"TEXCOORD_0":7,
						"TEXCOORD_1":8
					},
					"indices":9,
					"material":1
				},
				{
					"attributes":{
						"POSITION":10,
						"NORMAL":11,
						"TEXCOORD_0":12,
						"TEXCOORD_1":13
					},
					"indices":14,
					"material":2
				},
				{
					"attributes":{
						"POSITION":15,
						"NORMAL":16,
						"TEXCOORD_0":17,
						"TEXCOORD_1":18
					},
					"indices":19,
					"material":3
				}
			]
		}
	],
	"textures":[
		{
			"sampler":0,
			"source":0
		},
		{
			"sampler":0,
			"source":1
		},
		{
			"sampler":0,
			"source":2
		}
	],
	"images":[
		{
			"mimeType":"image/jpeg",
			"name":"Wood052_2K_Normal",
			"uri":"Wood052_2K_Normal.jpg"
		},
		{
			"mimeType":"image/jpeg",
			"name":"Wood052_2K_Color",
			"uri":"Wood052_2K_Color.jpg"
		},
		{
			"mimeType":"image/png",
			"name":"Wood052_2K_Roughness",
			"uri":"Wood052_2K_Roughness.png"
		}
	],
	"accessors":[
		{
			"bufferView":0,
			"componentType":5126,
			"count":64,
			"max":[
				0.5997816324234009,
				0.008270102553069592,
				0.04271641746163368
			],
			"min":[
				-0.5997816324234009,
				-0.5912932753562927,
				-0.007045203819870949
			],
			"type":"VEC3"
		},
		{
			"bufferView":1,
			"componentType":5126,
			"count":64,
			"type":"VEC3"
		},
		{
			"bufferView":2,
			"componentType":5126,
			"count":64,
			"type":"VEC2"
		},
		{
			"bufferView":3,
			"componentType":5126,
			"count":64,
			"type":"VEC2"
		},
		{
			"bufferView":4,
			"componentType":5123,
			"count":84,
			"type":"SCALAR"
		},
		{
			"bufferView":5,
			"componentType":5126,
			"count":4,
			"max":[
				0.5989682674407959,
				0.007464602589607239,
				-0.006963098421692848
			],
			"min":[
				-0.5989682674407959,
				-0.5904877781867981,
				-0.007045203819870949
			],
			"type":"VEC3"
		},
		{
			"bufferView":6,
			"componentType":5126,
			"count":4,
			"type":"VEC3"
		},
		{
			"bufferView":7,
			"componentType":5126,
			"count":4,
			"type":"VEC2"
		},
		{
			"bufferView":8,
			"componentType":5126,
			"count":4,
			"type":"VEC2"
		},
		{
			"bufferView":9,
			"componentType":5123,
			"count":6,
			"type":"SCALAR"
		},
		{
			"bufferView":10,
			"componentType":5126,
			"count":166,
			"max":[
				0.6025768518447876,
				0.011065318249166012,
				0.0019275422673672438
			],
			"min":[
				-0.6009167432785034,
				-0.5924346446990967,
				-0.008773778565227985
			],
			"type":"VEC3"
		},
		{
			"bufferView":11,
			"componentType":5126,
			"count":166,
			"type":"VEC3"
		},
		{
			"bufferView":12,
			"componentType":5126,
			"count":166,
			"type":"VEC2"
		},
		{
			"bufferView":13,
			"componentType":5126,
			"count":166,
			"type":"VEC2"
		},
		{
			"bufferView":14,
			"componentType":5123,
			"count":210,
			"type":"SCALAR"
		},
		{
			"bufferView":15,
			"componentType":5126,
			"count":4,
			"max":[
				0.591025710105896,
				-0.0004858091997448355,
				-0.0026666740886867046
			],
			"min":[
				-0.591025710105896,
				-0.5825373530387878,
				-0.0026668328791856766
			],
			"type":"VEC3"
		},
		{
			"bufferView":16,
			"componentType":5126,
			"count":4,
			"type":"VEC3"
		},
		{
			"bufferView":17,
			"componentType":5126,
			"count":4,
			"type":"VEC2"
		},
		{
			"bufferView":18,
			"componentType":5126,
			"count":4,
			"type":"VEC2"
		},
		{
			"bufferView":19,
			"componentType":5123,
			"count":6,
			"type":"SCALAR"
		}
	],
	"bufferViews":[
		{
			"buffer":0,
			"byteLength":768,
			"byteOffset":0,
			"target":34962
		},
		{
			"buffer":0,
			"byteLength":768,
			"byteOffset":768,
			"target":34962
		},
		{
			"buffer":0,
			"byteLength":512,
			"byteOffset":1536,
			"target":34962
		},
		{
			"buffer":0,
			"byteLength":512,
			"byteOffset":2048,
			"target":34962
		},
		{
			"buffer":0,
			"byteLength":168,
			"byteOffset":2560,
			"target":34963
		},
		{
			"buffer":0,
			"byteLength":48,
			"byteOffset":2728,
			"target":34962
		},
		{
			"buffer":0,
			"byteLength":48,
			"byteOffset":2776,
			"target":34962
		},
		{
			"buffer":0,
			"byteLength":32,
			"byteOffset":2824,
			"target":34962
		},
		{
			"buffer":0,
			"byteLength":32,
			"byteOffset":2856,
			"target":34962
		},
		{
			"buffer":0,
			"byteLength":12,
			"byteOffset":2888,
			"target":34963
		},
		{
			"buffer":0,
			"byteLength":1992,
			"byteOffset":2900,
			"target":34962
		},
		{
			"buffer":0,
			"byteLength":1992,
			"byteOffset":4892,
			"target":34962
		},
		{
			"buffer":0,
			"byteLength":1328,
			"byteOffset":6884,
			"target":34962
		},
		{
			"buffer":0,
			"byteLength":1328,
			"byteOffset":8212,
			"target":34962
		},
		{
			"buffer":0,
			"byteLength":420,
			"byteOffset":9540,
			"target":34963
		},
		{
			"buffer":0,
			"byteLength":48,
			"byteOffset":9960,
			"target":34962
		},
		{
			"buffer":0,
			"byteLength":48,
			"byteOffset":10008,
			"target":34962
		},
		{
			"buffer":0,
			"byteLength":32,
			"byteOffset":10056,
			"target":34962
		},
		{
			"buffer":0,
			"byteLength":32,
			"byteOffset":10088,
			"target":34962
		},
		{
			"buffer":0,
			"byteLength":12,
			"byteOffset":10120,
			"target":34963
		}
	],
	"samplers":[
		{
			"magFilter":9729,
			"minFilter":9987
		}
	],
	"buffers":[
		{
			"byteLength":10132,
			"uri":"whiteboard.bin"
		}
	]
}
