{
	"asset":{
		"generator":"Khronos glTF Blender I/O v4.2.70",
		"version":"2.0"
	},
	"extensionsUsed":[
		"KHR_materials_specular",
		"KHR_materials_ior",
		"KHR_texture_transform"
	],
	"extensionsRequired":[
		"KHR_texture_transform"
	],
	"scene":0,
	"scenes":[
		{
			"name":"Scene",
			"nodes":[
				0
			]
		}
	],
	"nodes":[
		{
			"mesh":0,
			"name":"Coffee Paper Cups.001"
		}
	],
	"materials":[
		{
			"doubleSided":true,
			"name":"cup_color",
			"pbrMetallicRoughness":{
				"baseColorTexture":{
					"index":0
				},
				"metallicFactor":0,
				"roughnessFactor":0.5
			}
		},
		{
			"doubleSided":true,
			"name":"cup_rounded paper",
			"normalTexture":{
				"extensions":{
					"KHR_texture_transform":{
						"offset":[
							-0.2605045003774572,
							-1.9954728429176942
						],
						"rotation":0.2635447084903717
					}
				},
				"index":1
			},
			"pbrMetallicRoughness":{
				"baseColorTexture":{
					"extensions":{
						"KHR_texture_transform":{
							"offset":[
								-0.2605045003774572,
								-1.9954728429176942
							],
							"rotation":0.2635447084903717
						}
					},
					"index":2
				},
				"metallicFactor":0,
				"roughnessFactor":0.6909090280532837
			}
		},
		{
			"doubleSided":true,
			"extensions":{
				"KHR_materials_specular":{
					"specularTexture":{
						"index":3
					}
				},
				"KHR_materials_ior":{
					"ior":1.4500000476837158
				}
			},
			"name":"cup_brown paint",
			"normalTexture":{
				"index":4,
				"scale":0.10000000149011612
			},
			"pbrMetallicRoughness":{
				"baseColorFactor":[
					0.16826944053173065,
					0.07618538290262222,
					0.02518685907125473,
					1
				],
				"metallicFactor":0,
				"roughnessFactor":0.7545454502105713
			}
		}
	],
	"meshes":[
		{
			"name":"Circle.001",
			"primitives":[
				{
					"attributes":{
						"POSITION":0,
						"NORMAL":1,
						"TEXCOORD_0":2
					},
					"indices":3,
					"material":0
				},
				{
					"attributes":{
						"POSITION":4,
						"NORMAL":5,
						"TEXCOORD_0":6
					},
					"indices":7,
					"material":1
				},
				{
					"attributes":{
						"POSITION":8,
						"NORMAL":9,
						"TEXCOORD_0":10
					},
					"indices":11,
					"material":2
				}
			]
		}
	],
	"textures":[
		{
			"sampler":0,
			"source":0
		},
		{
			"sampler":0,
			"source":1
		},
		{
			"sampler":0,
			"source":1
		},
		{
			"sampler":0,
			"source":2
		},
		{
			"sampler":0,
			"source":3
		}
	],
	"images":[
		{
			"mimeType":"image/jpeg",
			"name":"istockphoto-1195955831-612x612",
			"uri":"istockphoto-1195955831-612x612.jpg"
		},
		{
			"mimeType":"image/png",
			"name":"Coffee-01",
			"uri":"Coffee-01.png"
		},
		{
			"mimeType":"image/jpeg",
			"name":"istockphoto-1195955831-612x612_SPEC",
			"uri":"istockphoto-1195955831-612x612_SPEC.jpg"
		},
		{
			"mimeType":"image/jpeg",
			"name":"istockphoto-1195955831-612x612_NRM",
			"uri":"istockphoto-1195955831-612x612_NRM.jpg"
		}
	],
	"accessors":[
		{
			"bufferView":0,
			"componentType":5126,
			"count":1198,
			"max":[
				0.037007175385951996,
				0.07200060784816742,
				0.037012360990047455
			],
			"min":[
				-0.03700403869152069,
				0.0038869648706167936,
				-0.037091273814439774
			],
			"type":"VEC3"
		},
		{
			"bufferView":1,
			"componentType":5126,
			"count":1198,
			"type":"VEC3"
		},
		{
			"bufferView":2,
			"componentType":5126,
			"count":1198,
			"type":"VEC2"
		},
		{
			"bufferView":3,
			"componentType":5123,
			"count":1230,
			"type":"SCALAR"
		},
		{
			"bufferView":4,
			"componentType":5126,
			"count":152,
			"max":[
				0.03506365790963173,
				0.07043184340000153,
				0.034967534244060516
			],
			"min":[
				-0.03507547453045845,
				6.910220690770075e-05,
				-0.03497256338596344
			],
			"type":"VEC3"
		},
		{
			"bufferView":5,
			"componentType":5126,
			"count":152,
			"type":"VEC3"
		},
		{
			"bufferView":6,
			"componentType":5126,
			"count":152,
			"type":"VEC2"
		},
		{
			"bufferView":7,
			"componentType":5123,
			"count":168,
			"type":"SCALAR"
		},
		{
			"bufferView":8,
			"componentType":5126,
			"count":300,
			"max":[
				0.026026641950011253,
				0.004676344338804483,
				0.026078104972839355
			],
			"min":[
				-0.02602100558578968,
				6.910220690770075e-05,
				-0.026074174791574478
			],
			"type":"VEC3"
		},
		{
			"bufferView":9,
			"componentType":5126,
			"count":300,
			"type":"VEC3"
		},
		{
			"bufferView":10,
			"componentType":5126,
			"count":300,
			"type":"VEC2"
		},
		{
			"bufferView":11,
			"componentType":5123,
			"count":300,
			"type":"SCALAR"
		}
	],
	"bufferViews":[
		{
			"buffer":0,
			"byteLength":14376,
			"byteOffset":0,
			"target":34962
		},
		{
			"buffer":0,
			"byteLength":14376,
			"byteOffset":14376,
			"target":34962
		},
		{
			"buffer":0,
			"byteLength":9584,
			"byteOffset":28752,
			"target":34962
		},
		{
			"buffer":0,
			"byteLength":2460,
			"byteOffset":38336,
			"target":34963
		},
		{
			"buffer":0,
			"byteLength":1824,
			"byteOffset":40796,
			"target":34962
		},
		{
			"buffer":0,
			"byteLength":1824,
			"byteOffset":42620,
			"target":34962
		},
		{
			"buffer":0,
			"byteLength":1216,
			"byteOffset":44444,
			"target":34962
		},
		{
			"buffer":0,
			"byteLength":336,
			"byteOffset":45660,
			"target":34963
		},
		{
			"buffer":0,
			"byteLength":3600,
			"byteOffset":45996,
			"target":34962
		},
		{
			"buffer":0,
			"byteLength":3600,
			"byteOffset":49596,
			"target":34962
		},
		{
			"buffer":0,
			"byteLength":2400,
			"byteOffset":53196,
			"target":34962
		},
		{
			"buffer":0,
			"byteLength":600,
			"byteOffset":55596,
			"target":34963
		}
	],
	"samplers":[
		{
			"magFilter":9729,
			"minFilter":9987
		}
	],
	"buffers":[
		{
			"byteLength":56196,
			"uri":"coffee%20cup.bin"
		}
	]
}
