{
	"asset":{
		"generator":"Khronos glTF Blender I/O v4.2.70",
		"version":"2.0"
	},
	"extensionsUsed":[
		"KHR_materials_clearcoat"
	],
	"scene":0,
	"scenes":[
		{
			"name":"Scene",
			"nodes":[
				1
			]
		}
	],
	"nodes":[
		{
			"mesh":0,
			"name":"Boss_Extrude32_2_"
		},
		{
			"children":[
				0
			],
			"name":"VENN Toplant\u0131 Masas\u0131 Office Table"
		}
	],
	"materials":[
		{
			"doubleSided":true,
			"extensions":{
				"KHR_materials_clearcoat":{
					"clearcoatFactor":1
				}
			},
			"name":"Beige",
			"pbrMetallicRoughness":{
				"baseColorFactor":[
					0.44999998807907104,
					0.39669069647789,
					0.27000001072883606,
					1
				],
				"metallicFactor":0,
				"roughnessFactor":0.5
			}
		},
		{
			"doubleSided":true,
			"name":"Matte White",
			"pbrMetallicRoughness":{
				"baseColorFactor":[
					0.949999988079071,
					0.949999988079071,
					0.949999988079071,
					1
				],
				"metallicFactor":0,
				"roughnessFactor":0.5
			}
		}
	],
	"meshes":[
		{
			"name":"Mesh.149",
			"primitives":[
				{
					"attributes":{
						"POSITION":0,
						"NORMAL":1,
						"TEXCOORD_0":2
					},
					"indices":3,
					"material":0
				},
				{
					"attributes":{
						"POSITION":4,
						"NORMAL":5,
						"TEXCOORD_0":6
					},
					"indices":7,
					"material":1
				}
			]
		}
	],
	"accessors":[
		{
			"bufferView":0,
			"componentType":5126,
			"count":40490,
			"max":[
				2.000006914138794,
				0.7500068545341492,
				0.5519999861717224
			],
			"min":[
				-2,
				0,
				-0.5520000457763672
			],
			"type":"VEC3"
		},
		{
			"bufferView":1,
			"componentType":5126,
			"count":40490,
			"type":"VEC3"
		},
		{
			"bufferView":2,
			"componentType":5126,
			"count":40490,
			"type":"VEC2"
		},
		{
			"bufferView":3,
			"componentType":5123,
			"count":68292,
			"type":"SCALAR"
		},
		{
			"bufferView":4,
			"componentType":5126,
			"count":34848,
			"max":[
				2.000049591064453,
				0.7500495314598083,
				0.6000495553016663
			],
			"min":[
				-2,
				0.699999988079071,
				-0.600049614906311
			],
			"type":"VEC3"
		},
		{
			"bufferView":5,
			"componentType":5126,
			"count":34848,
			"type":"VEC3"
		},
		{
			"bufferView":6,
			"componentType":5126,
			"count":34848,
			"type":"VEC2"
		},
		{
			"bufferView":7,
			"componentType":5123,
			"count":52272,
			"type":"SCALAR"
		}
	],
	"bufferViews":[
		{
			"buffer":0,
			"byteLength":485880,
			"byteOffset":0,
			"target":34962
		},
		{
			"buffer":0,
			"byteLength":485880,
			"byteOffset":485880,
			"target":34962
		},
		{
			"buffer":0,
			"byteLength":323920,
			"byteOffset":971760,
			"target":34962
		},
		{
			"buffer":0,
			"byteLength":136584,
			"byteOffset":1295680,
			"target":34963
		},
		{
			"buffer":0,
			"byteLength":418176,
			"byteOffset":1432264,
			"target":34962
		},
		{
			"buffer":0,
			"byteLength":418176,
			"byteOffset":1850440,
			"target":34962
		},
		{
			"buffer":0,
			"byteLength":278784,
			"byteOffset":2268616,
			"target":34962
		},
		{
			"buffer":0,
			"byteLength":104544,
			"byteOffset":2547400,
			"target":34963
		}
	],
	"buffers":[
		{
			"byteLength":2651944,
			"uri":"meeting%20table.bin"
		}
	]
}
