{
	"asset":{
		"generator":"Khronos glTF Blender I/O v4.2.70",
		"version":"2.0"
	},
	"extensionsUsed":[
		"KHR_materials_clearcoat"
	],
	"scene":0,
	"scenes":[
		{
			"name":"Scene",
			"nodes":[
				0
			]
		}
	],
	"nodes":[
		{
			"mesh":0,
			"name":"marker",
			"rotation":[
				0,
				0,
				0.7065029144287109,
				0.7077101469039917
			],
			"translation":[
				0.06508100032806396,
				0.007901043631136417,
				0
			]
		}
	],
	"materials":[
		{
			"doubleSided":true,
			"extensions":{
				"KHR_materials_clearcoat":{
					"clearcoatFactor":0.25
				}
			},
			"name":"White Metall",
			"pbrMetallicRoughness":{
				"roughnessFactor":0.5
			}
		},
		{
			"doubleSided":true,
			"name":"Material.001",
			"pbrMetallicRoughness":{
				"baseColorFactor":[
					0.46727681159973145,
					0.46727681159973145,
					0.46727681159973145,
					1
				],
				"roughnessFactor":0.5
			}
		},
		{
			"alphaMode":"BLEND",
			"doubleSided":true,
			"name":"Z-Up_logo_white",
			"pbrMetallicRoughness":{
				"baseColorFactor":[
					0,
					0,
					0,
					1
				],
				"baseColorTexture":{
					"index":0
				},
				"metallicFactor":0,
				"roughnessFactor":0.21903324127197266
			}
		},
		{
			"doubleSided":true,
			"name":"plastic_03",
			"pbrMetallicRoughness":{
				"metallicFactor":0
			}
		}
	],
	"meshes":[
		{
			"name":"Circle.002",
			"primitives":[
				{
					"attributes":{
						"POSITION":0,
						"NORMAL":1,
						"TEXCOORD_0":2
					},
					"indices":3,
					"material":0
				},
				{
					"attributes":{
						"POSITION":4,
						"NORMAL":5,
						"TEXCOORD_0":6
					},
					"indices":7,
					"material":1
				},
				{
					"attributes":{
						"POSITION":8,
						"NORMAL":9,
						"TEXCOORD_0":10
					},
					"indices":11,
					"material":2
				},
				{
					"attributes":{
						"POSITION":12,
						"NORMAL":13,
						"TEXCOORD_0":14
					},
					"indices":15,
					"material":3
				}
			]
		}
	],
	"textures":[
		{
			"sampler":0,
			"source":0
		}
	],
	"images":[
		{
			"mimeType":"image/png",
			"name":"Z-Up_logo_white",
			"uri":"Z-Up_logo_white.png"
		}
	],
	"accessors":[
		{
			"bufferView":0,
			"componentType":5126,
			"count":32,
			"max":[
				0.00757150212302804,
				0.09969570487737656,
				0.0075782970525324345
			],
			"min":[
				-0.0075782970525324345,
				-1.5544500797659566e-07,
				-0.0075782970525324345
			],
			"type":"VEC3"
		},
		{
			"bufferView":1,
			"componentType":5126,
			"count":32,
			"type":"VEC3"
		},
		{
			"bufferView":2,
			"componentType":5126,
			"count":32,
			"type":"VEC2"
		},
		{
			"bufferView":3,
			"componentType":5123,
			"count":150,
			"type":"SCALAR"
		},
		{
			"bufferView":4,
			"componentType":5126,
			"count":24,
			"max":[
				0.007217837497591972,
				3.6002074210728097e-08,
				0.006928309332579374
			],
			"min":[
				-0.006928309332579374,
				-0.001713571953587234,
				-0.006928309332579374
			],
			"type":"VEC3"
		},
		{
			"bufferView":5,
			"componentType":5126,
			"count":24,
			"type":"VEC3"
		},
		{
			"bufferView":6,
			"componentType":5126,
			"count":24,
			"type":"VEC2"
		},
		{
			"bufferView":7,
			"componentType":5123,
			"count":102,
			"type":"SCALAR"
		},
		{
			"bufferView":8,
			"componentType":5126,
			"count":21,
			"max":[
				0.007548064459115267,
				0.0883588194847107,
				0.003839245531708002
			],
			"min":[
				0.003819032572209835,
				0.052107200026512146,
				-0.006538460962474346
			],
			"type":"VEC3"
		},
		{
			"bufferView":9,
			"componentType":5126,
			"count":21,
			"type":"VEC3"
		},
		{
			"bufferView":10,
			"componentType":5126,
			"count":21,
			"type":"VEC2"
		},
		{
			"bufferView":11,
			"componentType":5123,
			"count":21,
			"type":"SCALAR"
		},
		{
			"bufferView":12,
			"componentType":5126,
			"count":293,
			"max":[
				0.007510646246373653,
				0.14047622680664062,
				0.007425046060234308
			],
			"min":[
				-0.007443715818226337,
				0.09969568997621536,
				-0.00760822556912899
			],
			"type":"VEC3"
		},
		{
			"bufferView":13,
			"componentType":5126,
			"count":293,
			"type":"VEC3"
		},
		{
			"bufferView":14,
			"componentType":5126,
			"count":293,
			"type":"VEC2"
		},
		{
			"bufferView":15,
			"componentType":5123,
			"count":1392,
			"type":"SCALAR"
		}
	],
	"bufferViews":[
		{
			"buffer":0,
			"byteLength":384,
			"byteOffset":0,
			"target":34962
		},
		{
			"buffer":0,
			"byteLength":384,
			"byteOffset":384,
			"target":34962
		},
		{
			"buffer":0,
			"byteLength":256,
			"byteOffset":768,
			"target":34962
		},
		{
			"buffer":0,
			"byteLength":300,
			"byteOffset":1024,
			"target":34963
		},
		{
			"buffer":0,
			"byteLength":288,
			"byteOffset":1324,
			"target":34962
		},
		{
			"buffer":0,
			"byteLength":288,
			"byteOffset":1612,
			"target":34962
		},
		{
			"buffer":0,
			"byteLength":192,
			"byteOffset":1900,
			"target":34962
		},
		{
			"buffer":0,
			"byteLength":204,
			"byteOffset":2092,
			"target":34963
		},
		{
			"buffer":0,
			"byteLength":252,
			"byteOffset":2296,
			"target":34962
		},
		{
			"buffer":0,
			"byteLength":252,
			"byteOffset":2548,
			"target":34962
		},
		{
			"buffer":0,
			"byteLength":168,
			"byteOffset":2800,
			"target":34962
		},
		{
			"buffer":0,
			"byteLength":42,
			"byteOffset":2968,
			"target":34963
		},
		{
			"buffer":0,
			"byteLength":3516,
			"byteOffset":3012,
			"target":34962
		},
		{
			"buffer":0,
			"byteLength":3516,
			"byteOffset":6528,
			"target":34962
		},
		{
			"buffer":0,
			"byteLength":2344,
			"byteOffset":10044,
			"target":34962
		},
		{
			"buffer":0,
			"byteLength":2784,
			"byteOffset":12388,
			"target":34963
		}
	],
	"samplers":[
		{
			"magFilter":9729,
			"minFilter":9987,
			"wrapS":33071,
			"wrapT":33071
		}
	],
	"buffers":[
		{
			"byteLength":15172,
			"uri":"marker.bin"
		}
	]
}
