{
	"asset":{
		"generator":"Khronos glTF Blender I/O v4.2.70",
		"version":"2.0"
	},
	"extensionsUsed":[
		"KHR_materials_sheen"
	],
	"scene":0,
	"scenes":[
		{
			"name":"Scene",
			"nodes":[
				1
			]
		}
	],
	"nodes":[
		{
			"mesh":0,
			"name":"AnsyCarpet.006"
		},
		{
			"children":[
				0
			],
			"name":"Carpet 5"
		}
	],
	"materials":[
		{
			"doubleSided":true,
			"extensions":{
				"KHR_materials_sheen":{
					"sheenColorFactor":[
						1.0,
						1.0,
						1.0
					],
					"sheenRoughnessFactor":0.4000000059604645
				}
			},
			"name":"PRISMATIC N Carpet",
			"pbrMetallicRoughness":{
				"baseColorTexture":{
					"index":0
				},
				"metallicFactor":0,
				"roughnessFactor":0.8999999761581421
			}
		}
	],
	"meshes":[
		{
			"name":"Mesh.122",
			"primitives":[
				{
					"attributes":{
						"POSITION":0,
						"NORMAL":1,
						"TEXCOORD_0":2
					},
					"indices":3,
					"material":0
				}
			]
		}
	],
	"textures":[
		{
			"sampler":0,
			"source":0
		}
	],
	"images":[
		{
			"mimeType":"image/jpeg",
			"name":"PRISMATIC N PRS08-MLT 168 x 226_DIFFUSE",
			"uri":"PRISMATIC%20N%20PRS08-MLT%20168%20x%20226_DIFFUSE.jpg"
		}
	],
	"accessors":[
		{
			"bufferView":0,
			"componentType":5126,
			"count":61922,
			"max":[
				0.41099512577056885,
				0.00848584808409214,
				0.6796231865882874
			],
			"min":[
				-0.41099512577056885,
				0,
				-0.6796231865882874
			],
			"type":"VEC3"
		},
		{
			"bufferView":1,
			"componentType":5126,
			"count":61922,
			"type":"VEC3"
		},
		{
			"bufferView":2,
			"componentType":5126,
			"count":61922,
			"type":"VEC2"
		},
		{
			"bufferView":3,
			"componentType":5123,
			"count":371520,
			"type":"SCALAR"
		}
	],
	"bufferViews":[
		{
			"buffer":0,
			"byteLength":743064,
			"byteOffset":0,
			"target":34962
		},
		{
			"buffer":0,
			"byteLength":743064,
			"byteOffset":743064,
			"target":34962
		},
		{
			"buffer":0,
			"byteLength":495376,
			"byteOffset":1486128,
			"target":34962
		},
		{
			"buffer":0,
			"byteLength":743040,
			"byteOffset":1981504,
			"target":34963
		}
	],
	"samplers":[
		{
			"magFilter":9729,
			"minFilter":9987
		}
	],
	"buffers":[
		{
			"byteLength":2724544,
			"uri":"office%20rug.bin"
		}
	]
}
