{
	"asset":{
		"generator":"Khronos glTF Blender I/O v4.2.70",
		"version":"2.0"
	},
	"extensionsUsed":[
		"KHR_materials_clearcoat",
		"KHR_materials_specular",
		"KHR_materials_ior",
		"KHR_texture_transform"
	],
	"extensionsRequired":[
		"KHR_texture_transform"
	],
	"scene":0,
	"scenes":[
		{
			"name":"Scene",
			"nodes":[
				0
			]
		}
	],
	"nodes":[
		{
			"mesh":0,
			"name":"Pool Cue"
		}
	],
	"materials":[
		{
			"doubleSided":true,
			"name":"Maple wood texture",
			"normalTexture":{
				"extensions":{
					"KHR_texture_transform":{
						"offset":[
							0,
							-1.1999988555908203
						],
						"scale":[
							0.30000001192092896,
							2.1999988555908203
						]
					}
				},
				"index":0,
				"scale":0.10000000149011612,
				"texCoord":1
			},
			"pbrMetallicRoughness":{
				"baseColorTexture":{
					"extensions":{
						"KHR_texture_transform":{
							"offset":[
								0,
								-1.1999988555908203
							],
							"scale":[
								0.30000001192092896,
								2.1999988555908203
							]
						}
					},
					"index":1,
					"texCoord":1
				},
				"metallicFactor":0,
				"metallicRoughnessTexture":{
					"extensions":{
						"KHR_texture_transform":{
							"offset":[
								0,
								-1.1999988555908203
							],
							"scale":[
								0.30000001192092896,
								2.1999988555908203
							]
						}
					},
					"index":2,
					"texCoord":1
				}
			}
		},
		{
			"doubleSided":true,
			"extensions":{
				"KHR_materials_specular":{
					"specularFactor":0.290909081697464
				},
				"KHR_materials_ior":{
					"ior":1.4500000476837158
				}
			},
			"name":"Leather Brown",
			"normalTexture":{
				"extensions":{
					"KHR_texture_transform":{
						"offset":[
							0,
							-9
						],
						"scale":[
							10,
							10
						]
					}
				},
				"index":3,
				"scale":1.499999761581421,
				"texCoord":1
			},
			"pbrMetallicRoughness":{
				"baseColorTexture":{
					"extensions":{
						"KHR_texture_transform":{
							"offset":[
								0,
								-9
							],
							"scale":[
								10,
								10
							]
						}
					},
					"index":4,
					"texCoord":1
				},
				"metallicFactor":0,
				"metallicRoughnessTexture":{
					"extensions":{
						"KHR_texture_transform":{
							"offset":[
								0,
								-9
							],
							"scale":[
								10,
								10
							]
						}
					},
					"index":5,
					"texCoord":1
				}
			}
		},
		{
			"doubleSided":true,
			"extensions":{
				"KHR_materials_clearcoat":{
					"clearcoatRoughnessFactor":0
				},
				"KHR_materials_specular":{
					"specularFactor":0.7818182110786438
				},
				"KHR_materials_ior":{
					"ior":1.4500000476837158
				}
			},
			"name":"Handle",
			"pbrMetallicRoughness":{
				"baseColorFactor":[
					0.014394653961062431,
					0.014394653961062431,
					0.014394653961062431,
					1
				],
				"metallicFactor":0,
				"roughnessFactor":0.5227272510528564
			}
		},
		{
			"doubleSided":true,
			"name":"Cover",
			"pbrMetallicRoughness":{
				"metallicFactor":0,
				"roughnessFactor":0.21631205081939697
			}
		},
		{
			"doubleSided":true,
			"extensions":{
				"KHR_materials_clearcoat":{
					"clearcoatFactor":0.11375650018453598,
					"clearcoatRoughnessFactor":0.2945502698421478
				},
				"KHR_materials_specular":{
					"specularFactor":0.6402115821838379
				},
				"KHR_materials_ior":{
					"ior":1.6500000953674316
				}
			},
			"name":"Car rubber wheel",
			"pbrMetallicRoughness":{
				"baseColorFactor":[
					0,
					0,
					0,
					1
				],
				"metallicFactor":0,
				"roughnessFactor":0.6190476417541504
			}
		},
		{
			"doubleSided":true,
			"extensions":{
				"KHR_materials_specular":{
					"specularTexture":{
						"index":6,
						"texCoord":1
					}
				},
				"KHR_materials_ior":{
					"ior":1.4500000476837158
				}
			},
			"name":"Linen",
			"normalTexture":{
				"extensions":{
					"KHR_texture_transform":{
						"offset":[
							0,
							-2
						],
						"scale":[
							3,
							3
						]
					}
				},
				"index":7,
				"scale":1.7999999523162842,
				"texCoord":1
			},
			"pbrMetallicRoughness":{
				"baseColorTexture":{
					"extensions":{
						"KHR_texture_transform":{
							"offset":[
								0,
								-2
							],
							"scale":[
								3,
								3
							]
						}
					},
					"index":8,
					"texCoord":1
				},
				"metallicFactor":0,
				"roughnessFactor":0.5
			}
		}
	],
	"meshes":[
		{
			"name":"Cylinder",
			"primitives":[
				{
					"attributes":{
						"POSITION":0,
						"NORMAL":1,
						"TEXCOORD_0":2,
						"TEXCOORD_1":3
					},
					"indices":4,
					"material":0
				},
				{
					"attributes":{
						"POSITION":5,
						"NORMAL":6,
						"TEXCOORD_0":7,
						"TEXCOORD_1":8
					},
					"indices":9,
					"material":1
				},
				{
					"attributes":{
						"POSITION":10,
						"NORMAL":11,
						"TEXCOORD_0":12,
						"TEXCOORD_1":13
					},
					"indices":14,
					"material":2
				},
				{
					"attributes":{
						"POSITION":15,
						"NORMAL":16,
						"TEXCOORD_0":17,
						"TEXCOORD_1":18
					},
					"indices":19,
					"material":3
				},
				{
					"attributes":{
						"POSITION":20,
						"NORMAL":21,
						"TEXCOORD_0":22,
						"TEXCOORD_1":23
					},
					"indices":24,
					"material":4
				},
				{
					"attributes":{
						"POSITION":25,
						"NORMAL":26,
						"TEXCOORD_0":27,
						"TEXCOORD_1":28
					},
					"indices":29,
					"material":5
				}
			]
		}
	],
	"textures":[
		{
			"sampler":0,
			"source":0
		},
		{
			"sampler":0,
			"source":1
		},
		{
			"sampler":0,
			"source":2
		},
		{
			"sampler":0,
			"source":3
		},
		{
			"sampler":0,
			"source":4
		},
		{
			"sampler":0,
			"source":5
		},
		{
			"sampler":0,
			"source":6
		},
		{
			"sampler":0,
			"source":7
		},
		{
			"sampler":0,
			"source":8
		}
	],
	"images":[
		{
			"mimeType":"image/png",
			"name":"D:\\JOB\\PROJECT\\Material\\Maple wood texture\\Normal",
			"uri":"DJOBPROJECTMaterialMaple%20wood%20textureNormal.png"
		},
		{
			"mimeType":"image/png",
			"name":"D:\\JOB\\PROJECT\\Material\\Maple wood texture\\Diffuse",
			"uri":"DJOBPROJECTMaterialMaple%20wood%20textureDiffuse.png"
		},
		{
			"mimeType":"image/png",
			"name":"D:\\JOB\\PROJECT\\Material\\Maple wood texture\\Roughness",
			"uri":"DJOBPROJECTMaterialMaple%20wood%20textureRoughness.png"
		},
		{
			"mimeType":"image/jpeg",
			"name":"H:\\3DProject\\[2K]Leather\\Leather14_nrm",
			"uri":"H3DProject2KLeatherLeather14_nrm.jpg"
		},
		{
			"mimeType":"image/jpeg",
			"name":"H:\\3DProject\\[2K]Leather\\Leather14_col",
			"uri":"H3DProject2KLeatherLeather14_col.jpg"
		},
		{
			"mimeType":"image/png",
			"name":"H:\\3DProject\\[2K]Leather\\Leather14_rgh",
			"uri":"H3DProject2KLeatherLeather14_rgh.png"
		},
		{
			"mimeType":"image/jpeg",
			"name":"FabricUpholsteryMidCenturyPebbles001_GLOSS_1K",
			"uri":"FabricUpholsteryMidCenturyPebbles001_GLOSS_1K.jpg"
		},
		{
			"mimeType":"image/jpeg",
			"name":"FabricUpholsteryMidCenturyPebbles001_BUMP_1K",
			"uri":"FabricUpholsteryMidCenturyPebbles001_BUMP_1K.jpg"
		},
		{
			"mimeType":"image/jpeg",
			"name":"FabricUpholsteryMidCenturyPebbles001_COL_VAR2_1K",
			"uri":"FabricUpholsteryMidCenturyPebbles001_COL_VAR2_1K.jpg"
		}
	],
	"accessors":[
		{
			"bufferView":0,
			"componentType":5126,
			"count":110,
			"max":[
				0.5992751717567444,
				0.027380166575312614,
				0.01371100451797247
			],
			"min":[
				-0.001073545659892261,
				-0.00022105671814642847,
				-0.01371118426322937
			],
			"type":"VEC3"
		},
		{
			"bufferView":1,
			"componentType":5126,
			"count":110,
			"type":"VEC3"
		},
		{
			"bufferView":2,
			"componentType":5126,
			"count":110,
			"type":"VEC2"
		},
		{
			"bufferView":3,
			"componentType":5126,
			"count":110,
			"type":"VEC2"
		},
		{
			"bufferView":4,
			"componentType":5123,
			"count":300,
			"type":"SCALAR"
		},
		{
			"bufferView":5,
			"componentType":5126,
			"count":255,
			"max":[
				0.6257335543632507,
				0.01367443148046732,
				0.00696625467389822
			],
			"min":[
				0.6220916509628296,
				-0.00023011505254544318,
				-0.006966609973460436
			],
			"type":"VEC3"
		},
		{
			"bufferView":6,
			"componentType":5126,
			"count":255,
			"type":"VEC3"
		},
		{
			"bufferView":7,
			"componentType":5126,
			"count":255,
			"type":"VEC2"
		},
		{
			"bufferView":8,
			"componentType":5126,
			"count":255,
			"type":"VEC2"
		},
		{
			"bufferView":9,
			"componentType":5123,
			"count":1344,
			"type":"SCALAR"
		},
		{
			"bufferView":10,
			"componentType":5126,
			"count":416,
			"max":[
				-0.0007671926287002861,
				0.041237421333789825,
				0.02049386315047741
			],
			"min":[
				-0.635799765586853,
				1.3785756891593337e-05,
				-0.020493866875767708
			],
			"type":"VEC3"
		},
		{
			"bufferView":11,
			"componentType":5126,
			"count":416,
			"type":"VEC3"
		},
		{
			"bufferView":12,
			"componentType":5126,
			"count":416,
			"type":"VEC2"
		},
		{
			"bufferView":13,
			"componentType":5126,
			"count":416,
			"type":"VEC2"
		},
		{
			"bufferView":14,
			"componentType":5123,
			"count":1800,
			"type":"SCALAR"
		},
		{
			"bufferView":15,
			"componentType":5126,
			"count":110,
			"max":[
				0.6222472786903381,
				0.014179731719195843,
				0.007214950863271952
			],
			"min":[
				0.5991138815879822,
				-0.00023011505254544318,
				-0.0072152987122535706
			],
			"type":"VEC3"
		},
		{
			"bufferView":16,
			"componentType":5126,
			"count":110,
			"type":"VEC3"
		},
		{
			"bufferView":17,
			"componentType":5126,
			"count":110,
			"type":"VEC2"
		},
		{
			"bufferView":18,
			"componentType":5126,
			"count":110,
			"type":"VEC2"
		},
		{
			"bufferView":19,
			"componentType":5123,
			"count":300,
			"type":"SCALAR"
		},
		{
			"bufferView":20,
			"componentType":5126,
			"count":305,
			"max":[
				-0.6352869868278503,
				0.039767809212207794,
				0.01900612749159336
			],
			"min":[
				-0.6428322792053223,
				0.0018329391023144126,
				-0.01900612749159336
			],
			"type":"VEC3"
		},
		{
			"bufferView":21,
			"componentType":5126,
			"count":305,
			"type":"VEC3"
		},
		{
			"bufferView":22,
			"componentType":5126,
			"count":305,
			"type":"VEC2"
		},
		{
			"bufferView":23,
			"componentType":5126,
			"count":305,
			"type":"VEC2"
		},
		{
			"bufferView":24,
			"componentType":5123,
			"count":1344,
			"type":"SCALAR"
		},
		{
			"bufferView":25,
			"componentType":5126,
			"count":104,
			"max":[
				-0.26369422674179077,
				0.038947027176618576,
				0.019403202459216118
			],
			"min":[
				-0.5269908905029297,
				0.00011669358354993165,
				-0.019403235986828804
			],
			"type":"VEC3"
		},
		{
			"bufferView":26,
			"componentType":5126,
			"count":104,
			"type":"VEC3"
		},
		{
			"bufferView":27,
			"componentType":5126,
			"count":104,
			"type":"VEC2"
		},
		{
			"bufferView":28,
			"componentType":5126,
			"count":104,
			"type":"VEC2"
		},
		{
			"bufferView":29,
			"componentType":5123,
			"count":300,
			"type":"SCALAR"
		}
	],
	"bufferViews":[
		{
			"buffer":0,
			"byteLength":1320,
			"byteOffset":0,
			"target":34962
		},
		{
			"buffer":0,
			"byteLength":1320,
			"byteOffset":1320,
			"target":34962
		},
		{
			"buffer":0,
			"byteLength":880,
			"byteOffset":2640,
			"target":34962
		},
		{
			"buffer":0,
			"byteLength":880,
			"byteOffset":3520,
			"target":34962
		},
		{
			"buffer":0,
			"byteLength":600,
			"byteOffset":4400,
			"target":34963
		},
		{
			"buffer":0,
			"byteLength":3060,
			"byteOffset":5000,
			"target":34962
		},
		{
			"buffer":0,
			"byteLength":3060,
			"byteOffset":8060,
			"target":34962
		},
		{
			"buffer":0,
			"byteLength":2040,
			"byteOffset":11120,
			"target":34962
		},
		{
			"buffer":0,
			"byteLength":2040,
			"byteOffset":13160,
			"target":34962
		},
		{
			"buffer":0,
			"byteLength":2688,
			"byteOffset":15200,
			"target":34963
		},
		{
			"buffer":0,
			"byteLength":4992,
			"byteOffset":17888,
			"target":34962
		},
		{
			"buffer":0,
			"byteLength":4992,
			"byteOffset":22880,
			"target":34962
		},
		{
			"buffer":0,
			"byteLength":3328,
			"byteOffset":27872,
			"target":34962
		},
		{
			"buffer":0,
			"byteLength":3328,
			"byteOffset":31200,
			"target":34962
		},
		{
			"buffer":0,
			"byteLength":3600,
			"byteOffset":34528,
			"target":34963
		},
		{
			"buffer":0,
			"byteLength":1320,
			"byteOffset":38128,
			"target":34962
		},
		{
			"buffer":0,
			"byteLength":1320,
			"byteOffset":39448,
			"target":34962
		},
		{
			"buffer":0,
			"byteLength":880,
			"byteOffset":40768,
			"target":34962
		},
		{
			"buffer":0,
			"byteLength":880,
			"byteOffset":41648,
			"target":34962
		},
		{
			"buffer":0,
			"byteLength":600,
			"byteOffset":42528,
			"target":34963
		},
		{
			"buffer":0,
			"byteLength":3660,
			"byteOffset":43128,
			"target":34962
		},
		{
			"buffer":0,
			"byteLength":3660,
			"byteOffset":46788,
			"target":34962
		},
		{
			"buffer":0,
			"byteLength":2440,
			"byteOffset":50448,
			"target":34962
		},
		{
			"buffer":0,
			"byteLength":2440,
			"byteOffset":52888,
			"target":34962
		},
		{
			"buffer":0,
			"byteLength":2688,
			"byteOffset":55328,
			"target":34963
		},
		{
			"buffer":0,
			"byteLength":1248,
			"byteOffset":58016,
			"target":34962
		},
		{
			"buffer":0,
			"byteLength":1248,
			"byteOffset":59264,
			"target":34962
		},
		{
			"buffer":0,
			"byteLength":832,
			"byteOffset":60512,
			"target":34962
		},
		{
			"buffer":0,
			"byteLength":832,
			"byteOffset":61344,
			"target":34962
		},
		{
			"buffer":0,
			"byteLength":600,
			"byteOffset":62176,
			"target":34963
		}
	],
	"samplers":[
		{
			"magFilter":9729,
			"minFilter":9987
		}
	],
	"buffers":[
		{
			"byteLength":62776,
			"uri":"pool%20cue.bin"
		}
	]
}
