{
	"asset":{
		"generator":"Khronos glTF Blender I/O v4.2.70",
		"version":"2.0"
	},
	"extensionsUsed":[
		"KHR_materials_emissive_strength"
	],
	"scene":0,
	"scenes":[
		{
			"name":"Scene",
			"nodes":[
				0
			]
		}
	],
	"nodes":[
		{
			"mesh":0,
			"name":"tv"
		}
	],
	"materials":[
		{
			"doubleSided":true,
			"name":"TV_Plastic Base 01",
			"pbrMetallicRoughness":{
				"baseColorTexture":{
					"index":0,
					"texCoord":1
				},
				"metallicFactor":0.9227272272109985,
				"roughnessFactor":0.10000000149011612
			}
		},
		{
			"doubleSided":true,
			"name":"TV_Screen",
			"pbrMetallicRoughness":{
				"baseColorFactor":[
					0,
					0,
					0,
					1
				],
				"metallicFactor":0,
				"roughnessFactor":0.10000000149011612
			}
		},
		{
			"doubleSided":true,
			"emissiveFactor":[
				1,
				0.0157405287027359,
				0.0003378598776180297
			],
			"extensions":{
				"KHR_materials_emissive_strength":{
					"emissiveStrength":3
				}
			},
			"name":"TV_Led",
			"pbrMetallicRoughness":{
				"baseColorFactor":[
					0,
					0,
					0,
					1
				]
			}
		},
		{
			"doubleSided":true,
			"name":"TV_Bolt",
			"normalTexture":{
				"index":1,
				"texCoord":1
			},
			"pbrMetallicRoughness":{
				"baseColorTexture":{
					"index":2,
					"texCoord":1
				},
				"metallicRoughnessTexture":{
					"index":3,
					"texCoord":1
				}
			}
		},
		{
			"doubleSided":true,
			"name":"TV_Metal scratched",
			"normalTexture":{
				"index":4,
				"texCoord":1
			},
			"pbrMetallicRoughness":{
				"baseColorTexture":{
					"index":5,
					"texCoord":1
				},
				"metallicRoughnessTexture":{
					"index":6,
					"texCoord":1
				}
			}
		}
	],
	"meshes":[
		{
			"name":"Plane.073",
			"primitives":[
				{
					"attributes":{
						"POSITION":0,
						"NORMAL":1,
						"TEXCOORD_0":2,
						"TEXCOORD_1":3
					},
					"indices":4,
					"material":0
				},
				{
					"attributes":{
						"POSITION":5,
						"NORMAL":6,
						"TEXCOORD_0":7,
						"TEXCOORD_1":8
					},
					"indices":9,
					"material":1
				},
				{
					"attributes":{
						"POSITION":10,
						"NORMAL":11,
						"TEXCOORD_0":12,
						"TEXCOORD_1":13
					},
					"indices":14,
					"material":2
				},
				{
					"attributes":{
						"POSITION":15,
						"NORMAL":16,
						"TEXCOORD_0":17,
						"TEXCOORD_1":18
					},
					"indices":19,
					"material":3
				},
				{
					"attributes":{
						"POSITION":20,
						"NORMAL":21,
						"TEXCOORD_0":22,
						"TEXCOORD_1":23
					},
					"indices":24,
					"material":4
				}
			]
		}
	],
	"textures":[
		{
			"sampler":0,
			"source":0
		},
		{
			"sampler":0,
			"source":1
		},
		{
			"sampler":0,
			"source":2
		},
		{
			"sampler":0,
			"source":3
		},
		{
			"sampler":0,
			"source":4
		},
		{
			"sampler":0,
			"source":5
		},
		{
			"sampler":0,
			"source":6
		}
	],
	"images":[
		{
			"mimeType":"image/png",
			"name":"Plane.082-01",
			"uri":"Plane_082-01.png"
		},
		{
			"mimeType":"image/jpeg",
			"name":"Metal_Semirough_01_normal",
			"uri":"Metal_Semirough_01_normal.jpg"
		},
		{
			"mimeType":"image/jpeg",
			"name":"Metal_Semirough_01_basecolor",
			"uri":"Metal_Semirough_01_basecolor.jpg"
		},
		{
			"mimeType":"image/png",
			"name":"Metal_Semirough_01_metallic-Metal_Semirough_01_roughness",
			"uri":"Metal_Semirough_01_metallic-Metal_Semirough_01_roughness.png"
		},
		{
			"mimeType":"image/jpeg",
			"name":"Metal038_2K_Normal",
			"uri":"Metal038_2K_Normal.jpg"
		},
		{
			"mimeType":"image/jpeg",
			"name":"Metal038_2K_Color",
			"uri":"Metal038_2K_Color.jpg"
		},
		{
			"mimeType":"image/png",
			"name":"Metal038_2K_Metalness-Metal038_2K_Roughness",
			"uri":"Metal038_2K_Metalness-Metal038_2K_Roughness.png"
		}
	],
	"accessors":[
		{
			"bufferView":0,
			"componentType":5126,
			"count":158,
			"max":[
				0.6763347387313843,
				0.0989471971988678,
				0.41183215379714966
			],
			"min":[
				-0.6763631105422974,
				0.03312532231211662,
				-0.38707253336906433
			],
			"type":"VEC3"
		},
		{
			"bufferView":1,
			"componentType":5126,
			"count":158,
			"type":"VEC3"
		},
		{
			"bufferView":2,
			"componentType":5126,
			"count":158,
			"type":"VEC2"
		},
		{
			"bufferView":3,
			"componentType":5126,
			"count":158,
			"type":"VEC2"
		},
		{
			"bufferView":4,
			"componentType":5123,
			"count":204,
			"type":"SCALAR"
		},
		{
			"bufferView":5,
			"componentType":5126,
			"count":6,
			"max":[
				0.6638443470001221,
				0.09407424926757812,
				0.372186541557312
			],
			"min":[
				-0.6638447642326355,
				0.09405376017093658,
				-0.37459486722946167
			],
			"type":"VEC3"
		},
		{
			"bufferView":6,
			"componentType":5126,
			"count":6,
			"type":"VEC3"
		},
		{
			"bufferView":7,
			"componentType":5126,
			"count":6,
			"type":"VEC2"
		},
		{
			"bufferView":8,
			"componentType":5126,
			"count":6,
			"type":"VEC2"
		},
		{
			"bufferView":9,
			"componentType":5123,
			"count":6,
			"type":"SCALAR"
		},
		{
			"bufferView":10,
			"componentType":5126,
			"count":12,
			"max":[
				0.6730580925941467,
				0.09833947569131851,
				0.397855669260025
			],
			"min":[
				0.6640720367431641,
				0.09829863160848618,
				0.3956432640552521
			],
			"type":"VEC3"
		},
		{
			"bufferView":11,
			"componentType":5126,
			"count":12,
			"type":"VEC3"
		},
		{
			"bufferView":12,
			"componentType":5126,
			"count":12,
			"type":"VEC2"
		},
		{
			"bufferView":13,
			"componentType":5126,
			"count":12,
			"type":"VEC2"
		},
		{
			"bufferView":14,
			"componentType":5123,
			"count":12,
			"type":"SCALAR"
		},
		{
			"bufferView":15,
			"componentType":5126,
			"count":138,
			"max":[
				0.14697988331317902,
				0.030117522925138474,
				0.14561106264591217
			],
			"min":[
				-0.14698050916194916,
				0.02019886113703251,
				-0.14566893875598907
			],
			"type":"VEC3"
		},
		{
			"bufferView":16,
			"componentType":5126,
			"count":138,
			"type":"VEC3"
		},
		{
			"bufferView":17,
			"componentType":5126,
			"count":138,
			"type":"VEC2"
		},
		{
			"bufferView":18,
			"componentType":5126,
			"count":138,
			"type":"VEC2"
		},
		{
			"bufferView":19,
			"componentType":5123,
			"count":162,
			"type":"SCALAR"
		},
		{
			"bufferView":20,
			"componentType":5126,
			"count":886,
			"max":[
				0.16510558128356934,
				0.03311752527952194,
				0.16510656476020813
			],
			"min":[
				-0.16510625183582306,
				-0.0014994973316788673,
				-0.16510534286499023
			],
			"type":"VEC3"
		},
		{
			"bufferView":21,
			"componentType":5126,
			"count":886,
			"type":"VEC3"
		},
		{
			"bufferView":22,
			"componentType":5126,
			"count":886,
			"type":"VEC2"
		},
		{
			"bufferView":23,
			"componentType":5126,
			"count":886,
			"type":"VEC2"
		},
		{
			"bufferView":24,
			"componentType":5123,
			"count":912,
			"type":"SCALAR"
		}
	],
	"bufferViews":[
		{
			"buffer":0,
			"byteLength":1896,
			"byteOffset":0,
			"target":34962
		},
		{
			"buffer":0,
			"byteLength":1896,
			"byteOffset":1896,
			"target":34962
		},
		{
			"buffer":0,
			"byteLength":1264,
			"byteOffset":3792,
			"target":34962
		},
		{
			"buffer":0,
			"byteLength":1264,
			"byteOffset":5056,
			"target":34962
		},
		{
			"buffer":0,
			"byteLength":408,
			"byteOffset":6320,
			"target":34963
		},
		{
			"buffer":0,
			"byteLength":72,
			"byteOffset":6728,
			"target":34962
		},
		{
			"buffer":0,
			"byteLength":72,
			"byteOffset":6800,
			"target":34962
		},
		{
			"buffer":0,
			"byteLength":48,
			"byteOffset":6872,
			"target":34962
		},
		{
			"buffer":0,
			"byteLength":48,
			"byteOffset":6920,
			"target":34962
		},
		{
			"buffer":0,
			"byteLength":12,
			"byteOffset":6968,
			"target":34963
		},
		{
			"buffer":0,
			"byteLength":144,
			"byteOffset":6980,
			"target":34962
		},
		{
			"buffer":0,
			"byteLength":144,
			"byteOffset":7124,
			"target":34962
		},
		{
			"buffer":0,
			"byteLength":96,
			"byteOffset":7268,
			"target":34962
		},
		{
			"buffer":0,
			"byteLength":96,
			"byteOffset":7364,
			"target":34962
		},
		{
			"buffer":0,
			"byteLength":24,
			"byteOffset":7460,
			"target":34963
		},
		{
			"buffer":0,
			"byteLength":1656,
			"byteOffset":7484,
			"target":34962
		},
		{
			"buffer":0,
			"byteLength":1656,
			"byteOffset":9140,
			"target":34962
		},
		{
			"buffer":0,
			"byteLength":1104,
			"byteOffset":10796,
			"target":34962
		},
		{
			"buffer":0,
			"byteLength":1104,
			"byteOffset":11900,
			"target":34962
		},
		{
			"buffer":0,
			"byteLength":324,
			"byteOffset":13004,
			"target":34963
		},
		{
			"buffer":0,
			"byteLength":10632,
			"byteOffset":13328,
			"target":34962
		},
		{
			"buffer":0,
			"byteLength":10632,
			"byteOffset":23960,
			"target":34962
		},
		{
			"buffer":0,
			"byteLength":7088,
			"byteOffset":34592,
			"target":34962
		},
		{
			"buffer":0,
			"byteLength":7088,
			"byteOffset":41680,
			"target":34962
		},
		{
			"buffer":0,
			"byteLength":1824,
			"byteOffset":48768,
			"target":34963
		}
	],
	"samplers":[
		{
			"magFilter":9729,
			"minFilter":9987
		}
	],
	"buffers":[
		{
			"byteLength":50592,
			"uri":"tv.bin"
		}
	]
}
