<?xml version="1.0" encoding="UTF-8"?>
<svg version="1.1" xmlns="http://www.w3.org/2000/svg" width="1000" height="1000">
<path d="M0 0 C5.30872405 1.57726426 10.04823004 3.90346707 14.96484375 6.40234375 C15.83403946 6.83954239 16.70323517 7.27674103 17.59877014 7.72718811 C20.38028685 9.12681448 23.15908765 10.53172254 25.9375 11.9375 C36.93209813 17.49169668 47.93768386 23.00372765 59.06640625 28.28515625 C67.80289592 32.43459031 76.47889994 36.69718437 85.125 41.03125 C85.73113695 41.33504137 86.3372739 41.63883274 86.96177864 41.95182991 C91.934564 44.44517549 96.90470043 46.94378463 101.87475586 49.44256592 C106.20695766 51.62038234 110.54016165 53.79618581 114.875 55.96875 C115.48191681 56.27296875 116.08883362 56.5771875 116.71414185 56.890625 C125.54235798 61.31187695 134.42024004 65.61719864 143.34057617 69.84924316 C156.26099198 75.99826463 169.0189139 82.47784011 181.80187988 88.90612793 C185.97086833 91.00235105 190.14111229 93.09605375 194.3125 95.1875 C195.47622635 95.77099716 196.6399527 96.35449432 197.83894348 96.95567322 C205.12853949 100.59853348 212.4572476 104.14558544 219.82421875 107.62890625 C227.4882321 111.25301902 235.02595462 115.06330712 242.51953125 119.02734375 C245.34025502 120.50309027 248.16224867 121.9763802 250.98461914 123.44897461 C252.89920142 124.45676259 254.80761223 125.47634795 256.71020508 126.5065918 C259.52607085 128.0265558 262.36267362 129.49905521 265.20703125 130.96484375 C266.46505302 131.66588478 266.46505302 131.66588478 267.74848938 132.38108826 C271.23572757 134.13463192 273.64780121 135.27395798 277.55578613 134.48219299 C280.14301452 133.4716204 282.54783248 132.30217266 285 131 C286.3291256 130.39119263 287.66083326 129.78797616 288.99560547 129.19165039 C290.28756293 128.57999734 291.57805825 127.96524778 292.8671875 127.34765625 C293.57562805 127.01148285 294.2840686 126.67530945 295.01397705 126.32894897 C296.52199121 125.61306643 298.02938635 124.89587861 299.53619385 124.17745972 C303.55756859 122.26038299 307.58374529 120.35343375 311.609375 118.4453125 C312.81830917 117.87184334 312.81830917 117.87184334 314.05166626 117.28678894 C321.05859453 113.96547803 328.08685393 110.69219073 335.125 107.4375 C345.43628656 102.66603506 355.72309909 97.84496392 366 93 C377.44314768 87.60543711 388.90280827 82.24939248 400.3828125 76.93359375 C409.60560165 72.65833728 418.80496621 68.33455218 428 64 C440.67533464 58.02531558 453.37189611 52.09901485 466.0859375 46.20703125 C476.49185178 41.38387366 486.88194667 36.52679959 497.27375793 31.6733551 C501.81302445 29.55354486 506.3535651 27.436479 510.89453125 25.3203125 C512.85065272 24.40841021 514.80675154 23.49645934 516.7628479 22.58450317 C518.66287154 21.69897834 520.56324372 20.81420455 522.46362305 19.92944336 C527.98938432 17.35465188 533.50753212 14.76633596 539 12.12109375 C539.88856689 11.69417236 540.77713379 11.26725098 541.69262695 10.82739258 C543.30046047 10.05250462 544.9059657 9.27275758 546.50854492 8.48706055 C551.66954107 6 551.66954107 6 555 6 C554.32484474 17.66308386 552.47637657 29.17523513 550.78466797 40.72363281 C550.4507426 43.02183066 550.11713827 45.32007518 549.78382874 47.61836243 C548.87968415 53.84636072 547.97105327 60.07369707 547.06160879 66.30092335 C546.20023642 72.20384401 545.34225048 78.10725649 544.48422064 84.01066372 C542.77749502 95.7524806 541.06751055 107.49382045 539.35546875 119.23486328 C537.7108482 130.51358514 536.06773789 141.79252522 534.42675781 153.07177734 C534.32643351 153.76135124 534.22610921 154.45092514 534.12274478 155.16139522 C533.61838772 158.62813131 533.11405956 162.0948716 532.60974288 165.56161356 C529.93076512 183.97700085 527.25142238 202.39233605 524.5670408 220.8069365 C523.70265306 226.73656933 522.83922776 232.66633779 521.97837639 238.59648514 C520.47850239 248.92019316 518.96920198 259.24213124 517.4159435 269.5579617 C516.73905296 274.0563862 516.06801197 278.55567493 515.39734101 283.05503035 C515.08139752 285.16226585 514.76239582 287.26904539 514.44013953 289.37532473 C513.99975597 292.25416657 513.56960314 295.13436661 513.14163208 298.01507568 C513.00975408 298.85806261 512.87787608 299.70104953 512.74200177 300.56958151 C511.69222312 307.4871355 511.69222312 307.4871355 514.26831055 313.79833984 C514.80238525 314.34699707 515.33645996 314.8956543 515.88671875 315.4609375 C516.48814697 316.08943604 517.0895752 316.71793457 517.70922852 317.36547852 C518.36205811 318.02862061 519.0148877 318.6917627 519.6875 319.375 C521.06543799 320.80827289 522.4430345 322.24187414 523.8203125 323.67578125 C524.5205957 324.39846191 525.22087891 325.12114258 525.94238281 325.86572266 C529.02265218 329.06075289 532.04250228 332.31062496 535.0625 335.5625 C536.22108715 336.80493655 537.37994154 338.04712395 538.5390625 339.2890625 C540.26925262 341.144162 541.99937243 342.99932707 543.72949219 344.85449219 C550.31100028 351.91114581 556.89833287 358.96219692 563.5 366 C570.1002515 373.03629392 576.68608349 380.08591067 583.26611328 387.14111328 C586.17663651 390.26146303 589.08838287 393.38067102 592 396.5 C593.16667246 397.74999459 594.33333913 398.99999459 595.5 400.25 C596.0775 400.86875 596.655 401.4875 597.25 402.125 C602.49999999 407.74999999 602.49999999 407.74999999 604.24975586 409.62475586 C605.41721314 410.87559131 606.58469363 412.12640509 607.75219727 413.37719727 C610.65695774 416.48923821 613.56132252 419.60164652 616.46484375 422.71484375 C622.46831248 429.15099491 628.47850974 435.5807029 634.5 442 C641.1002515 449.03629392 647.68608349 456.08591067 654.26611328 463.14111328 C657.17663651 466.26146303 660.08838287 469.38067102 663 472.5 C664.16667246 473.74999459 665.33333913 474.99999459 666.5 476.25 C667.0775 476.86875 667.655 477.4875 668.25 478.125 C673.49999999 483.74999999 673.49999999 483.74999999 675.24975586 485.62475586 C676.41721314 486.87559131 677.58469363 488.12640509 678.75219727 489.37719727 C681.65695774 492.48923821 684.56132252 495.60164652 687.46484375 498.71484375 C688.62238999 499.95573462 689.77994207 501.19662003 690.9375 502.4375 C691.50734619 503.04859619 692.07719238 503.65969238 692.66430664 504.28930664 C695.75874394 507.60579747 698.8596051 510.91603966 701.96875 514.21875 C702.96273804 515.27557983 702.96273804 515.27557983 703.97680664 516.35375977 C705.23782179 517.69391221 706.49993946 519.03302856 707.76342773 520.37084961 C709.51947374 522.23772703 711.26043891 524.11776501 713 526 C713.67047363 526.70785645 714.34094727 527.41571289 715.03173828 528.14501953 C715.68255371 528.85126465 716.33336914 529.55750977 717.00390625 530.28515625 C717.60146729 530.92461182 718.19902832 531.56406738 718.81469727 532.22290039 C719.20584717 532.80934326 719.59699707 533.39578613 720 534 C719.67 534.99 719.34 535.98 719 537 C718.02921163 537.16563194 717.05842325 537.33126389 716.05821705 537.50191498 C691.91617973 541.62096159 667.77427379 545.74077762 643.6324892 549.86130524 C631.95548926 551.85432284 620.27845343 553.84712971 608.60131836 555.83935547 C597.29964961 557.7675332 585.99808296 559.69630851 574.69659042 561.6255188 C570.18237236 562.39610728 565.66812073 563.16649862 561.15384293 563.93673706 C537.42759022 567.98522871 513.70335212 572.04482798 489.98589528 576.14457035 C486.65976096 576.71945731 483.33356045 577.29395972 480.00733852 577.86833954 C477.84792332 578.2412764 475.68850996 578.61422398 473.52909851 578.98718262 C471.95217937 579.25953397 471.95217937 579.25953397 470.34340328 579.53738737 C464.17749783 580.60269876 458.01215995 581.67122532 451.84722948 582.74216366 C448.08520943 583.39504158 444.32273391 584.04526407 440.56013513 584.69479752 C438.82337257 584.995242 437.08681496 585.29687395 435.35047889 585.59977341 C432.99162891 586.01116935 430.63211111 586.4184957 428.27238464 586.8248291 C427.58703701 586.94542332 426.90168937 587.06601754 426.19557363 587.19026613 C423.04864166 587.72792774 420.21122584 588 417 588 C416.75894531 588.65226563 416.51789062 589.30453125 416.26953125 589.9765625 C414.62317505 593.89742311 412.6742302 597.61734431 410.6875 601.375 C410.25091064 602.20298096 409.81432129 603.03096191 409.36450195 603.8840332 C405.38982192 611.36688805 401.22359462 618.73541933 397.0300293 626.09716797 C393.09610672 633.01752221 389.27108672 639.98972671 385.5 647 C380.73683939 655.85118814 375.84634166 664.61976982 370.875 673.35546875 C366.99563034 680.1909927 363.22459201 687.07906341 359.5 694 C354.73666689 702.85109734 349.84634397 711.61976577 344.875 720.35546875 C340.99563034 727.1909927 337.22459201 734.07906341 333.5 741 C328.73666689 749.85109734 323.84634397 758.61976577 318.875 767.35546875 C314.99563034 774.1909927 311.22459201 781.07906341 307.5 788 C303.25599952 795.88608742 298.92941733 803.71653832 294.5 811.5 C288.8177237 821.4854096 283.32013026 831.56331873 277.875 841.6796875 C275.29163596 846.47661952 272.66052822 851.24548303 270 856 C268.18945312 855.8269043 268.18945312 855.8269043 266 855 C264.45117188 852.75708008 264.45117188 852.75708008 262.96875 849.76953125 C262.41227783 848.66883301 261.85580566 847.56813477 261.2824707 846.43408203 C260.84748764 845.5502182 260.84748764 845.5502182 260.40371704 844.64849854 C259.17444414 842.15109819 257.91555814 839.66905307 256.65779114 837.18591309 C256.01681432 835.92014177 255.37732649 834.65361537 254.73930359 833.38635254 C252.05322785 828.06130923 249.2116572 822.83602039 246.3125 817.625 C240.37780192 806.88723729 234.82057117 795.96169068 229.24209595 785.03643799 C224.60567959 775.96060637 219.94524148 766.91277045 215 758 C209.15980963 747.47427007 203.71391134 736.75299192 198.24072266 726.03369141 C193.60476322 716.95877822 188.94474363 707.91187319 184 699 C178.15980963 688.47427007 172.71391134 677.75299192 167.24072266 667.03369141 C162.18392968 657.13499451 157.05287158 647.29929316 151.65649414 637.58032227 C145.6502265 626.68122041 140.05709412 615.5617024 134.40820312 604.47460938 C134.00718887 603.68885025 133.60617462 602.90309113 133.19300842 602.09352112 C132.43714986 600.61189269 131.6828517 599.12946679 130.93040466 597.64610291 C129.44869583 594.74149274 127.95154631 591.92080607 126.24829102 589.13696289 C125 587 125 587 125 585 C124.25872958 584.89310065 123.51745916 584.78620131 122.75372601 584.67606258 C113.45162796 583.29403387 104.23315745 581.5669496 95.00512695 579.76977539 C93.32804326 579.44508204 91.65091697 579.12060862 89.97375202 578.79633522 C85.42964819 577.91710766 80.88614466 577.03481347 76.34274149 576.15197349 C71.50239978 575.21201125 66.66149084 574.27497901 61.82064819 573.33760071 C52.51828045 571.53582453 43.21641665 569.73146057 33.91475463 567.926045 C22.20039783 565.65238156 10.48557344 563.38113102 -1.22924805 561.10986328 C-5.46602293 560.28841303 -9.70279318 559.46693891 -13.93955994 558.64544678 C-14.98287706 558.44315334 -16.02619418 558.24085991 -17.10112697 558.03243637 C-23.39846721 556.81136731 -29.6957354 555.58992743 -35.99294764 554.36819839 C-58.7351368 549.95597772 -81.47875203 545.5514583 -104.22743034 541.17281151 C-111.17743204 539.83477179 -118.12698686 538.49441263 -125.07656956 537.15419865 C-131.14732823 535.98382354 -137.21884736 534.81750033 -143.29095459 533.65414333 C-146.90878256 532.95995946 -150.52583367 532.2617989 -154.1426506 531.56236839 C-155.75582488 531.25128747 -157.36933 530.94191596 -158.98320389 530.63448524 C-161.11902003 530.22749123 -163.25358813 529.81449847 -165.38793945 529.39990234 C-166.55678177 529.17539398 -167.72562408 528.95088562 -168.92988586 528.71957397 C-171.78021008 528.05151441 -174.32223191 527.17095203 -177 526 C-175.69056896 523.10490816 -174.29733499 521.05407463 -172.03833008 518.82714844 C-171.44043167 518.23262878 -170.84253326 517.63810913 -170.22651672 517.02557373 C-169.25780891 516.07705536 -169.25780891 516.07705536 -168.26953125 515.109375 C-167.60088547 514.44593079 -166.93223969 513.78248657 -166.24333191 513.09893799 C-164.10441918 510.97781594 -161.9589638 508.86347832 -159.8125 506.75 C-157.68471241 504.65000293 -155.55846171 502.54850868 -153.43522644 500.44390869 C-152.11572591 499.13647456 -150.79356395 497.83171857 -149.46821594 496.5302124 C-145.71763284 492.81954516 -142.2060822 488.97801984 -138.75907898 484.98516846 C-135.83323413 481.68327299 -132.70115471 478.59807715 -129.5625 475.5 C-128.53684937 474.4800293 -128.53684937 474.4800293 -127.49047852 473.43945312 C-124.60262227 470.56774857 -121.70876925 467.70211562 -118.81542969 464.8359375 C-116.68734275 462.72607213 -114.56237083 460.61310355 -112.4375 458.5 C-111.79562744 457.86642578 -111.15375488 457.23285156 -110.49243164 456.58007812 C-107.37442955 453.47875419 -104.37492801 450.32890641 -101.5 447 C-98.02832429 442.98011377 -94.34126691 439.22991377 -90.5625 435.5 C-89.87873291 434.82001953 -89.19496582 434.14003906 -88.49047852 433.43945312 C-85.60262227 430.56774857 -82.70876925 427.70211562 -79.81542969 424.8359375 C-77.68734275 422.72607213 -75.56237083 420.61310355 -73.4375 418.5 C-72.79562744 417.86642578 -72.15375488 417.23285156 -71.49243164 416.58007812 C-68.37893323 413.48323378 -65.38367107 410.33843228 -62.51367188 407.01367188 C-58.97057876 402.91116914 -55.19936717 399.08866318 -51.34375 395.28125 C-50.2848053 394.22798523 -50.2848053 394.22798523 -49.20446777 393.15344238 C-46.22102625 390.18616234 -43.2315929 387.22494637 -40.24267578 384.26318359 C-38.04509421 382.08381535 -35.85062062 379.90135053 -33.65625 377.71875 C-32.99250366 377.063302 -32.32875732 376.407854 -31.64489746 375.73254395 C-27.83862856 371.9459954 -24.25748806 368.03813442 -20.74987793 363.97473145 C-17.82712664 360.6764163 -14.69778665 357.59475263 -11.5625 354.5 C-10.53684937 353.4800293 -10.53684937 353.4800293 -9.49047852 352.43945312 C-6.60262227 349.56774857 -3.70876925 346.70211562 -0.81542969 343.8359375 C1.31265725 341.72607213 3.43762917 339.61310355 5.5625 337.5 C6.20437256 336.86642578 6.84624512 336.23285156 7.50756836 335.58007812 C11.33099867 331.7770993 14.91624427 327.83812862 18.43945312 323.75643921 C20.24021717 321.72962885 22.15636943 319.9341528 24.21875 318.17578125 C25.27449219 317.21961914 25.27449219 317.21961914 26.3515625 316.24414062 C27.7916652 314.94935738 29.25594881 313.68100618 30.7421875 312.43945312 C33.83748123 309.56566275 35.92419481 307.51577659 36.14198983 303.16081637 C35.96806216 301.59958614 35.96806216 301.59958614 35.7906208 300.00681591 C35.60975154 298.27713056 35.60975154 298.27713056 35.42522836 296.51250207 C35.284903 295.35337639 35.14457764 294.19425071 35 293 C34.88677831 291.97581014 34.77355663 290.95162029 34.65690398 289.89639437 C34.29684235 286.72853646 33.90522969 283.5658569 33.50631714 280.40266418 C33.35774926 279.20465406 33.20918139 278.00664393 33.05611145 276.77233046 C32.64815813 273.48742628 32.23752765 270.20287776 31.8257277 266.918455 C31.38043084 263.36129118 30.93870818 259.80368332 30.49658203 256.24612427 C29.73174847 250.09539832 28.96485094 243.94493265 28.19665146 237.79462624 C27.08584905 228.90049553 25.97958186 220.00580495 24.87463237 211.11094543 C23.08120712 196.6739108 21.28599295 182.2370994 19.48876953 167.80053711 C19.38141059 166.93814435 19.27405165 166.07575159 19.16343941 165.18722572 C17.63632156 152.92089909 16.10735861 140.65480314 14.57765593 128.38879862 C14.4696906 127.52307076 14.36172528 126.6573429 14.25048828 125.76538086 C14.0887365 124.46837661 14.0887365 124.46837661 13.92371701 123.14517025 C12.12817942 108.74668188 10.33735296 94.34761229 8.55042756 79.94805259 C7.44841921 71.06930604 6.34240965 62.19107578 5.23129417 53.31346425 C4.47172294 47.24212313 3.71654148 41.1702465 2.96487294 35.09792195 C2.53067233 31.5914457 2.09442145 28.08525503 1.6528511 24.57969856 C1.17521202 20.78744409 0.70697517 16.99406393 0.23971558 13.20051575 C0.09741072 12.08294303 -0.04489414 10.96537032 -0.19151127 9.81393176 C-0.31430577 8.80429864 -0.43710026 7.79466551 -0.5636158 6.75443745 C-0.6728129 5.8782549 -0.78201 5.00207236 -0.89451611 4.09933883 C-1 2 -1 2 0 0 Z " fill="#C4C4C4" transform="translate(230,98)"/>
<path d="M0 0 C5.30872405 1.57726426 10.04823004 3.90346707 14.96484375 6.40234375 C15.83403946 6.83954239 16.70323517 7.27674103 17.59877014 7.72718811 C20.38028685 9.12681448 23.15908765 10.53172254 25.9375 11.9375 C36.93209813 17.49169668 47.93768386 23.00372765 59.06640625 28.28515625 C67.80289592 32.43459031 76.47889994 36.69718437 85.125 41.03125 C85.73113695 41.33504137 86.3372739 41.63883274 86.96177864 41.95182991 C91.934564 44.44517549 96.90470043 46.94378463 101.87475586 49.44256592 C106.20695766 51.62038234 110.54016165 53.79618581 114.875 55.96875 C115.48191681 56.27296875 116.08883362 56.5771875 116.71414185 56.890625 C125.54235798 61.31187695 134.42024004 65.61719864 143.34057617 69.84924316 C156.26099198 75.99826463 169.0189139 82.47784011 181.80187988 88.90612793 C185.97086833 91.00235105 190.14111229 93.09605375 194.3125 95.1875 C195.47622635 95.77099716 196.6399527 96.35449432 197.83894348 96.95567322 C205.12853949 100.59853348 212.4572476 104.14558544 219.82421875 107.62890625 C227.4882321 111.25301902 235.02595462 115.06330712 242.51953125 119.02734375 C245.34025502 120.50309027 248.16224867 121.9763802 250.98461914 123.44897461 C252.89920142 124.45676259 254.80761223 125.47634795 256.71020508 126.5065918 C259.52607085 128.0265558 262.36267362 129.49905521 265.20703125 130.96484375 C266.46505302 131.66588478 266.46505302 131.66588478 267.74848938 132.38108826 C271.23572757 134.13463192 273.64780121 135.27395798 277.55578613 134.48219299 C280.14301452 133.4716204 282.54783248 132.30217266 285 131 C286.3291256 130.39119263 287.66083326 129.78797616 288.99560547 129.19165039 C290.28756293 128.57999734 291.57805825 127.96524778 292.8671875 127.34765625 C293.57562805 127.01148285 294.2840686 126.67530945 295.01397705 126.32894897 C296.52199121 125.61306643 298.02938635 124.89587861 299.53619385 124.17745972 C303.55756859 122.26038299 307.58374529 120.35343375 311.609375 118.4453125 C312.81830917 117.87184334 312.81830917 117.87184334 314.05166626 117.28678894 C321.05859453 113.96547803 328.08685393 110.69219073 335.125 107.4375 C345.43628656 102.66603506 355.72309909 97.84496392 366 93 C377.44314768 87.60543711 388.90280827 82.24939248 400.3828125 76.93359375 C409.60560165 72.65833728 418.80496621 68.33455218 428 64 C440.67533464 58.02531558 453.37189611 52.09901485 466.0859375 46.20703125 C476.49185178 41.38387366 486.88194667 36.52679959 497.27375793 31.6733551 C501.81302445 29.55354486 506.3535651 27.436479 510.89453125 25.3203125 C512.85065272 24.40841021 514.80675154 23.49645934 516.7628479 22.58450317 C518.66287154 21.69897834 520.56324372 20.81420455 522.46362305 19.92944336 C527.98938432 17.35465188 533.50753212 14.76633596 539 12.12109375 C539.88856689 11.69417236 540.77713379 11.26725098 541.69262695 10.82739258 C543.30046047 10.05250462 544.9059657 9.27275758 546.50854492 8.48706055 C551.66954107 6 551.66954107 6 555 6 C554.32484474 17.66308386 552.47637657 29.17523513 550.78466797 40.72363281 C550.4507426 43.02183066 550.11713827 45.32007518 549.78382874 47.61836243 C548.87968415 53.84636072 547.97105327 60.07369707 547.06160879 66.30092335 C546.20023642 72.20384401 545.34225048 78.10725649 544.48422064 84.01066372 C542.77749502 95.7524806 541.06751055 107.49382045 539.35546875 119.23486328 C537.7108482 130.51358514 536.06773789 141.79252522 534.42675781 153.07177734 C534.32643351 153.76135124 534.22610921 154.45092514 534.12274478 155.16139522 C533.61838772 158.62813131 533.11405956 162.0948716 532.60974288 165.56161356 C529.93076512 183.97700085 527.25142238 202.39233605 524.5670408 220.8069365 C523.70265306 226.73656933 522.83922776 232.66633779 521.97837639 238.59648514 C520.47850239 248.92019316 518.96920198 259.24213124 517.4159435 269.5579617 C516.73905296 274.0563862 516.06801197 278.55567493 515.39734101 283.05503035 C515.08139752 285.16226585 514.76239582 287.26904539 514.44013953 289.37532473 C513.99975597 292.25416657 513.56960314 295.13436661 513.14163208 298.01507568 C513.00975408 298.85806261 512.87787608 299.70104953 512.74200177 300.56958151 C511.69222312 307.4871355 511.69222312 307.4871355 514.26831055 313.79833984 C514.80238525 314.34699707 515.33645996 314.8956543 515.88671875 315.4609375 C516.48814697 316.08943604 517.0895752 316.71793457 517.70922852 317.36547852 C518.36205811 318.02862061 519.0148877 318.6917627 519.6875 319.375 C521.06543799 320.80827289 522.4430345 322.24187414 523.8203125 323.67578125 C524.5205957 324.39846191 525.22087891 325.12114258 525.94238281 325.86572266 C529.02265218 329.06075289 532.04250228 332.31062496 535.0625 335.5625 C536.22108715 336.80493655 537.37994154 338.04712395 538.5390625 339.2890625 C540.26925262 341.144162 541.99937243 342.99932707 543.72949219 344.85449219 C550.31100028 351.91114581 556.89833287 358.96219692 563.5 366 C570.1002515 373.03629392 576.68608349 380.08591067 583.26611328 387.14111328 C586.17663651 390.26146303 589.08838287 393.38067102 592 396.5 C593.16667246 397.74999459 594.33333913 398.99999459 595.5 400.25 C596.0775 400.86875 596.655 401.4875 597.25 402.125 C602.49999999 407.74999999 602.49999999 407.74999999 604.24975586 409.62475586 C605.41721314 410.87559131 606.58469363 412.12640509 607.75219727 413.37719727 C610.65695774 416.48923821 613.56132252 419.60164652 616.46484375 422.71484375 C622.46831248 429.15099491 628.47850974 435.5807029 634.5 442 C641.1002515 449.03629392 647.68608349 456.08591067 654.26611328 463.14111328 C657.17663651 466.26146303 660.08838287 469.38067102 663 472.5 C664.16667246 473.74999459 665.33333913 474.99999459 666.5 476.25 C667.0775 476.86875 667.655 477.4875 668.25 478.125 C673.49999999 483.74999999 673.49999999 483.74999999 675.24975586 485.62475586 C676.41721314 486.87559131 677.58469363 488.12640509 678.75219727 489.37719727 C681.65695774 492.48923821 684.56132252 495.60164652 687.46484375 498.71484375 C688.62238999 499.95573462 689.77994207 501.19662003 690.9375 502.4375 C691.50734619 503.04859619 692.07719238 503.65969238 692.66430664 504.28930664 C695.75874394 507.60579747 698.8596051 510.91603966 701.96875 514.21875 C702.96273804 515.27557983 702.96273804 515.27557983 703.97680664 516.35375977 C705.23782179 517.69391221 706.49993946 519.03302856 707.76342773 520.37084961 C709.51947374 522.23772703 711.26043891 524.11776501 713 526 C713.67047363 526.70785645 714.34094727 527.41571289 715.03173828 528.14501953 C715.68255371 528.85126465 716.33336914 529.55750977 717.00390625 530.28515625 C717.60146729 530.92461182 718.19902832 531.56406738 718.81469727 532.22290039 C719.20584717 532.80934326 719.59699707 533.39578613 720 534 C719.67 534.99 719.34 535.98 719 537 C718.02921163 537.16563194 717.05842325 537.33126389 716.05821705 537.50191498 C691.91617973 541.62096159 667.77427379 545.74077762 643.6324892 549.86130524 C631.95548926 551.85432284 620.27845343 553.84712971 608.60131836 555.83935547 C597.29964961 557.7675332 585.99808296 559.69630851 574.69659042 561.6255188 C570.18237236 562.39610728 565.66812073 563.16649862 561.15384293 563.93673706 C537.42759022 567.98522871 513.70335212 572.04482798 489.98589528 576.14457035 C486.65976096 576.71945731 483.33356045 577.29395972 480.00733852 577.86833954 C477.84792332 578.2412764 475.68850996 578.61422398 473.52909851 578.98718262 C471.95217937 579.25953397 471.95217937 579.25953397 470.34340328 579.53738737 C464.17749783 580.60269876 458.01215995 581.67122532 451.84722948 582.74216366 C448.08520943 583.39504158 444.32273391 584.04526407 440.56013513 584.69479752 C438.82337257 584.995242 437.08681496 585.29687395 435.35047889 585.59977341 C432.99162891 586.01116935 430.63211111 586.4184957 428.27238464 586.8248291 C427.58703701 586.94542332 426.90168937 587.06601754 426.19557363 587.19026613 C423.04864166 587.72792774 420.21122584 588 417 588 C416.75894531 588.65226563 416.51789062 589.30453125 416.26953125 589.9765625 C414.62317505 593.89742311 412.6742302 597.61734431 410.6875 601.375 C410.25091064 602.20298096 409.81432129 603.03096191 409.36450195 603.8840332 C405.38982192 611.36688805 401.22359462 618.73541933 397.0300293 626.09716797 C393.09610672 633.01752221 389.27108672 639.98972671 385.5 647 C380.73683939 655.85118814 375.84634166 664.61976982 370.875 673.35546875 C366.99563034 680.1909927 363.22459201 687.07906341 359.5 694 C354.73666689 702.85109734 349.84634397 711.61976577 344.875 720.35546875 C340.99563034 727.1909927 337.22459201 734.07906341 333.5 741 C328.73666689 749.85109734 323.84634397 758.61976577 318.875 767.35546875 C314.99563034 774.1909927 311.22459201 781.07906341 307.5 788 C303.25599952 795.88608742 298.92941733 803.71653832 294.5 811.5 C288.8177237 821.4854096 283.32013026 831.56331873 277.875 841.6796875 C275.29163596 846.47661952 272.66052822 851.24548303 270 856 C268.18945312 855.8269043 268.18945312 855.8269043 266 855 C264.45117188 852.75708008 264.45117188 852.75708008 262.96875 849.76953125 C262.41227783 848.66883301 261.85580566 847.56813477 261.2824707 846.43408203 C260.84748764 845.5502182 260.84748764 845.5502182 260.40371704 844.64849854 C259.17444414 842.15109819 257.91555814 839.66905307 256.65779114 837.18591309 C256.01681432 835.92014177 255.37732649 834.65361537 254.73930359 833.38635254 C252.05322785 828.06130923 249.2116572 822.83602039 246.3125 817.625 C240.37780192 806.88723729 234.82057117 795.96169068 229.24209595 785.03643799 C224.60567959 775.96060637 219.94524148 766.91277045 215 758 C209.15980963 747.47427007 203.71391134 736.75299192 198.24072266 726.03369141 C193.60476322 716.95877822 188.94474363 707.91187319 184 699 C178.15980963 688.47427007 172.71391134 677.75299192 167.24072266 667.03369141 C162.18392968 657.13499451 157.05287158 647.29929316 151.65649414 637.58032227 C145.6502265 626.68122041 140.05709412 615.5617024 134.40820312 604.47460938 C134.00718887 603.68885025 133.60617462 602.90309113 133.19300842 602.09352112 C132.43714986 600.61189269 131.6828517 599.12946679 130.93040466 597.64610291 C129.44869583 594.74149274 127.95154631 591.92080607 126.24829102 589.13696289 C125 587 125 587 125 585 C124.25872958 584.89310065 123.51745916 584.78620131 122.75372601 584.67606258 C113.45162796 583.29403387 104.23315745 581.5669496 95.00512695 579.76977539 C93.32804326 579.44508204 91.65091697 579.12060862 89.97375202 578.79633522 C85.42964819 577.91710766 80.88614466 577.03481347 76.34274149 576.15197349 C71.50239978 575.21201125 66.66149084 574.27497901 61.82064819 573.33760071 C52.51828045 571.53582453 43.21641665 569.73146057 33.91475463 567.926045 C22.20039783 565.65238156 10.48557344 563.38113102 -1.22924805 561.10986328 C-5.46602293 560.28841303 -9.70279318 559.46693891 -13.93955994 558.64544678 C-14.98287706 558.44315334 -16.02619418 558.24085991 -17.10112697 558.03243637 C-23.39846721 556.81136731 -29.6957354 555.58992743 -35.99294764 554.36819839 C-58.7351368 549.95597772 -81.47875203 545.5514583 -104.22743034 541.17281151 C-111.17743204 539.83477179 -118.12698686 538.49441263 -125.07656956 537.15419865 C-131.14732823 535.98382354 -137.21884736 534.81750033 -143.29095459 533.65414333 C-146.90878256 532.95995946 -150.52583367 532.2617989 -154.1426506 531.56236839 C-155.75582488 531.25128747 -157.36933 530.94191596 -158.98320389 530.63448524 C-161.11902003 530.22749123 -163.25358813 529.81449847 -165.38793945 529.39990234 C-166.55678177 529.17539398 -167.72562408 528.95088562 -168.92988586 528.71957397 C-171.78021008 528.05151441 -174.32223191 527.17095203 -177 526 C-175.69056896 523.10490816 -174.29733499 521.05407463 -172.03833008 518.82714844 C-171.44043167 518.23262878 -170.84253326 517.63810913 -170.22651672 517.02557373 C-169.25780891 516.07705536 -169.25780891 516.07705536 -168.26953125 515.109375 C-167.60088547 514.44593079 -166.93223969 513.78248657 -166.24333191 513.09893799 C-164.10441918 510.97781594 -161.9589638 508.86347832 -159.8125 506.75 C-157.68471241 504.65000293 -155.55846171 502.54850868 -153.43522644 500.44390869 C-152.11572591 499.13647456 -150.79356395 497.83171857 -149.46821594 496.5302124 C-145.71763284 492.81954516 -142.2060822 488.97801984 -138.75907898 484.98516846 C-135.83323413 481.68327299 -132.70115471 478.59807715 -129.5625 475.5 C-128.53684937 474.4800293 -128.53684937 474.4800293 -127.49047852 473.43945312 C-124.60262227 470.56774857 -121.70876925 467.70211562 -118.81542969 464.8359375 C-116.68734275 462.72607213 -114.56237083 460.61310355 -112.4375 458.5 C-111.79562744 457.86642578 -111.15375488 457.23285156 -110.49243164 456.58007812 C-107.37442955 453.47875419 -104.37492801 450.32890641 -101.5 447 C-98.02832429 442.98011377 -94.34126691 439.22991377 -90.5625 435.5 C-89.87873291 434.82001953 -89.19496582 434.14003906 -88.49047852 433.43945312 C-85.60262227 430.56774857 -82.70876925 427.70211562 -79.81542969 424.8359375 C-77.68734275 422.72607213 -75.56237083 420.61310355 -73.4375 418.5 C-72.79562744 417.86642578 -72.15375488 417.23285156 -71.49243164 416.58007812 C-68.37893323 413.48323378 -65.38367107 410.33843228 -62.51367188 407.01367188 C-58.97057876 402.91116914 -55.19936717 399.08866318 -51.34375 395.28125 C-50.2848053 394.22798523 -50.2848053 394.22798523 -49.20446777 393.15344238 C-46.22102625 390.18616234 -43.2315929 387.22494637 -40.24267578 384.26318359 C-38.04509421 382.08381535 -35.85062062 379.90135053 -33.65625 377.71875 C-32.99250366 377.063302 -32.32875732 376.407854 -31.64489746 375.73254395 C-27.83862856 371.9459954 -24.25748806 368.03813442 -20.74987793 363.97473145 C-17.82712664 360.6764163 -14.69778665 357.59475263 -11.5625 354.5 C-10.53684937 353.4800293 -10.53684937 353.4800293 -9.49047852 352.43945312 C-6.60262227 349.56774857 -3.70876925 346.70211562 -0.81542969 343.8359375 C1.31265725 341.72607213 3.43762917 339.61310355 5.5625 337.5 C6.20437256 336.86642578 6.84624512 336.23285156 7.50756836 335.58007812 C11.33099867 331.7770993 14.91624427 327.83812862 18.43945312 323.75643921 C20.24021717 321.72962885 22.15636943 319.9341528 24.21875 318.17578125 C25.27449219 317.21961914 25.27449219 317.21961914 26.3515625 316.24414062 C27.7916652 314.94935738 29.25594881 313.68100618 30.7421875 312.43945312 C33.83748123 309.56566275 35.92419481 307.51577659 36.14198983 303.16081637 C35.96806216 301.59958614 35.96806216 301.59958614 35.7906208 300.00681591 C35.60975154 298.27713056 35.60975154 298.27713056 35.42522836 296.51250207 C35.284903 295.35337639 35.14457764 294.19425071 35 293 C34.88677831 291.97581014 34.77355663 290.95162029 34.65690398 289.89639437 C34.29684235 286.72853646 33.90522969 283.5658569 33.50631714 280.40266418 C33.35774926 279.20465406 33.20918139 278.00664393 33.05611145 276.77233046 C32.64815813 273.48742628 32.23752765 270.20287776 31.8257277 266.918455 C31.38043084 263.36129118 30.93870818 259.80368332 30.49658203 256.24612427 C29.73174847 250.09539832 28.96485094 243.94493265 28.19665146 237.79462624 C27.08584905 228.90049553 25.97958186 220.00580495 24.87463237 211.11094543 C23.08120712 196.6739108 21.28599295 182.2370994 19.48876953 167.80053711 C19.38141059 166.93814435 19.27405165 166.07575159 19.16343941 165.18722572 C17.63632156 152.92089909 16.10735861 140.65480314 14.57765593 128.38879862 C14.4696906 127.52307076 14.36172528 126.6573429 14.25048828 125.76538086 C14.0887365 124.46837661 14.0887365 124.46837661 13.92371701 123.14517025 C12.12817942 108.74668188 10.33735296 94.34761229 8.55042756 79.94805259 C7.44841921 71.06930604 6.34240965 62.19107578 5.23129417 53.31346425 C4.47172294 47.24212313 3.71654148 41.1702465 2.96487294 35.09792195 C2.53067233 31.5914457 2.09442145 28.08525503 1.6528511 24.57969856 C1.17521202 20.78744409 0.70697517 16.99406393 0.23971558 13.20051575 C0.09741072 12.08294303 -0.04489414 10.96537032 -0.19151127 9.81393176 C-0.31430577 8.80429864 -0.43710026 7.79466551 -0.5636158 6.75443745 C-0.6728129 5.8782549 -0.78201 5.00207236 -0.89451611 4.09933883 C-1 2 -1 2 0 0 Z M15 22 C15.31765614 25.3353895 15.65295511 28.66758034 16 32 C16.20109375 33.95873047 16.20109375 33.95873047 16.40625 35.95703125 C16.56179712 37.38809741 16.71804963 38.81908706 16.875 40.25 C16.97433838 41.23021118 16.97433838 41.23021118 17.07568359 42.23022461 C17.56941692 46.61855585 18.38526866 50.86269212 19.3515625 55.171875 C21.3079102 64.07737001 22.67425891 73.0633509 24.05224609 82.07373047 C24.49508106 84.96785253 24.94427229 87.86093092 25.39453125 90.75390625 C27.03246278 101.33933092 28.58083881 111.93082541 29.93566895 122.55664062 C30.57691999 127.44609244 31.41483127 132.219014 32.54937744 137.01908875 C33.28559243 140.25544814 33.7609105 143.5318911 34.25 146.8125 C35.26971952 153.46681457 36.34392696 160.1107581 37.45703125 166.75 C37.58784088 167.53058273 37.71865051 168.31116547 37.85342407 169.11540222 C38.38611891 172.29085874 38.91950599 175.46619328 39.45593262 178.64102173 C40.92821466 187.35612766 42.32782858 196.06997013 43.55053711 204.82446289 C44.22367949 209.58033633 44.98272309 214.32104857 45.75 219.0625 C45.91556396 220.09197754 46.08112793 221.12145508 46.25170898 222.18212891 C47.97736648 232.8972399 49.72081561 243.60949034 51.45977783 254.32244873 C54.73998446 274.53337663 57.89813745 294.76088006 61 315 C60.41895508 315.25434814 59.83791016 315.50869629 59.23925781 315.77075195 C56.75820358 317.13273495 55.14481897 318.6431444 53.171875 320.66796875 C52.45386719 321.39693359 51.73585938 322.12589844 50.99609375 322.87695312 C50.25488281 323.63943359 49.51367188 324.40191406 48.75 325.1875 C43.9529368 330.09959047 39.12004288 334.83912048 33.91113281 339.3137207 C30.79407839 342.06403941 27.90667089 345.03085541 25 348 C20.85736252 352.19070606 16.69060073 356.22690628 12.1875 360.03125 C9.00179249 362.89838676 6.01415242 365.95431879 3 369 C-1.14508331 373.18844192 -5.30916359 377.22670717 -9.8125 381.03125 C-12.99820751 383.89838676 -15.98584758 386.95431879 -19 390 C-23.14508331 394.18844192 -27.30916359 398.22670717 -31.8125 402.03125 C-34.99820751 404.89838676 -37.98584758 407.95431879 -41 411 C-45.14508331 415.18844192 -49.30916359 419.22670717 -53.8125 423.03125 C-57.65296637 426.48766973 -61.23154622 430.21302595 -64.86499023 433.88452148 C-68.41457818 437.45698233 -72.03157879 440.84604401 -75.87890625 444.09765625 C-78.87139221 446.78152487 -81.67433259 449.64234089 -84.5 452.5 C-87.89006381 455.92844551 -91.25193957 459.32260699 -94.9375 462.4375 C-98.84269979 465.74572658 -102.40280926 469.36513741 -106 473 C-110.1450809 477.18844516 -114.30916362 481.2267072 -118.8125 485.03125 C-122.64989512 488.48490561 -126.22575205 492.20708313 -129.85620117 495.87573242 C-133.48585038 499.52885868 -137.18883689 503.00669536 -141.11328125 506.34375 C-144.92187447 509.68711133 -148.65131901 513.193976 -152 517 C-152 517.66 -152 518.32 -152 519 C-122.5744296 524.02525809 -93.08227795 528.60364535 -63.58078003 533.15825653 C-57.0750724 534.16319808 -50.56976863 535.17074642 -44.06445312 536.17822266 C-41.45898516 536.58170063 -38.85351641 536.98517355 -36.24804688 537.38864136 C-34.96845093 537.58679317 -33.68885498 537.78494499 -32.3704834 537.98910141 C-28.54064097 538.58206435 -24.71075779 539.1747633 -20.88085938 539.7673645 C-8.23412881 541.72424862 4.4124322 543.68215942 17.05710411 545.65230751 C19.10994477 545.97178779 21.16296125 546.29011611 23.21601868 546.60820007 C29.37630217 547.56497907 35.53227208 548.54048737 41.68237305 549.56079102 C53.20878413 551.45351126 64.69608628 553.13138894 76.31251335 554.3406868 C83.3231775 555.07141468 90.31958535 555.89393449 97.31357002 556.76977158 C101.56066027 557.29481291 105.79881119 557.76650185 110.06494141 558.10736084 C135.11602839 560.14352546 135.11602839 560.14352546 141.4913063 566.48291016 C147.52836725 573.98979366 150.725984 583.23160522 153.70796204 592.27380371 C155.56051343 597.61650286 158.02005196 602.58470079 160.5625 607.625 C161.44271044 609.45906691 162.31946381 611.29480047 163.19140625 613.1328125 C166.44097445 619.93151298 169.72084771 626.71553937 173 633.5 C178.12290372 644.09998179 183.21898913 654.71243778 188.29296875 665.3359375 C191.16697322 671.3525646 194.05137433 677.36417967 196.9375 683.375 C197.43652832 684.41430664 197.93555664 685.45361328 198.44970703 686.52441406 C199.46105834 688.63055398 200.47245168 690.73667373 201.48388672 692.84277344 C203.98994908 698.06151715 206.49492296 703.28078326 209 708.5 C209.99999471 710.58333587 210.99999471 712.66666921 212 714.75 C218 727.25000001 218 727.25000001 219.49951172 730.37402344 C220.50109701 732.46063229 221.50272472 734.54722078 222.50439453 736.63378906 C224.98048516 741.79184211 227.45587525 746.95022881 229.9296875 752.109375 C235.58611471 763.90354747 241.26040504 775.68893255 246.95227051 787.46603394 C251.47731686 796.8297329 255.97873318 806.20446973 260.44946289 815.59423828 C262.91178668 820.75821813 265.42487196 825.89127825 268 831 C271.26674904 829.36662548 272.06424872 825.83554143 273.5 822.625 C276.29429172 816.50385032 279.25632034 810.51421386 282.4375 804.5859375 C289.02872317 792.1767946 295.2458183 779.58126809 301.5 767 C314.55545781 740.73689752 314.55545781 740.73689752 321.22424316 728.19360352 C327.02656076 717.23685384 332.48256787 706.1019552 338 695 C350.49505131 669.85795987 350.49505131 669.85795987 355.96875 659.5625 C362.38335229 647.49542638 368.41716374 635.23657986 374.5 623 C381.49771182 608.92300436 388.50535111 594.86372968 395.89648438 580.98828125 C400.04326534 574.26534856 400.04326534 574.26534856 402 567 C402.67409912 566.95246582 403.34819824 566.90493164 404.04272461 566.85595703 C412.92621273 566.17757888 421.73559477 565.05887199 430.5625 563.875 C432.20571261 563.65677634 433.84894231 563.43868136 435.4921875 563.22070312 C451.48581306 561.09245729 467.46969428 558.89095467 483.45141602 556.67529297 C496.02892588 554.93517575 508.61348818 553.25503931 521.203125 551.60546875 C539.72360451 549.17845009 558.23342872 546.67688442 576.74110794 544.15433121 C583.72619856 543.20262747 590.71159146 542.25314257 597.69693184 541.30327415 C599.4892676 541.05954106 601.2815993 540.81577812 603.07392693 540.57198524 C623.40185413 537.80700151 643.73196306 535.05821946 664.0625 532.3125 C665.7087812 532.09014083 667.35506213 531.8677796 669.00134277 531.64541626 C678.00084212 530.42988436 687.00039071 529.2147177 696 528 C694.61559292 525.12297628 693.29567684 523.04742899 691.0234375 520.79296875 C690.13978516 519.9122168 690.13978516 519.9122168 689.23828125 519.01367188 C688.62339844 518.41103516 688.00851562 517.80839844 687.375 517.1875 C686.78332031 516.59646484 686.19164062 516.00542969 685.58203125 515.39648438 C682.56275722 512.40655534 679.48656933 509.5268127 676.26087189 506.76048946 C672.028971 503.07143834 668.02860925 499.18809248 664.0526123 495.22669983 C663.29440327 494.47498975 662.53619424 493.72327967 661.75500917 492.94879049 C659.234722 490.44875702 656.71790901 487.94525721 654.20117188 485.44165039 C652.38735812 483.64066101 650.57338923 481.83982786 648.75927734 480.03913879 C642.82484334 474.14625432 636.89593495 468.24783107 630.96875 462.34765625 C630.46427125 461.84548508 629.9597925 461.34331392 629.44002652 460.82592544 C619.41279291 450.8441238 609.38904425 440.85882581 599.37108612 430.86771488 C597.1751749 428.6777919 594.97921495 426.4879178 592.78320312 424.2980957 C592.23745402 423.75387958 591.69170491 423.20966346 591.12941796 422.64895593 C582.27021351 413.81551614 573.39553577 404.99778615 564.51472086 396.18607873 C555.38716521 387.12896518 546.27476384 378.05682005 537.17670107 368.97007936 C532.07180996 363.87234746 526.96032732 358.78162061 521.83152771 353.70793343 C517.01333731 348.94148583 512.21575408 344.15524134 507.43151855 339.35467339 C505.67115561 337.5949158 503.90390329 335.84201959 502.12940979 334.09651184 C499.71123876 331.71579965 497.31890307 329.31181004 494.93151855 326.90028381 C494.22104103 326.2124269 493.5105635 325.52456998 492.77855635 324.81586891 C489.60043911 321.55507668 487.59052642 319.38987186 487.54125118 314.70460606 C487.95612367 311.35432138 488.36717264 308.0457997 488.99047852 304.72802734 C489.20838043 303.54859558 489.42628235 302.36916382 489.65078735 301.1539917 C489.89106659 299.89403381 490.13134583 298.63407593 490.37890625 297.3359375 C490.62957446 295.9933847 490.87959036 294.65070995 491.1289978 293.30792236 C491.79466957 289.73338418 492.46892267 286.16051545 493.14481735 282.58789825 C493.84411478 278.88299439 494.53518721 275.17655829 495.22680664 271.47021484 C496.31861133 265.62336425 497.41423205 259.77724368 498.51269531 253.93164062 C500.20444868 244.92533888 501.86748878 235.91387113 503.52017212 226.90032959 C504.20050783 223.19104479 504.88334386 219.48222101 505.56640625 215.7734375 C505.69107773 215.09632721 505.81574921 214.41921692 505.94419861 213.72158813 C506.69640683 209.63903486 507.45368962 205.55745667 508.21484375 201.4765625 C513.198182 174.74679772 517.96789827 147.97731778 522.75 121.2109375 C523.1574538 118.93212983 523.56501817 116.653342 523.97268677 114.37457275 C524.24021911 112.87864017 524.50753387 111.38266866 524.77462769 109.88665771 C526.64542182 99.41444154 528.55897767 88.95046995 530.49603271 78.49031448 C530.87825775 76.42537844 531.25991293 74.36033793 531.64135742 72.29525757 C531.7675584 71.61207773 531.89375938 70.9288979 532.02378464 70.22501564 C532.279262 68.84196185 532.53471698 67.45890394 532.79014969 66.0758419 C533.54807499 61.97435684 534.31019783 57.8736783 535.07531452 53.77352905 C535.66692366 50.59705035 536.25286084 47.41952381 536.83984375 44.2421875 C537.05822403 43.07943298 537.27660431 41.91667847 537.50160217 40.71868896 C537.69950851 39.64218079 537.89741486 38.56567261 538.10131836 37.45654297 C538.27561874 36.51938446 538.44991913 35.58222595 538.62950134 34.6166687 C538.99451731 32.03872183 539.06763283 29.59966557 539 27 C534.67308198 28.33549849 530.79003574 30.0124316 526.77734375 32.10546875 C526.17676651 32.41690323 525.57618927 32.72833771 524.95741272 33.04920959 C523.64438439 33.73060522 522.3323644 34.41394661 521.02124023 35.09899902 C517.34051067 37.0217328 513.65191516 38.92930838 509.96484375 40.83984375 C509.17081146 41.25183014 508.37677917 41.66381653 507.5586853 42.08828735 C498.67570653 46.69443517 489.76451758 51.24510409 480.85220337 55.79415894 C476.0415163 58.24966259 471.23174053 60.70695011 466.421875 63.1640625 C464.98773003 63.89661507 464.98773003 63.89661507 463.52461243 64.64396667 C453.76287512 69.63074822 444.00587741 74.6267663 434.25 79.625 C433.41285461 80.05388519 432.57570923 80.48277039 431.7131958 80.9246521 C428.34002322 82.65282133 424.96687575 84.38103954 421.59378052 86.10935974 C415.62800499 89.1660976 409.66177784 92.22195258 403.6953125 95.27734375 C388.64033347 102.98708056 373.58607349 110.69819308 358.53686523 118.41918945 C343.29661152 126.23812248 328.05199671 134.04849153 312.80114746 141.84674072 C310.83548066 142.85189391 308.86990197 143.85721943 306.90441895 144.86273193 C305.96948608 145.34099426 305.03455322 145.81925659 304.07128906 146.31201172 C303.16230865 146.77705109 302.25332825 147.24209045 301.31680298 147.72122192 C298.73355808 149.04047195 296.14741113 150.35389435 293.56103516 151.66699219 C290.7620126 153.09041035 287.98017732 154.53786441 285.21630859 156.02832031 C284.15879395 156.58874023 283.1012793 157.14916016 282.01171875 157.7265625 C281.14377686 158.19916504 280.27583496 158.67176758 279.3815918 159.15869141 C275.16792052 160.64719076 272.59541624 159.28088464 268.66040039 157.42456055 C267.38594918 156.75193848 266.11522759 156.07221801 264.84765625 155.38671875 C264.1598558 155.02123428 263.47205536 154.65574982 262.76341248 154.27919006 C260.52634436 153.08826581 258.29439372 151.8880893 256.0625 150.6875 C254.5106596 149.85859451 252.95857459 149.03014682 251.40625 148.20214844 C241.34902676 142.83016086 231.32500457 137.39749941 221.328125 131.9140625 C212.01833505 126.81151421 202.65651873 121.80456826 193.30566406 116.77783203 C190.05446237 115.02929062 186.80435954 113.27872617 183.5546875 111.52734375 C174.67952421 106.744467 165.80415524 101.96211968 156.9140625 97.20703125 C156.32298706 96.89086853 155.73191162 96.57470581 155.1229248 96.2489624 C154.53160767 95.93267883 153.94029053 95.61639526 153.33105469 95.29052734 C142.93622789 89.73049547 132.55899486 84.1408315 122.21679688 78.48339844 C111.94560718 72.86833157 101.6335798 67.32937381 91.32324219 61.78662109 C77.41594915 54.30986746 63.51237188 46.82620254 49.625 39.3125 C48.64748779 38.78430664 47.66997559 38.25611328 46.6628418 37.71191406 C41.81137425 35.08537249 36.97476078 32.43577449 32.16015625 29.7421875 C31.23702637 29.22744873 30.31389648 28.71270996 29.36279297 28.18237305 C27.62301676 27.21023856 25.88618282 26.23281309 24.15283203 25.24926758 C23.38438965 24.82025146 22.61594727 24.39123535 21.82421875 23.94921875 C20.82007935 23.38207153 20.82007935 23.38207153 19.7956543 22.8034668 C17.87147397 21.79578568 17.87147397 21.79578568 15 22 Z " fill="#010101" transform="translate(230,98)"/>
<path d="M0 0 C10.93569231 8.49124344 19.11085138 20.98158187 21.32421875 34.8046875 C22.46388956 50.93541287 18.36100425 66.72116373 7.88671875 79.3046875 C6.72883014 80.50074826 5.54192414 81.66958357 4.32421875 82.8046875 C3.48697266 83.59746094 3.48697266 83.59746094 2.6328125 84.40625 C-9.3762062 94.52183811 -24.93743282 96.65692035 -40.03955078 96.03125 C-53.04027281 94.91394401 -64.21838092 87.34218956 -72.67578125 77.8046875 C-73.20042969 77.22203125 -73.72507812 76.639375 -74.265625 76.0390625 C-84.59078019 63.53327657 -85.7246572 48.28586213 -84.67578125 32.8046875 C-82.45976052 19.50856312 -74.97819704 7.91474662 -64.17578125 -0.03515625 C-44.03298648 -13.56859649 -20.00173327 -13.93244799 0 0 Z " fill="#040404" transform="translate(710.67578125,504.1953125)"/>
<path d="M0 0 C11.05102805 7.75882283 18.68696397 17.8971242 21.9375 31.125 C23.51620284 41.7373913 23.79403232 53.34482659 19.5 63.3125 C19.14808594 64.14007813 18.79617188 64.96765625 18.43359375 65.8203125 C11.42322122 80.95161161 0.46769326 88.88080414 -14.5 95.3125 C-17.85210485 96.441473 -20.97950531 97.01692623 -24.5 97.3125 C-25.55574219 97.4053125 -26.61148438 97.498125 -27.69921875 97.59375 C-41.63175152 98.21782762 -54.90330425 93.43458005 -65.640625 84.5390625 C-76.45473752 74.42662904 -82.70659909 61.06093658 -83.703125 46.3046875 C-83.94588971 30.16083453 -79.07315689 17.34151999 -67.90625 5.59765625 C-48.90047479 -12.4516595 -21.93461334 -13.77112246 0 0 Z " fill="#040404" transform="translate(407.5,391.6875)"/>
<path d="M0 0 C2.85453717 1.00933911 3.61708496 2.13777421 5.12109375 4.75 C5.79193571 6.77074026 6.39038806 8.81627522 6.93359375 10.875 C10.5145695 22.8652334 16.91817252 32.25127749 28.10546875 38.38671875 C38.96545488 43.40012505 51.88678573 45.46765792 63.63964844 42.00878906 C69.43365779 39.66237398 74.60839064 36.3925029 79.828125 32.98046875 C83.21395047 31.16354367 85.48399288 31.80704792 89.12109375 32.75 C91.05859375 33.875 91.05859375 33.875 92.12109375 35.75 C92.80859375 39 92.80859375 39 92.12109375 42.75 C85.31263257 51.99151487 71.32950099 57.20465738 60.4609375 59.3125 C43.10270613 61.5863268 26.67573874 57.94181341 12.49609375 47.5 C0.09110161 37.31874986 -9.4902539 23.0494922 -11.31640625 6.875 C-10.87890625 3.75 -10.87890625 3.75 -9.44140625 1.25 C-6.05879232 -0.73006669 -3.81170221 -0.41138101 0 0 Z " fill="#080808" transform="translate(477.87890625,493.25)"/>
<path d="M0 0 C4.34468141 2.1723407 7.60032162 4.75441518 10 9 C10.81695863 13.97677862 10.57068797 17.81472498 8.375 22.375 C4.13319967 27.06330563 0.925346 29.24148599 -5.4375 29.625 C-10.45905087 29.44028355 -13.20066288 28.21887868 -16.6953125 24.640625 C-20.12714198 20.3251508 -20.47595064 16.42583725 -20 11 C-16.4076252 1.35730976 -9.55462231 -1.05835816 0 0 Z " fill="#BEBEBE" transform="translate(708,524)"/>
<path d="M0 0 C4.9710149 2.53240382 8.49430567 5.98861134 11 11 C11.6636254 16.5302117 10.56281179 19.75270148 7.48046875 24.19921875 C4.11403801 28.29400654 1.30106058 29.83478596 -3.9375 30.5 C-8.34937675 30.23849297 -11.63516579 28.85501084 -15 26 C-18.50694562 21.70399162 -19.31066277 18.97228188 -19.0625 13.4375 C-18.34694696 8.1219631 -16.95324092 5.58549758 -13 2 C-8.75174736 -0.53143302 -4.83489368 -0.68108937 0 0 Z " fill="#BEBEBE" transform="translate(406,412)"/>
<path d="M0 0 C2.875 1.625 2.875 1.625 5 4 C5.5625 7 5.5625 7 5 10 C2.90911638 12.97548823 1.47365624 13.85198242 -2 14.9375 C-5 15 -5 15 -7.3125 14.0625 C-9.83136809 10.98388345 -10.32472994 7.93636047 -10 4 C-7.38037825 -0.1913948 -4.76931394 -0.7786635 0 0 Z " fill="#B5B5B5" transform="translate(680,543)"/>
<path d="M0 0 C4.36689189 1.42398649 4.36689189 1.42398649 5.875 3.9375 C6.37530235 7.86844707 6.4746142 10.0380787 4.25 13.375 C1.15814769 15.40911336 -0.48867425 15.54355429 -4.125 14.9375 C-6.5 13.375 -6.5 13.375 -8.125 10.9375 C-8.6875 7.4375 -8.6875 7.4375 -8.125 3.9375 C-5.45043116 0.79094842 -4.15592269 -0.08311845 0 0 Z " fill="#B8B8B8" transform="translate(377.125,431.0625)"/>
</svg>
