{
	"asset":{
		"generator":"Khronos glTF Blender I/O v4.2.70",
		"version":"2.0"
	},
	"extensionsUsed":[
		"KHR_materials_sheen"
	],
	"scene":0,
	"scenes":[
		{
			"name":"Scene",
			"nodes":[
				0
			]
		}
	],
	"nodes":[
		{
			"mesh":0,
			"name":"Plane"
		}
	],
	"materials":[
		{
			"doubleSided":true,
			"name":"Matte Black",
			"pbrMetallicRoughness":{
				"baseColorFactor":[
					0.05000000074505806,
					0.05000000074505806,
					0.05000000074505806,
					1
				],
				"metallicFactor":0,
				"roughnessFactor":0.5
			}
		},
		{
			"doubleSided":true,
			"name":"Chrome",
			"pbrMetallicRoughness":{
				"roughnessFactor":0
			}
		},
		{
			"doubleSided":true,
			"extensions":{
				"KHR_materials_sheen":{
					"sheenColorFactor":[
						1.0,
						1.0,
						1.0
					],
					"sheenRoughnessFactor":0.800000011920929
				}
			},
			"name":"Seat",
			"normalTexture":{
				"index":0
			},
			"pbrMetallicRoughness":{
				"baseColorFactor":[
					0.06175442412495613,
					0.12477423250675201,
					0.13606581091880798,
					1
				],
				"metallicFactor":0,
				"metallicRoughnessTexture":{
					"index":1
				}
			}
		}
	],
	"meshes":[
		{
			"name":"Plane.044",
			"primitives":[
				{
					"attributes":{
						"POSITION":0,
						"NORMAL":1,
						"TEXCOORD_0":2,
						"TEXCOORD_1":3
					},
					"indices":4,
					"material":0
				},
				{
					"attributes":{
						"POSITION":5,
						"NORMAL":6,
						"TEXCOORD_0":7,
						"TEXCOORD_1":8
					},
					"indices":9,
					"material":1
				},
				{
					"attributes":{
						"POSITION":10,
						"NORMAL":11,
						"TEXCOORD_0":12,
						"TEXCOORD_1":13
					},
					"indices":14,
					"material":2
				}
			]
		}
	],
	"textures":[
		{
			"sampler":0,
			"source":0
		},
		{
			"sampler":0,
			"source":1
		}
	],
	"images":[
		{
			"mimeType":"image/jpeg",
			"name":"fabric7_normal",
			"uri":"fabric7_normal.jpg"
		},
		{
			"mimeType":"image/png",
			"name":"Swoon chair velvet mask",
			"uri":"Swoon%20chair%20velvet%20mask.png"
		}
	],
	"accessors":[
		{
			"bufferView":0,
			"componentType":5126,
			"count":710,
			"max":[
				0.33456435799598694,
				0.37857624888420105,
				0.3551168739795685
			],
			"min":[
				-0.33454781770706177,
				-0.005431962199509144,
				-0.28321295976638794
			],
			"type":"VEC3"
		},
		{
			"bufferView":1,
			"componentType":5126,
			"count":710,
			"type":"VEC3"
		},
		{
			"bufferView":2,
			"componentType":5126,
			"count":710,
			"type":"VEC2"
		},
		{
			"bufferView":3,
			"componentType":5126,
			"count":710,
			"type":"VEC2"
		},
		{
			"bufferView":4,
			"componentType":5123,
			"count":1647,
			"type":"SCALAR"
		},
		{
			"bufferView":5,
			"componentType":5126,
			"count":7,
			"max":[
				0.00889793410897255,
				0.4034896790981293,
				0.018598103895783424
			],
			"min":[
				-0.02986251190304756,
				0.31666308641433716,
				-0.013366086408495903
			],
			"type":"VEC3"
		},
		{
			"bufferView":6,
			"componentType":5126,
			"count":7,
			"type":"VEC3"
		},
		{
			"bufferView":7,
			"componentType":5126,
			"count":7,
			"type":"VEC2"
		},
		{
			"bufferView":8,
			"componentType":5126,
			"count":7,
			"type":"VEC2"
		},
		{
			"bufferView":9,
			"componentType":5123,
			"count":21,
			"type":"SCALAR"
		},
		{
			"bufferView":10,
			"componentType":5126,
			"count":691,
			"max":[
				0.3121921122074127,
				0.845991313457489,
				0.29144155979156494
			],
			"min":[
				-0.322048157453537,
				0.37518852949142456,
				-0.35900646448135376
			],
			"type":"VEC3"
		},
		{
			"bufferView":11,
			"componentType":5126,
			"count":691,
			"type":"VEC3"
		},
		{
			"bufferView":12,
			"componentType":5126,
			"count":691,
			"type":"VEC2"
		},
		{
			"bufferView":13,
			"componentType":5126,
			"count":691,
			"type":"VEC2"
		},
		{
			"bufferView":14,
			"componentType":5123,
			"count":1515,
			"type":"SCALAR"
		}
	],
	"bufferViews":[
		{
			"buffer":0,
			"byteLength":8520,
			"byteOffset":0,
			"target":34962
		},
		{
			"buffer":0,
			"byteLength":8520,
			"byteOffset":8520,
			"target":34962
		},
		{
			"buffer":0,
			"byteLength":5680,
			"byteOffset":17040,
			"target":34962
		},
		{
			"buffer":0,
			"byteLength":5680,
			"byteOffset":22720,
			"target":34962
		},
		{
			"buffer":0,
			"byteLength":3294,
			"byteOffset":28400,
			"target":34963
		},
		{
			"buffer":0,
			"byteLength":84,
			"byteOffset":31696,
			"target":34962
		},
		{
			"buffer":0,
			"byteLength":84,
			"byteOffset":31780,
			"target":34962
		},
		{
			"buffer":0,
			"byteLength":56,
			"byteOffset":31864,
			"target":34962
		},
		{
			"buffer":0,
			"byteLength":56,
			"byteOffset":31920,
			"target":34962
		},
		{
			"buffer":0,
			"byteLength":42,
			"byteOffset":31976,
			"target":34963
		},
		{
			"buffer":0,
			"byteLength":8292,
			"byteOffset":32020,
			"target":34962
		},
		{
			"buffer":0,
			"byteLength":8292,
			"byteOffset":40312,
			"target":34962
		},
		{
			"buffer":0,
			"byteLength":5528,
			"byteOffset":48604,
			"target":34962
		},
		{
			"buffer":0,
			"byteLength":5528,
			"byteOffset":54132,
			"target":34962
		},
		{
			"buffer":0,
			"byteLength":3030,
			"byteOffset":59660,
			"target":34963
		}
	],
	"samplers":[
		{
			"magFilter":9729,
			"minFilter":9987
		}
	],
	"buffers":[
		{
			"byteLength":62692,
			"uri":"boss%20chair.bin"
		}
	]
}
