{
	"asset":{
		"generator":"Khronos glTF Blender I/O v4.2.70",
		"version":"2.0"
	},
	"scene":0,
	"scenes":[
		{
			"name":"Scene",
			"nodes":[
				16
			]
		}
	],
	"nodes":[
		{
			"mesh":0,
			"name":"StickyNote",
			"rotation":[
				0,
				-0.0510786697268486,
				0,
				0.998694658279419
			],
			"translation":[
				-0.1325649619102478,
				0,
				0.10118331015110016
			]
		},
		{
			"mesh":1,
			"name":"StickyNote.001",
			"rotation":[
				0,
				0.04255016893148422,
				0,
				0.9990944266319275
			],
			"translation":[
				-0.04366496205329895,
				0,
				0.10118339955806732
			]
		},
		{
			"mesh":2,
			"name":"StickyNote.002",
			"rotation":[
				0,
				-0.012575904838740826,
				0,
				0.9999210238456726
			],
			"translation":[
				0.045235052704811096,
				0,
				0.10118339955806732
			]
		},
		{
			"mesh":3,
			"name":"StickyNote.003",
			"rotation":[
				0,
				0.03468324616551399,
				0,
				0.9993983507156372
			],
			"translation":[
				0.13413503766059875,
				0,
				0.10118339955806732
			]
		},
		{
			"mesh":4,
			"name":"StickyNote.004",
			"rotation":[
				0,
				-0.002492802683264017,
				0,
				0.9999969005584717
			],
			"translation":[
				-0.1325649619102478,
				0,
				0.012283310294151306
			]
		},
		{
			"mesh":5,
			"name":"StickyNote.005",
			"rotation":[
				0,
				0.007380585186183453,
				0,
				0.9999727606773376
			],
			"translation":[
				-0.04366496205329895,
				0,
				0.012283310294151306
			]
		},
		{
			"mesh":6,
			"name":"StickyNote.006",
			"rotation":[
				0,
				0.016647236421704292,
				0,
				0.9998615384101868
			],
			"translation":[
				0.045235052704811096,
				0,
				0.012283310294151306
			]
		},
		{
			"mesh":7,
			"name":"StickyNote.007",
			"rotation":[
				0,
				0.014514618553221226,
				0,
				0.9998946785926819
			],
			"translation":[
				0.13413503766059875,
				0,
				0.012283310294151306
			]
		},
		{
			"mesh":8,
			"name":"StickyNote.008",
			"rotation":[
				0,
				-0.03106289729475975,
				0,
				0.9995174407958984
			],
			"translation":[
				-0.1325649619102478,
				4.530559181148419e-06,
				-0.07661665976047516
			]
		},
		{
			"mesh":9,
			"name":"StickyNote.009",
			"rotation":[
				0,
				0.038710273802280426,
				0,
				0.999250590801239
			],
			"translation":[
				-0.04366496205329895,
				4.500732757151127e-06,
				-0.07661665976047516
			]
		},
		{
			"mesh":10,
			"name":"StickyNote.010",
			"rotation":[
				0,
				-0.027191877365112305,
				0,
				0.999630331993103
			],
			"translation":[
				0.045235052704811096,
				4.52310587206739e-06,
				-0.07661665976047516
			]
		},
		{
			"mesh":11,
			"name":"StickyNote.011",
			"rotation":[
				0,
				0.028147350996732712,
				0,
				0.999603807926178
			],
			"translation":[
				0.13413503766059875,
				4.515655291470466e-06,
				-0.07661665976047516
			]
		},
		{
			"mesh":12,
			"name":"StickyNote.012",
			"rotation":[
				0,
				-0.006304934620857239,
				0,
				0.9999802112579346
			],
			"translation":[
				-0.1325649619102478,
				4.515655291470466e-06,
				-0.1655167043209076
			]
		},
		{
			"mesh":13,
			"name":"StickyNote.013",
			"rotation":[
				0,
				-0.031446684151887894,
				0,
				0.9995055198669434
			],
			"translation":[
				-0.04366496205329895,
				4.52310587206739e-06,
				-0.1655167043209076
			]
		},
		{
			"mesh":14,
			"name":"StickyNote.014",
			"rotation":[
				0,
				-0.006722815800458193,
				0,
				0.9999774098396301
			],
			"translation":[
				0.045235052704811096,
				4.515655291470466e-06,
				-0.1655167043209076
			]
		},
		{
			"mesh":15,
			"name":"StickyNote.015",
			"rotation":[
				0,
				0.022689668461680412,
				0,
				0.9997425675392151
			],
			"translation":[
				0.13413503766059875,
				4.530556452664314e-06,
				-0.1655167043209076
			]
		},
		{
			"children":[
				0,
				1,
				2,
				3,
				4,
				5,
				6,
				7,
				8,
				9,
				10,
				11,
				12,
				13,
				14,
				15
			],
			"name":"Sticky Notes"
		}
	],
	"materials":[
		{
			"doubleSided":true,
			"name":"Post-It Notes",
			"pbrMetallicRoughness":{
				"baseColorTexture":{
					"index":0
				},
				"metallicFactor":0,
				"roughnessFactor":0.539370059967041
			}
		}
	],
	"meshes":[
		{
			"name":"Plane",
			"primitives":[
				{
					"attributes":{
						"POSITION":0,
						"NORMAL":1,
						"TEXCOORD_0":2
					},
					"indices":3,
					"material":0
				}
			]
		},
		{
			"name":"Plane.001",
			"primitives":[
				{
					"attributes":{
						"POSITION":4,
						"NORMAL":5,
						"TEXCOORD_0":6
					},
					"indices":7,
					"material":0
				}
			]
		},
		{
			"name":"Plane.002",
			"primitives":[
				{
					"attributes":{
						"POSITION":8,
						"NORMAL":9,
						"TEXCOORD_0":10
					},
					"indices":7,
					"material":0
				}
			]
		},
		{
			"name":"Plane.003",
			"primitives":[
				{
					"attributes":{
						"POSITION":11,
						"NORMAL":12,
						"TEXCOORD_0":13
					},
					"indices":7,
					"material":0
				}
			]
		},
		{
			"name":"Plane.004",
			"primitives":[
				{
					"attributes":{
						"POSITION":14,
						"NORMAL":15,
						"TEXCOORD_0":16
					},
					"indices":7,
					"material":0
				}
			]
		},
		{
			"name":"Plane.005",
			"primitives":[
				{
					"attributes":{
						"POSITION":17,
						"NORMAL":18,
						"TEXCOORD_0":19
					},
					"indices":7,
					"material":0
				}
			]
		},
		{
			"name":"Plane.006",
			"primitives":[
				{
					"attributes":{
						"POSITION":20,
						"NORMAL":21,
						"TEXCOORD_0":22
					},
					"indices":7,
					"material":0
				}
			]
		},
		{
			"name":"Plane.007",
			"primitives":[
				{
					"attributes":{
						"POSITION":23,
						"NORMAL":24,
						"TEXCOORD_0":25
					},
					"indices":7,
					"material":0
				}
			]
		},
		{
			"name":"Plane.008",
			"primitives":[
				{
					"attributes":{
						"POSITION":26,
						"NORMAL":27,
						"TEXCOORD_0":28
					},
					"indices":7,
					"material":0
				}
			]
		},
		{
			"name":"Plane.009",
			"primitives":[
				{
					"attributes":{
						"POSITION":29,
						"NORMAL":30,
						"TEXCOORD_0":31
					},
					"indices":7,
					"material":0
				}
			]
		},
		{
			"name":"Plane.010",
			"primitives":[
				{
					"attributes":{
						"POSITION":32,
						"NORMAL":33,
						"TEXCOORD_0":34
					},
					"indices":7,
					"material":0
				}
			]
		},
		{
			"name":"Plane.011",
			"primitives":[
				{
					"attributes":{
						"POSITION":35,
						"NORMAL":36,
						"TEXCOORD_0":37
					},
					"indices":7,
					"material":0
				}
			]
		},
		{
			"name":"Plane.012",
			"primitives":[
				{
					"attributes":{
						"POSITION":38,
						"NORMAL":39,
						"TEXCOORD_0":40
					},
					"indices":7,
					"material":0
				}
			]
		},
		{
			"name":"Plane.013",
			"primitives":[
				{
					"attributes":{
						"POSITION":41,
						"NORMAL":42,
						"TEXCOORD_0":43
					},
					"indices":7,
					"material":0
				}
			]
		},
		{
			"name":"Plane.014",
			"primitives":[
				{
					"attributes":{
						"POSITION":44,
						"NORMAL":45,
						"TEXCOORD_0":46
					},
					"indices":7,
					"material":0
				}
			]
		},
		{
			"name":"Plane.015",
			"primitives":[
				{
					"attributes":{
						"POSITION":47,
						"NORMAL":48,
						"TEXCOORD_0":49
					},
					"indices":7,
					"material":0
				}
			]
		}
	],
	"textures":[
		{
			"sampler":0,
			"source":0
		}
	],
	"images":[
		{
			"mimeType":"image/jpeg",
			"name":"StickyNoteScribbles",
			"uri":"StickyNoteScribbles.jpg"
		}
	],
	"accessors":[
		{
			"bufferView":0,
			"componentType":5126,
			"count":81,
			"max":[
				0.03810000419616699,
				0.0117800859734416,
				0.06996473670005798
			],
			"min":[
				-0.03810000419616699,
				2.3951060938998125e-05,
				-0.005644451826810837
			],
			"type":"VEC3"
		},
		{
			"bufferView":1,
			"componentType":5126,
			"count":81,
			"type":"VEC3"
		},
		{
			"bufferView":2,
			"componentType":5126,
			"count":81,
			"type":"VEC2"
		},
		{
			"bufferView":3,
			"componentType":5123,
			"count":384,
			"type":"SCALAR"
		},
		{
			"bufferView":4,
			"componentType":5126,
			"count":81,
			"max":[
				0.03810000419616699,
				0.00957926083356142,
				0.07000914961099625
			],
			"min":[
				-0.038099996745586395,
				2.3951060938998125e-05,
				-0.005644544959068298
			],
			"type":"VEC3"
		},
		{
			"bufferView":5,
			"componentType":5126,
			"count":81,
			"type":"VEC3"
		},
		{
			"bufferView":6,
			"componentType":5126,
			"count":81,
			"type":"VEC2"
		},
		{
			"bufferView":7,
			"componentType":5123,
			"count":384,
			"type":"SCALAR"
		},
		{
			"bufferView":8,
			"componentType":5126,
			"count":81,
			"max":[
				0.0380999892950058,
				0.010993092320859432,
				0.07000914961099625
			],
			"min":[
				-0.038100019097328186,
				2.3951060938998125e-05,
				-0.005644544959068298
			],
			"type":"VEC3"
		},
		{
			"bufferView":9,
			"componentType":5126,
			"count":81,
			"type":"VEC3"
		},
		{
			"bufferView":10,
			"componentType":5126,
			"count":81,
			"type":"VEC2"
		},
		{
			"bufferView":11,
			"componentType":5126,
			"count":81,
			"max":[
				0.03810000419616699,
				0.0056515526957809925,
				0.07000914961099625
			],
			"min":[
				-0.03810000419616699,
				2.3951060938998125e-05,
				-0.005644544959068298
			],
			"type":"VEC3"
		},
		{
			"bufferView":12,
			"componentType":5126,
			"count":81,
			"type":"VEC3"
		},
		{
			"bufferView":13,
			"componentType":5126,
			"count":81,
			"type":"VEC2"
		},
		{
			"bufferView":14,
			"componentType":5126,
			"count":81,
			"max":[
				0.03810000419616699,
				0.007369583938270807,
				0.0700192004442215
			],
			"min":[
				-0.03810000419616699,
				2.3951060938998125e-05,
				-0.005644455552101135
			],
			"type":"VEC3"
		},
		{
			"bufferView":15,
			"componentType":5126,
			"count":81,
			"type":"VEC3"
		},
		{
			"bufferView":16,
			"componentType":5126,
			"count":81,
			"type":"VEC2"
		},
		{
			"bufferView":17,
			"componentType":5126,
			"count":81,
			"max":[
				0.03810000419616699,
				0.017283953726291656,
				0.06725279241800308
			],
			"min":[
				-0.03810000419616699,
				2.3951060938998125e-05,
				-0.005644455552101135
			],
			"type":"VEC3"
		},
		{
			"bufferView":18,
			"componentType":5126,
			"count":81,
			"type":"VEC3"
		},
		{
			"bufferView":19,
			"componentType":5126,
			"count":81,
			"type":"VEC2"
		},
		{
			"bufferView":20,
			"componentType":5126,
			"count":81,
			"max":[
				0.0380999892950058,
				0.011223860085010529,
				0.0700192004442215
			],
			"min":[
				-0.038100019097328186,
				2.3951060938998125e-05,
				-0.005644455552101135
			],
			"type":"VEC3"
		},
		{
			"bufferView":21,
			"componentType":5126,
			"count":81,
			"type":"VEC3"
		},
		{
			"bufferView":22,
			"componentType":5126,
			"count":81,
			"type":"VEC2"
		},
		{
			"bufferView":23,
			"componentType":5126,
			"count":81,
			"max":[
				0.03810000419616699,
				0.006171559449285269,
				0.0700192004442215
			],
			"min":[
				-0.03810000419616699,
				2.3951060938998125e-05,
				-0.005644455552101135
			],
			"type":"VEC3"
		},
		{
			"bufferView":24,
			"componentType":5126,
			"count":81,
			"type":"VEC3"
		},
		{
			"bufferView":25,
			"componentType":5126,
			"count":81,
			"type":"VEC2"
		},
		{
			"bufferView":26,
			"componentType":5126,
			"count":81,
			"max":[
				0.03810000419616699,
				0.007177113089710474,
				0.07046288251876831
			],
			"min":[
				-0.03810000419616699,
				1.9420485841692425e-05,
				-0.005644485354423523
			],
			"type":"VEC3"
		},
		{
			"bufferView":27,
			"componentType":5126,
			"count":81,
			"type":"VEC3"
		},
		{
			"bufferView":28,
			"componentType":5126,
			"count":81,
			"type":"VEC2"
		},
		{
			"bufferView":29,
			"componentType":5126,
			"count":81,
			"max":[
				0.03810000419616699,
				0.006312244571745396,
				0.07046288251876831
			],
			"min":[
				-0.03810000419616699,
				1.9450328181847e-05,
				-0.005644485354423523
			],
			"type":"VEC3"
		},
		{
			"bufferView":30,
			"componentType":5126,
			"count":81,
			"type":"VEC3"
		},
		{
			"bufferView":31,
			"componentType":5126,
			"count":81,
			"type":"VEC2"
		},
		{
			"bufferView":32,
			"componentType":5126,
			"count":81,
			"max":[
				0.0380999892950058,
				0.0062946900725364685,
				0.07046288251876831
			],
			"min":[
				-0.038100019097328186,
				1.942795279319398e-05,
				-0.005644485354423523
			],
			"type":"VEC3"
		},
		{
			"bufferView":33,
			"componentType":5126,
			"count":81,
			"type":"VEC3"
		},
		{
			"bufferView":34,
			"componentType":5126,
			"count":81,
			"type":"VEC2"
		},
		{
			"bufferView":35,
			"componentType":5126,
			"count":81,
			"max":[
				0.03810000419616699,
				0.006294682621955872,
				0.07046288251876831
			],
			"min":[
				-0.03810000419616699,
				1.9435403373790905e-05,
				-0.005644485354423523
			],
			"type":"VEC3"
		},
		{
			"bufferView":36,
			"componentType":5126,
			"count":81,
			"type":"VEC3"
		},
		{
			"bufferView":37,
			"componentType":5126,
			"count":81,
			"type":"VEC2"
		},
		{
			"bufferView":38,
			"componentType":5126,
			"count":81,
			"max":[
				0.03810000419616699,
				0.004076852463185787,
				0.07055556774139404
			],
			"min":[
				-0.03810000419616699,
				1.9435403373790905e-05,
				-0.005644440650939941
			],
			"type":"VEC3"
		},
		{
			"bufferView":39,
			"componentType":5126,
			"count":81,
			"type":"VEC3"
		},
		{
			"bufferView":40,
			"componentType":5126,
			"count":81,
			"type":"VEC2"
		},
		{
			"bufferView":41,
			"componentType":5126,
			"count":81,
			"max":[
				0.03810000419616699,
				0.00407685711979866,
				0.07055556774139404
			],
			"min":[
				-0.03810000419616699,
				1.942795279319398e-05,
				-0.005644440650939941
			],
			"type":"VEC3"
		},
		{
			"bufferView":42,
			"componentType":5126,
			"count":81,
			"type":"VEC3"
		},
		{
			"bufferView":43,
			"componentType":5126,
			"count":81,
			"type":"VEC2"
		},
		{
			"bufferView":44,
			"componentType":5126,
			"count":81,
			"max":[
				0.0380999892950058,
				0.004076849669218063,
				0.07055556774139404
			],
			"min":[
				-0.038100019097328186,
				1.9435403373790905e-05,
				-0.005644440650939941
			],
			"type":"VEC3"
		},
		{
			"bufferView":45,
			"componentType":5126,
			"count":81,
			"type":"VEC3"
		},
		{
			"bufferView":46,
			"componentType":5126,
			"count":81,
			"type":"VEC2"
		},
		{
			"bufferView":47,
			"componentType":5126,
			"count":81,
			"max":[
				0.03810000419616699,
				0.004076867364346981,
				0.07055556774139404
			],
			"min":[
				-0.03810000419616699,
				1.9420502212597057e-05,
				-0.005644440650939941
			],
			"type":"VEC3"
		},
		{
			"bufferView":48,
			"componentType":5126,
			"count":81,
			"type":"VEC3"
		},
		{
			"bufferView":49,
			"componentType":5126,
			"count":81,
			"type":"VEC2"
		}
	],
	"bufferViews":[
		{
			"buffer":0,
			"byteLength":972,
			"byteOffset":0,
			"target":34962
		},
		{
			"buffer":0,
			"byteLength":972,
			"byteOffset":972,
			"target":34962
		},
		{
			"buffer":0,
			"byteLength":648,
			"byteOffset":1944,
			"target":34962
		},
		{
			"buffer":0,
			"byteLength":768,
			"byteOffset":2592,
			"target":34963
		},
		{
			"buffer":0,
			"byteLength":972,
			"byteOffset":3360,
			"target":34962
		},
		{
			"buffer":0,
			"byteLength":972,
			"byteOffset":4332,
			"target":34962
		},
		{
			"buffer":0,
			"byteLength":648,
			"byteOffset":5304,
			"target":34962
		},
		{
			"buffer":0,
			"byteLength":768,
			"byteOffset":5952,
			"target":34963
		},
		{
			"buffer":0,
			"byteLength":972,
			"byteOffset":6720,
			"target":34962
		},
		{
			"buffer":0,
			"byteLength":972,
			"byteOffset":7692,
			"target":34962
		},
		{
			"buffer":0,
			"byteLength":648,
			"byteOffset":8664,
			"target":34962
		},
		{
			"buffer":0,
			"byteLength":972,
			"byteOffset":9312,
			"target":34962
		},
		{
			"buffer":0,
			"byteLength":972,
			"byteOffset":10284,
			"target":34962
		},
		{
			"buffer":0,
			"byteLength":648,
			"byteOffset":11256,
			"target":34962
		},
		{
			"buffer":0,
			"byteLength":972,
			"byteOffset":11904,
			"target":34962
		},
		{
			"buffer":0,
			"byteLength":972,
			"byteOffset":12876,
			"target":34962
		},
		{
			"buffer":0,
			"byteLength":648,
			"byteOffset":13848,
			"target":34962
		},
		{
			"buffer":0,
			"byteLength":972,
			"byteOffset":14496,
			"target":34962
		},
		{
			"buffer":0,
			"byteLength":972,
			"byteOffset":15468,
			"target":34962
		},
		{
			"buffer":0,
			"byteLength":648,
			"byteOffset":16440,
			"target":34962
		},
		{
			"buffer":0,
			"byteLength":972,
			"byteOffset":17088,
			"target":34962
		},
		{
			"buffer":0,
			"byteLength":972,
			"byteOffset":18060,
			"target":34962
		},
		{
			"buffer":0,
			"byteLength":648,
			"byteOffset":19032,
			"target":34962
		},
		{
			"buffer":0,
			"byteLength":972,
			"byteOffset":19680,
			"target":34962
		},
		{
			"buffer":0,
			"byteLength":972,
			"byteOffset":20652,
			"target":34962
		},
		{
			"buffer":0,
			"byteLength":648,
			"byteOffset":21624,
			"target":34962
		},
		{
			"buffer":0,
			"byteLength":972,
			"byteOffset":22272,
			"target":34962
		},
		{
			"buffer":0,
			"byteLength":972,
			"byteOffset":23244,
			"target":34962
		},
		{
			"buffer":0,
			"byteLength":648,
			"byteOffset":24216,
			"target":34962
		},
		{
			"buffer":0,
			"byteLength":972,
			"byteOffset":24864,
			"target":34962
		},
		{
			"buffer":0,
			"byteLength":972,
			"byteOffset":25836,
			"target":34962
		},
		{
			"buffer":0,
			"byteLength":648,
			"byteOffset":26808,
			"target":34962
		},
		{
			"buffer":0,
			"byteLength":972,
			"byteOffset":27456,
			"target":34962
		},
		{
			"buffer":0,
			"byteLength":972,
			"byteOffset":28428,
			"target":34962
		},
		{
			"buffer":0,
			"byteLength":648,
			"byteOffset":29400,
			"target":34962
		},
		{
			"buffer":0,
			"byteLength":972,
			"byteOffset":30048,
			"target":34962
		},
		{
			"buffer":0,
			"byteLength":972,
			"byteOffset":31020,
			"target":34962
		},
		{
			"buffer":0,
			"byteLength":648,
			"byteOffset":31992,
			"target":34962
		},
		{
			"buffer":0,
			"byteLength":972,
			"byteOffset":32640,
			"target":34962
		},
		{
			"buffer":0,
			"byteLength":972,
			"byteOffset":33612,
			"target":34962
		},
		{
			"buffer":0,
			"byteLength":648,
			"byteOffset":34584,
			"target":34962
		},
		{
			"buffer":0,
			"byteLength":972,
			"byteOffset":35232,
			"target":34962
		},
		{
			"buffer":0,
			"byteLength":972,
			"byteOffset":36204,
			"target":34962
		},
		{
			"buffer":0,
			"byteLength":648,
			"byteOffset":37176,
			"target":34962
		},
		{
			"buffer":0,
			"byteLength":972,
			"byteOffset":37824,
			"target":34962
		},
		{
			"buffer":0,
			"byteLength":972,
			"byteOffset":38796,
			"target":34962
		},
		{
			"buffer":0,
			"byteLength":648,
			"byteOffset":39768,
			"target":34962
		},
		{
			"buffer":0,
			"byteLength":972,
			"byteOffset":40416,
			"target":34962
		},
		{
			"buffer":0,
			"byteLength":972,
			"byteOffset":41388,
			"target":34962
		},
		{
			"buffer":0,
			"byteLength":648,
			"byteOffset":42360,
			"target":34962
		}
	],
	"samplers":[
		{
			"magFilter":9729,
			"minFilter":9987
		}
	],
	"buffers":[
		{
			"byteLength":43008,
			"uri":"stickynote.bin"
		}
	]
}
