{
	"asset":{
		"generator":"Khronos glTF Blender I/O v4.2.70",
		"version":"2.0"
	},
	"extensionsUsed":[
		"KHR_materials_transmission",
		"KHR_materials_specular",
		"KHR_materials_ior"
	],
	"scene":0,
	"scenes":[
		{
			"name":"Scene",
			"nodes":[
				0
			]
		}
	],
	"nodes":[
		{
			"mesh":0,
			"name":"desk toy",
			"rotation":[
				0,
				-0.4999999701976776,
				0,
				0.8660253882408142
			],
			"translation":[
				0,
				0.033611610531806946,
				0
			]
		}
	],
	"materials":[
		{
			"doubleSided":true,
			"name":"Metal 01",
			"pbrMetallicRoughness":{
				"baseColorFactor":[
					0.5427943468093872,
					0.5427943468093872,
					0.5427943468093872,
					1
				],
				"roughnessFactor":0.1218181848526001
			}
		},
		{
			"doubleSided":true,
			"name":"Metal 03",
			"pbrMetallicRoughness":{
				"baseColorFactor":[
					0.5427943468093872,
					0.5427943468093872,
					0.5427943468093872,
					1
				],
				"roughnessFactor":0.12181819975376129
			}
		},
		{
			"doubleSided":true,
			"extensions":{
				"KHR_materials_transmission":{
					"transmissionFactor":1
				},
				"KHR_materials_specular":{
					"specularFactor":0.6799999475479126
				},
				"KHR_materials_ior":{
					"ior":1.4500000476837158
				}
			},
			"name":"Non Metal",
			"pbrMetallicRoughness":{
				"baseColorFactor":[
					0.3361542522907257,
					0.3361542522907257,
					0.3361542522907257,
					1
				],
				"metallicFactor":0,
				"roughnessFactor":0.20181818306446075
			}
		},
		{
			"doubleSided":true,
			"name":"Wood?",
			"pbrMetallicRoughness":{
				"baseColorFactor":[
					0.015134284272789955,
					0.001546527724713087,
					0.002105930121615529,
					1
				],
				"metallicFactor":0,
				"roughnessFactor":0.1727272868156433
			}
		}
	],
	"meshes":[
		{
			"name":"Mesh",
			"primitives":[
				{
					"attributes":{
						"POSITION":0,
						"NORMAL":1,
						"TEXCOORD_0":2
					},
					"indices":3,
					"material":0
				},
				{
					"attributes":{
						"POSITION":4,
						"NORMAL":5,
						"TEXCOORD_0":6
					},
					"indices":7,
					"material":1
				},
				{
					"attributes":{
						"POSITION":8,
						"NORMAL":9,
						"TEXCOORD_0":10
					},
					"indices":11,
					"material":2
				},
				{
					"attributes":{
						"POSITION":12,
						"NORMAL":13,
						"TEXCOORD_0":14
					},
					"indices":15,
					"material":3
				}
			]
		}
	],
	"accessors":[
		{
			"bufferView":0,
			"componentType":5126,
			"count":576,
			"max":[
				0.08320963382720947,
				0.12381837517023087,
				0.09027200937271118
			],
			"min":[
				-0.08996640890836716,
				-0.03381837159395218,
				-0.08886945992708206
			],
			"type":"VEC3"
		},
		{
			"bufferView":1,
			"componentType":5126,
			"count":576,
			"type":"VEC3"
		},
		{
			"bufferView":2,
			"componentType":5126,
			"count":576,
			"type":"VEC2"
		},
		{
			"bufferView":3,
			"componentType":5123,
			"count":3456,
			"type":"SCALAR"
		},
		{
			"bufferView":4,
			"componentType":5126,
			"count":584,
			"max":[
				0.056156355887651443,
				0.026388391852378845,
				0.03745880722999573
			],
			"min":[
				-0.05725869536399841,
				-0.0036116093397140503,
				-0.03809526562690735
			],
			"type":"VEC3"
		},
		{
			"bufferView":5,
			"componentType":5126,
			"count":584,
			"type":"VEC3"
		},
		{
			"bufferView":6,
			"componentType":5126,
			"count":584,
			"type":"VEC2"
		},
		{
			"bufferView":7,
			"componentType":5123,
			"count":2688,
			"type":"SCALAR"
		},
		{
			"bufferView":8,
			"componentType":5126,
			"count":384,
			"max":[
				0.07279358804225922,
				0.11926346272230148,
				0.08099719136953354
			],
			"min":[
				-0.07423347234725952,
				0.02457071840763092,
				-0.0818285346031189
			],
			"type":"VEC3"
		},
		{
			"bufferView":9,
			"componentType":5126,
			"count":384,
			"type":"VEC3"
		},
		{
			"bufferView":10,
			"componentType":5126,
			"count":384,
			"type":"VEC2"
		},
		{
			"bufferView":11,
			"componentType":5123,
			"count":1872,
			"type":"SCALAR"
		},
		{
			"bufferView":12,
			"componentType":5126,
			"count":173,
			"max":[
				0.08249954134225845,
				-0.013611610047519207,
				0.08068137615919113
			],
			"min":[
				-0.08249954134225845,
				-0.03361120820045471,
				-0.08068137615919113
			],
			"type":"VEC3"
		},
		{
			"bufferView":13,
			"componentType":5126,
			"count":173,
			"type":"VEC3"
		},
		{
			"bufferView":14,
			"componentType":5126,
			"count":173,
			"type":"VEC2"
		},
		{
			"bufferView":15,
			"componentType":5123,
			"count":816,
			"type":"SCALAR"
		}
	],
	"bufferViews":[
		{
			"buffer":0,
			"byteLength":6912,
			"byteOffset":0,
			"target":34962
		},
		{
			"buffer":0,
			"byteLength":6912,
			"byteOffset":6912,
			"target":34962
		},
		{
			"buffer":0,
			"byteLength":4608,
			"byteOffset":13824,
			"target":34962
		},
		{
			"buffer":0,
			"byteLength":6912,
			"byteOffset":18432,
			"target":34963
		},
		{
			"buffer":0,
			"byteLength":7008,
			"byteOffset":25344,
			"target":34962
		},
		{
			"buffer":0,
			"byteLength":7008,
			"byteOffset":32352,
			"target":34962
		},
		{
			"buffer":0,
			"byteLength":4672,
			"byteOffset":39360,
			"target":34962
		},
		{
			"buffer":0,
			"byteLength":5376,
			"byteOffset":44032,
			"target":34963
		},
		{
			"buffer":0,
			"byteLength":4608,
			"byteOffset":49408,
			"target":34962
		},
		{
			"buffer":0,
			"byteLength":4608,
			"byteOffset":54016,
			"target":34962
		},
		{
			"buffer":0,
			"byteLength":3072,
			"byteOffset":58624,
			"target":34962
		},
		{
			"buffer":0,
			"byteLength":3744,
			"byteOffset":61696,
			"target":34963
		},
		{
			"buffer":0,
			"byteLength":2076,
			"byteOffset":65440,
			"target":34962
		},
		{
			"buffer":0,
			"byteLength":2076,
			"byteOffset":67516,
			"target":34962
		},
		{
			"buffer":0,
			"byteLength":1384,
			"byteOffset":69592,
			"target":34962
		},
		{
			"buffer":0,
			"byteLength":1632,
			"byteOffset":70976,
			"target":34963
		}
	],
	"buffers":[
		{
			"byteLength":72608,
			"uri":"desk%20toy.bin"
		}
	]
}
