{
	"asset":{
		"generator":"Khronos glTF Blender I/O v4.2.70",
		"version":"2.0"
	},
	"extensionsUsed":[
		"KHR_materials_specular",
		"KHR_materials_ior",
		"KHR_texture_transform"
	],
	"extensionsRequired":[
		"KHR_texture_transform"
	],
	"scene":0,
	"scenes":[
		{
			"name":"Scene",
			"nodes":[
				0
			]
		}
	],
	"nodes":[
		{
			"mesh":0,
			"name":"Leaves",
			"translation":[
				0.047816500067710876,
				0.959208071231842,
				0.045181214809417725
			]
		}
	],
	"materials":[
		{
			"doubleSided":true,
			"extensions":{
				"KHR_materials_specular":{
					"specularTexture":{
						"index":0
					}
				},
				"KHR_materials_ior":{
					"ior":1.4500000476837158
				}
			},
			"name":"Daun",
			"normalTexture":{
				"index":1
			},
			"pbrMetallicRoughness":{
				"baseColorTexture":{
					"index":2
				},
				"metallicFactor":0,
				"roughnessFactor":0.2590909004211426
			}
		},
		{
			"doubleSided":true,
			"extensions":{
				"KHR_materials_specular":{
					"specularFactor":0.5363636016845703
				},
				"KHR_materials_ior":{
					"ior":1.4500000476837158
				}
			},
			"name":"Fiber",
			"pbrMetallicRoughness":{
				"baseColorTexture":{
					"extensions":{
						"KHR_texture_transform":{
							"offset":[
								-42.75394641228089,
								-14.225787171421132
							],
							"rotation":70,
							"scale":[
								6.999999687075629,
								6.999999687075629
							]
						}
					},
					"index":3
				},
				"metallicFactor":0,
				"roughnessFactor":0.5527864098548889
			}
		},
		{
			"alphaMode":"BLEND",
			"doubleSided":true,
			"extensions":{
				"KHR_materials_specular":{
					"specularFactor":0.4363635778427124
				},
				"KHR_materials_ior":{
					"ior":1.4500000476837158
				}
			},
			"name":"FIber Alpha",
			"normalTexture":{
				"extensions":{
					"KHR_texture_transform":{
						"offset":[
							-42.75394641228089,
							-14.225787171421132
						],
						"rotation":70,
						"scale":[
							6.999999687075629,
							6.999999687075629
						]
					}
				},
				"index":4
			},
			"pbrMetallicRoughness":{
				"baseColorTexture":{
					"extensions":{
						"KHR_texture_transform":{
							"offset":[
								-42.75394641228089,
								-14.225787171421132
							],
							"rotation":70,
							"scale":[
								6.999999687075629,
								6.999999687075629
							]
						}
					},
					"index":5
				},
				"metallicFactor":0,
				"roughnessFactor":0.5527864098548889
			}
		}
	],
	"meshes":[
		{
			"name":"Mesh.024",
			"primitives":[
				{
					"attributes":{
						"POSITION":0,
						"NORMAL":1,
						"TEXCOORD_0":2
					},
					"indices":3,
					"material":0
				},
				{
					"attributes":{
						"POSITION":4,
						"NORMAL":5,
						"TEXCOORD_0":6
					},
					"indices":7,
					"material":1
				},
				{
					"attributes":{
						"POSITION":8,
						"NORMAL":9,
						"TEXCOORD_0":10
					},
					"indices":11,
					"material":2
				}
			]
		}
	],
	"textures":[
		{
			"sampler":0,
			"source":0
		},
		{
			"sampler":0,
			"source":1
		},
		{
			"sampler":0,
			"source":2
		},
		{
			"sampler":0,
			"source":3
		},
		{
			"sampler":0,
			"source":4
		},
		{
			"sampler":0,
			"source":5
		}
	],
	"images":[
		{
			"mimeType":"image/jpeg",
			"name":"Monstera_1_spec",
			"uri":"Monstera_1_spec.jpg"
		},
		{
			"mimeType":"image/jpeg",
			"name":"Monstera_1_norm",
			"uri":"Monstera_1_norm.jpg"
		},
		{
			"mimeType":"image/jpeg",
			"name":"Monstera_1_dif",
			"uri":"Monstera_1_dif.jpg"
		},
		{
			"mimeType":"image/jpeg",
			"name":"Fiber_coco_dif",
			"uri":"Fiber_coco_dif.jpg"
		},
		{
			"mimeType":"image/jpeg",
			"name":"Fiber_coco_norm",
			"uri":"Fiber_coco_norm.jpg"
		},
		{
			"mimeType":"image/png",
			"name":"Fiber_coco_dif-Fiber_coco_mask",
			"uri":"Fiber_coco_dif-Fiber_coco_mask.png"
		}
	],
	"accessors":[
		{
			"bufferView":0,
			"componentType":5126,
			"count":1808,
			"max":[
				0.36713120341300964,
				0.3231262266635895,
				0.40855464339256287
			],
			"min":[
				-0.43277812004089355,
				-0.7482603788375854,
				-0.4461428225040436
			],
			"type":"VEC3"
		},
		{
			"bufferView":1,
			"componentType":5126,
			"count":1808,
			"type":"VEC3"
		},
		{
			"bufferView":2,
			"componentType":5126,
			"count":1808,
			"type":"VEC2"
		},
		{
			"bufferView":3,
			"componentType":5123,
			"count":5283,
			"type":"SCALAR"
		},
		{
			"bufferView":4,
			"componentType":5126,
			"count":13,
			"max":[
				-0.020421061664819717,
				0.18873342871665955,
				-0.015639184042811394
			],
			"min":[
				-0.08471418917179108,
				-0.7482568025588989,
				-0.08369126915931702
			],
			"type":"VEC3"
		},
		{
			"bufferView":5,
			"componentType":5126,
			"count":13,
			"type":"VEC3"
		},
		{
			"bufferView":6,
			"componentType":5126,
			"count":13,
			"type":"VEC2"
		},
		{
			"bufferView":7,
			"componentType":5123,
			"count":33,
			"type":"SCALAR"
		},
		{
			"bufferView":8,
			"componentType":5126,
			"count":188,
			"max":[
				0.007612711284309626,
				0.19415557384490967,
				0.01854482665657997
			],
			"min":[
				-0.10744035243988037,
				-0.7486796379089355,
				-0.09081429243087769
			],
			"type":"VEC3"
		},
		{
			"bufferView":9,
			"componentType":5126,
			"count":188,
			"type":"VEC3"
		},
		{
			"bufferView":10,
			"componentType":5126,
			"count":188,
			"type":"VEC2"
		},
		{
			"bufferView":11,
			"componentType":5123,
			"count":357,
			"type":"SCALAR"
		}
	],
	"bufferViews":[
		{
			"buffer":0,
			"byteLength":21696,
			"byteOffset":0,
			"target":34962
		},
		{
			"buffer":0,
			"byteLength":21696,
			"byteOffset":21696,
			"target":34962
		},
		{
			"buffer":0,
			"byteLength":14464,
			"byteOffset":43392,
			"target":34962
		},
		{
			"buffer":0,
			"byteLength":10566,
			"byteOffset":57856,
			"target":34963
		},
		{
			"buffer":0,
			"byteLength":156,
			"byteOffset":68424,
			"target":34962
		},
		{
			"buffer":0,
			"byteLength":156,
			"byteOffset":68580,
			"target":34962
		},
		{
			"buffer":0,
			"byteLength":104,
			"byteOffset":68736,
			"target":34962
		},
		{
			"buffer":0,
			"byteLength":66,
			"byteOffset":68840,
			"target":34963
		},
		{
			"buffer":0,
			"byteLength":2256,
			"byteOffset":68908,
			"target":34962
		},
		{
			"buffer":0,
			"byteLength":2256,
			"byteOffset":71164,
			"target":34962
		},
		{
			"buffer":0,
			"byteLength":1504,
			"byteOffset":73420,
			"target":34962
		},
		{
			"buffer":0,
			"byteLength":714,
			"byteOffset":74924,
			"target":34963
		}
	],
	"samplers":[
		{
			"magFilter":9729,
			"minFilter":9987
		}
	],
	"buffers":[
		{
			"byteLength":75640,
			"uri":"plant%203.bin"
		}
	]
}
