{
	"asset":{
		"generator":"Khronos glTF Blender I/O v4.2.70",
		"version":"2.0"
	},
	"extensionsUsed":[
		"KHR_texture_transform"
	],
	"extensionsRequired":[
		"KHR_texture_transform"
	],
	"scene":0,
	"scenes":[
		{
			"name":"Scene",
			"nodes":[
				0
			]
		}
	],
	"nodes":[
		{
			"mesh":0,
			"name":"Hybrid Geo-Org Sculpture"
		}
	],
	"materials":[
		{
			"doubleSided":true,
			"name":"Metal038",
			"normalTexture":{
				"extensions":{
					"KHR_texture_transform":{
						"offset":[
							0.5,
							-0.5
						]
					}
				},
				"index":0
			},
			"pbrMetallicRoughness":{
				"baseColorTexture":{
					"extensions":{
						"KHR_texture_transform":{
							"offset":[
								0.5,
								-0.5
							]
						}
					},
					"index":1
				},
				"metallicRoughnessTexture":{
					"extensions":{
						"KHR_texture_transform":{
							"offset":[
								0.5,
								-0.5
							]
						}
					},
					"index":2
				}
			}
		},
		{
			"doubleSided":true,
			"name":"Metal004",
			"normalTexture":{
				"extensions":{
					"KHR_texture_transform":{
						"offset":[
							0.5,
							-0.5
						]
					}
				},
				"index":3
			},
			"pbrMetallicRoughness":{
				"baseColorTexture":{
					"extensions":{
						"KHR_texture_transform":{
							"offset":[
								0.5,
								-0.5
							]
						}
					},
					"index":4
				},
				"metallicRoughnessTexture":{
					"extensions":{
						"KHR_texture_transform":{
							"offset":[
								0.5,
								-0.5
							]
						}
					},
					"index":5
				}
			}
		}
	],
	"meshes":[
		{
			"name":"Plane.001",
			"primitives":[
				{
					"attributes":{
						"POSITION":0,
						"NORMAL":1,
						"TEXCOORD_0":2
					},
					"indices":3,
					"material":0
				},
				{
					"attributes":{
						"POSITION":4,
						"NORMAL":5,
						"TEXCOORD_0":6
					},
					"indices":7,
					"material":1
				}
			]
		}
	],
	"textures":[
		{
			"sampler":0,
			"source":0
		},
		{
			"sampler":0,
			"source":1
		},
		{
			"sampler":0,
			"source":2
		},
		{
			"sampler":0,
			"source":3
		},
		{
			"sampler":0,
			"source":4
		},
		{
			"sampler":0,
			"source":5
		}
	],
	"images":[
		{
			"mimeType":"image/jpeg",
			"name":"Metal038_1K_Displacement",
			"uri":"Metal038_1K_Displacement.jpg"
		},
		{
			"mimeType":"image/jpeg",
			"name":"Metal038_1K_Color",
			"uri":"Metal038_1K_Color.jpg"
		},
		{
			"mimeType":"image/png",
			"name":"Metal038_1K_Metalness-Metal038_1K_Roughness",
			"uri":"Metal038_1K_Metalness-Metal038_1K_Roughness.png"
		},
		{
			"mimeType":"image/jpeg",
			"name":"Metal004_1K_Displacement",
			"uri":"Metal004_1K_Displacement.jpg"
		},
		{
			"mimeType":"image/jpeg",
			"name":"Metal004_1K_Color",
			"uri":"Metal004_1K_Color.jpg"
		},
		{
			"mimeType":"image/png",
			"name":"Metal004_1K_Metalness-Metal004_1K_Roughness",
			"uri":"Metal004_1K_Metalness-Metal004_1K_Roughness.png"
		}
	],
	"accessors":[
		{
			"bufferView":0,
			"componentType":5126,
			"count":220,
			"max":[
				2.069106101989746,
				3.9189612865448,
				1.1002117395401
			],
			"min":[
				-1.3845601081848145,
				0.010628502815961838,
				-1.7192704677581787
			],
			"type":"VEC3"
		},
		{
			"bufferView":1,
			"componentType":5126,
			"count":220,
			"type":"VEC3"
		},
		{
			"bufferView":2,
			"componentType":5126,
			"count":220,
			"type":"VEC2"
		},
		{
			"bufferView":3,
			"componentType":5123,
			"count":540,
			"type":"SCALAR"
		},
		{
			"bufferView":4,
			"componentType":5126,
			"count":232,
			"max":[
				2.0097055435180664,
				4.210627555847168,
				0.8137359619140625
			],
			"min":[
				-1.5826529264450073,
				0.010627840645611286,
				-0.6514114737510681
			],
			"type":"VEC3"
		},
		{
			"bufferView":5,
			"componentType":5126,
			"count":232,
			"type":"VEC3"
		},
		{
			"bufferView":6,
			"componentType":5126,
			"count":232,
			"type":"VEC2"
		},
		{
			"bufferView":7,
			"componentType":5123,
			"count":540,
			"type":"SCALAR"
		}
	],
	"bufferViews":[
		{
			"buffer":0,
			"byteLength":2640,
			"byteOffset":0,
			"target":34962
		},
		{
			"buffer":0,
			"byteLength":2640,
			"byteOffset":2640,
			"target":34962
		},
		{
			"buffer":0,
			"byteLength":1760,
			"byteOffset":5280,
			"target":34962
		},
		{
			"buffer":0,
			"byteLength":1080,
			"byteOffset":7040,
			"target":34963
		},
		{
			"buffer":0,
			"byteLength":2784,
			"byteOffset":8120,
			"target":34962
		},
		{
			"buffer":0,
			"byteLength":2784,
			"byteOffset":10904,
			"target":34962
		},
		{
			"buffer":0,
			"byteLength":1856,
			"byteOffset":13688,
			"target":34962
		},
		{
			"buffer":0,
			"byteLength":1080,
			"byteOffset":15544,
			"target":34963
		}
	],
	"samplers":[
		{
			"magFilter":9729,
			"minFilter":9987
		}
	],
	"buffers":[
		{
			"byteLength":16624,
			"uri":"lobby%20sculpture.bin"
		}
	]
}
