{
	"asset":{
		"generator":"Khronos glTF Blender I/O v4.2.70",
		"version":"2.0"
	},
	"extensionsUsed":[
		"KHR_materials_specular",
		"KHR_materials_ior"
	],
	"scene":0,
	"scenes":[
		{
			"name":"Scene",
			"nodes":[
				1
			]
		}
	],
	"nodes":[
		{
			"mesh":0,
			"name":"Printer Body",
			"translation":[
				-0.0076714176684618,
				0.03973015025258064,
				-0.03316947817802429
			]
		},
		{
			"children":[
				0
			],
			"name":"Office Printer"
		}
	],
	"materials":[
		{
			"doubleSided":true,
			"name":"TFSPlastic_V2_Light",
			"pbrMetallicRoughness":{
				"baseColorFactor":[
					0.5382261872291565,
					0.49278923869132996,
					0.4698592722415924,
					1
				],
				"metallicFactor":0,
				"roughnessFactor":0.2545454502105713
			}
		},
		{
			"doubleSided":true,
			"name":"TFSPlastic_V2_Dark",
			"pbrMetallicRoughness":{
				"baseColorFactor":[
					0.23301607370376587,
					0.23301607370376587,
					0.23301607370376587,
					1
				],
				"metallicFactor":0,
				"roughnessFactor":0.2545454502105713
			}
		},
		{
			"doubleSided":true,
			"emissiveFactor":[
				0.30000001192092896,
				0.30000001192092896,
				0.30000001192092896
			],
			"emissiveTexture":{
				"index":0
			},
			"name":"Printer_Display",
			"pbrMetallicRoughness":{
				"baseColorTexture":{
					"index":1
				},
				"metallicFactor":0,
				"roughnessFactor":0.331818163394928
			}
		},
		{
			"doubleSided":true,
			"extensions":{
				"KHR_materials_specular":{
					"specularFactor":0.3636363744735718
				},
				"KHR_materials_ior":{
					"ior":1.4500000476837158
				}
			},
			"name":"TFSPlastic_V2_Black",
			"pbrMetallicRoughness":{
				"baseColorFactor":[
					0.027209879830479622,
					0.027209879830479622,
					0.027209879830479622,
					1
				],
				"metallicFactor":0,
				"roughnessFactor":0.36818182468414307
			}
		}
	],
	"meshes":[
		{
			"name":"Cube.012",
			"primitives":[
				{
					"attributes":{
						"POSITION":0,
						"NORMAL":1,
						"TEXCOORD_0":2
					},
					"indices":3,
					"material":0
				},
				{
					"attributes":{
						"POSITION":4,
						"NORMAL":5,
						"TEXCOORD_0":6
					},
					"indices":7,
					"material":1
				},
				{
					"attributes":{
						"POSITION":8,
						"NORMAL":9,
						"TEXCOORD_0":10
					},
					"indices":11,
					"material":2
				},
				{
					"attributes":{
						"POSITION":12,
						"NORMAL":13,
						"TEXCOORD_0":14
					},
					"indices":15,
					"material":3
				}
			]
		}
	],
	"textures":[
		{
			"sampler":0,
			"source":0
		},
		{
			"sampler":0,
			"source":0
		}
	],
	"images":[
		{
			"mimeType":"image/jpeg",
			"name":"PrinterDisplay_TFS",
			"uri":"PrinterDisplay_TFS.jpg"
		}
	],
	"accessors":[
		{
			"bufferView":0,
			"componentType":5126,
			"count":1235,
			"max":[
				0.3203403651714325,
				1.1413192749023438,
				0.36073005199432373
			],
			"min":[
				-0.32034045457839966,
				0,
				-0.29947155714035034
			],
			"type":"VEC3"
		},
		{
			"bufferView":1,
			"componentType":5126,
			"count":1235,
			"type":"VEC3"
		},
		{
			"bufferView":2,
			"componentType":5126,
			"count":1235,
			"type":"VEC2"
		},
		{
			"bufferView":3,
			"componentType":5123,
			"count":3414,
			"type":"SCALAR"
		},
		{
			"bufferView":4,
			"componentType":5126,
			"count":3841,
			"max":[
				0.3277840316295624,
				1.1757711172103882,
				0.40022924542427063
			],
			"min":[
				-0.5891615748405457,
				0,
				-0.31465595960617065
			],
			"type":"VEC3"
		},
		{
			"bufferView":5,
			"componentType":5126,
			"count":3841,
			"type":"VEC3"
		},
		{
			"bufferView":6,
			"componentType":5126,
			"count":3841,
			"type":"VEC2"
		},
		{
			"bufferView":7,
			"componentType":5123,
			"count":9432,
			"type":"SCALAR"
		},
		{
			"bufferView":8,
			"componentType":5126,
			"count":4,
			"max":[
				0.2564811408519745,
				0.9366324543952942,
				0.3817301392555237
			],
			"min":[
				0.009966999292373657,
				0.8503763675689697,
				0.29536139965057373
			],
			"type":"VEC3"
		},
		{
			"bufferView":9,
			"componentType":5126,
			"count":4,
			"type":"VEC3"
		},
		{
			"bufferView":10,
			"componentType":5126,
			"count":4,
			"type":"VEC2"
		},
		{
			"bufferView":11,
			"componentType":5123,
			"count":6,
			"type":"SCALAR"
		},
		{
			"bufferView":12,
			"componentType":5126,
			"count":248,
			"max":[
				0.308866947889328,
				1.0821712017059326,
				0.2859481871128082
			],
			"min":[
				-0.37490296363830566,
				-0.039730146527290344,
				-0.2780251204967499
			],
			"type":"VEC3"
		},
		{
			"bufferView":13,
			"componentType":5126,
			"count":248,
			"type":"VEC3"
		},
		{
			"bufferView":14,
			"componentType":5126,
			"count":248,
			"type":"VEC2"
		},
		{
			"bufferView":15,
			"componentType":5123,
			"count":594,
			"type":"SCALAR"
		}
	],
	"bufferViews":[
		{
			"buffer":0,
			"byteLength":14820,
			"byteOffset":0,
			"target":34962
		},
		{
			"buffer":0,
			"byteLength":14820,
			"byteOffset":14820,
			"target":34962
		},
		{
			"buffer":0,
			"byteLength":9880,
			"byteOffset":29640,
			"target":34962
		},
		{
			"buffer":0,
			"byteLength":6828,
			"byteOffset":39520,
			"target":34963
		},
		{
			"buffer":0,
			"byteLength":46092,
			"byteOffset":46348,
			"target":34962
		},
		{
			"buffer":0,
			"byteLength":46092,
			"byteOffset":92440,
			"target":34962
		},
		{
			"buffer":0,
			"byteLength":30728,
			"byteOffset":138532,
			"target":34962
		},
		{
			"buffer":0,
			"byteLength":18864,
			"byteOffset":169260,
			"target":34963
		},
		{
			"buffer":0,
			"byteLength":48,
			"byteOffset":188124,
			"target":34962
		},
		{
			"buffer":0,
			"byteLength":48,
			"byteOffset":188172,
			"target":34962
		},
		{
			"buffer":0,
			"byteLength":32,
			"byteOffset":188220,
			"target":34962
		},
		{
			"buffer":0,
			"byteLength":12,
			"byteOffset":188252,
			"target":34963
		},
		{
			"buffer":0,
			"byteLength":2976,
			"byteOffset":188264,
			"target":34962
		},
		{
			"buffer":0,
			"byteLength":2976,
			"byteOffset":191240,
			"target":34962
		},
		{
			"buffer":0,
			"byteLength":1984,
			"byteOffset":194216,
			"target":34962
		},
		{
			"buffer":0,
			"byteLength":1188,
			"byteOffset":196200,
			"target":34963
		}
	],
	"samplers":[
		{
			"magFilter":9729,
			"minFilter":9987
		}
	],
	"buffers":[
		{
			"byteLength":197388,
			"uri":"printer.bin"
		}
	]
}
