{
	"asset":{
		"generator":"Khronos glTF Blender I/O v4.2.70",
		"version":"2.0"
	},
	"scene":0,
	"scenes":[
		{
			"name":"Scene",
			"nodes":[
				0
			]
		}
	],
	"nodes":[
		{
			"mesh":0,
			"name":"Cube",
			"scale":[
				1,
				1,
				0.6000000238418579
			],
			"translation":[
				0,
				1,
				0
			]
		}
	],
	"materials":[
		{
			"doubleSided":true,
			"name":"Material.001",
			"pbrMetallicRoughness":{
				"baseColorFactor":[
					0.32791054248809814,
					0.32791054248809814,
					0.32791054248809814,
					1
				],
				"roughnessFactor":0.1683937907218933
			}
		},
		{
			"doubleSided":true,
			"name":"Material.002",
			"pbrMetallicRoughness":{
				"baseColorFactor":[
					0,
					0,
					0,
					1
				],
				"metallicFactor":0,
				"roughnessFactor":0.5
			}
		},
		{
			"doubleSided":true,
			"name":"Material.003",
			"pbrMetallicRoughness":{
				"baseColorFactor":[
					0.23014992475509644,
					0.23014992475509644,
					0.23014992475509644,
					1
				],
				"metallicFactor":0,
				"roughnessFactor":0.5
			}
		},
		{
			"doubleSided":true,
			"name":"Material.004",
			"pbrMetallicRoughness":{
				"baseColorFactor":[
					0.8008443117141724,
					0.001472346717491746,
					0,
					1
				],
				"metallicFactor":0,
				"roughnessFactor":0.5
			}
		}
	],
	"meshes":[
		{
			"name":"Cube.001",
			"primitives":[
				{
					"attributes":{
						"POSITION":0,
						"NORMAL":1,
						"TEXCOORD_0":2
					},
					"indices":3,
					"material":0
				},
				{
					"attributes":{
						"POSITION":4,
						"NORMAL":5,
						"TEXCOORD_0":6
					},
					"indices":7,
					"material":1
				},
				{
					"attributes":{
						"POSITION":8,
						"NORMAL":9,
						"TEXCOORD_0":10
					},
					"indices":11,
					"material":2
				},
				{
					"attributes":{
						"POSITION":12,
						"NORMAL":13,
						"TEXCOORD_0":14
					},
					"indices":15,
					"material":3
				}
			]
		}
	],
	"accessors":[
		{
			"bufferView":0,
			"componentType":5126,
			"count":118,
			"max":[
				1,
				1,
				1.056750774383545
			],
			"min":[
				-1,
				-1,
				-1
			],
			"type":"VEC3"
		},
		{
			"bufferView":1,
			"componentType":5126,
			"count":118,
			"type":"VEC3"
		},
		{
			"bufferView":2,
			"componentType":5126,
			"count":118,
			"type":"VEC2"
		},
		{
			"bufferView":3,
			"componentType":5123,
			"count":264,
			"type":"SCALAR"
		},
		{
			"bufferView":4,
			"componentType":5126,
			"count":4,
			"max":[
				0.499499648809433,
				0.8239620327949524,
				1.0431289672851562
			],
			"min":[
				0.06741532683372498,
				0.6370996832847595,
				1.0431289672851562
			],
			"type":"VEC3"
		},
		{
			"bufferView":5,
			"componentType":5126,
			"count":4,
			"type":"VEC3"
		},
		{
			"bufferView":6,
			"componentType":5126,
			"count":4,
			"type":"VEC2"
		},
		{
			"bufferView":7,
			"componentType":5123,
			"count":6,
			"type":"SCALAR"
		},
		{
			"bufferView":8,
			"componentType":5126,
			"count":44,
			"max":[
				0.5287840366363525,
				0.8366265892982483,
				1.0718624591827393
			],
			"min":[
				0.038130924105644226,
				0.6244351267814636,
				0.9441724419593811
			],
			"type":"VEC3"
		},
		{
			"bufferView":9,
			"componentType":5126,
			"count":44,
			"type":"VEC3"
		},
		{
			"bufferView":10,
			"componentType":5126,
			"count":44,
			"type":"VEC2"
		},
		{
			"bufferView":11,
			"componentType":5123,
			"count":78,
			"type":"SCALAR"
		},
		{
			"bufferView":12,
			"componentType":5126,
			"count":260,
			"max":[
				-0.6787904500961304,
				-0.044614844024181366,
				1.0654351711273193
			],
			"min":[
				-0.736208438873291,
				-0.20982375741004944,
				1.0382869243621826
			],
			"type":"VEC3"
		},
		{
			"bufferView":13,
			"componentType":5126,
			"count":260,
			"type":"VEC3"
		},
		{
			"bufferView":14,
			"componentType":5126,
			"count":260,
			"type":"VEC2"
		},
		{
			"bufferView":15,
			"componentType":5123,
			"count":744,
			"type":"SCALAR"
		}
	],
	"bufferViews":[
		{
			"buffer":0,
			"byteLength":1416,
			"byteOffset":0,
			"target":34962
		},
		{
			"buffer":0,
			"byteLength":1416,
			"byteOffset":1416,
			"target":34962
		},
		{
			"buffer":0,
			"byteLength":944,
			"byteOffset":2832,
			"target":34962
		},
		{
			"buffer":0,
			"byteLength":528,
			"byteOffset":3776,
			"target":34963
		},
		{
			"buffer":0,
			"byteLength":48,
			"byteOffset":4304,
			"target":34962
		},
		{
			"buffer":0,
			"byteLength":48,
			"byteOffset":4352,
			"target":34962
		},
		{
			"buffer":0,
			"byteLength":32,
			"byteOffset":4400,
			"target":34962
		},
		{
			"buffer":0,
			"byteLength":12,
			"byteOffset":4432,
			"target":34963
		},
		{
			"buffer":0,
			"byteLength":528,
			"byteOffset":4444,
			"target":34962
		},
		{
			"buffer":0,
			"byteLength":528,
			"byteOffset":4972,
			"target":34962
		},
		{
			"buffer":0,
			"byteLength":352,
			"byteOffset":5500,
			"target":34962
		},
		{
			"buffer":0,
			"byteLength":156,
			"byteOffset":5852,
			"target":34963
		},
		{
			"buffer":0,
			"byteLength":3120,
			"byteOffset":6008,
			"target":34962
		},
		{
			"buffer":0,
			"byteLength":3120,
			"byteOffset":9128,
			"target":34962
		},
		{
			"buffer":0,
			"byteLength":2080,
			"byteOffset":12248,
			"target":34962
		},
		{
			"buffer":0,
			"byteLength":1488,
			"byteOffset":14328,
			"target":34963
		}
	],
	"buffers":[
		{
			"byteLength":15816,
			"uri":"elevator.bin"
		}
	]
}
