{
	"asset":{
		"generator":"Khronos glTF Blender I/O v4.2.70",
		"version":"2.0"
	},
	"scene":0,
	"scenes":[
		{
			"name":"Scene",
			"nodes":[
				0
			]
		}
	],
	"nodes":[
		{
			"mesh":0,
			"name":"Mirror Rushall I"
		}
	],
	"materials":[
		{
			"doubleSided":true,
			"name":"Mirror_Black",
			"pbrMetallicRoughness":{
				"baseColorFactor":[
					0.014885797165334225,
					0.014885797165334225,
					0.014885797165334225,
					1
				],
				"metallicFactor":0,
				"roughnessFactor":0.5
			}
		},
		{
			"doubleSided":true,
			"name":"Mirror",
			"pbrMetallicRoughness":{
				"baseColorFactor":[
					0.800000011920929,
					0.800000011920929,
					0.800000011920929,
					1
				],
				"roughnessFactor":0
			}
		}
	],
	"meshes":[
		{
			"name":"Cube.001",
			"primitives":[
				{
					"attributes":{
						"POSITION":0,
						"NORMAL":1,
						"TEXCOORD_0":2
					},
					"indices":3,
					"material":0
				},
				{
					"attributes":{
						"POSITION":4,
						"NORMAL":5,
						"TEXCOORD_0":6
					},
					"indices":7,
					"material":1
				}
			]
		}
	],
	"accessors":[
		{
			"bufferView":0,
			"componentType":5126,
			"count":40,
			"max":[
				0.23000000417232513,
				0.03000004030764103,
				0.925000011920929
			],
			"min":[
				-0.23000000417232513,
				-4.0433032921782797e-08,
				-0.925000011920929
			],
			"type":"VEC3"
		},
		{
			"bufferView":1,
			"componentType":5126,
			"count":40,
			"type":"VEC3"
		},
		{
			"bufferView":2,
			"componentType":5126,
			"count":40,
			"type":"VEC2"
		},
		{
			"bufferView":3,
			"componentType":5123,
			"count":72,
			"type":"SCALAR"
		},
		{
			"bufferView":4,
			"componentType":5126,
			"count":4,
			"max":[
				0.20000000298023224,
				0.010000038892030716,
				0.8949999809265137
			],
			"min":[
				-0.20000000298023224,
				0.009999960660934448,
				-0.8949999809265137
			],
			"type":"VEC3"
		},
		{
			"bufferView":5,
			"componentType":5126,
			"count":4,
			"type":"VEC3"
		},
		{
			"bufferView":6,
			"componentType":5126,
			"count":4,
			"type":"VEC2"
		},
		{
			"bufferView":7,
			"componentType":5123,
			"count":6,
			"type":"SCALAR"
		}
	],
	"bufferViews":[
		{
			"buffer":0,
			"byteLength":480,
			"byteOffset":0,
			"target":34962
		},
		{
			"buffer":0,
			"byteLength":480,
			"byteOffset":480,
			"target":34962
		},
		{
			"buffer":0,
			"byteLength":320,
			"byteOffset":960,
			"target":34962
		},
		{
			"buffer":0,
			"byteLength":144,
			"byteOffset":1280,
			"target":34963
		},
		{
			"buffer":0,
			"byteLength":48,
			"byteOffset":1424,
			"target":34962
		},
		{
			"buffer":0,
			"byteLength":48,
			"byteOffset":1472,
			"target":34962
		},
		{
			"buffer":0,
			"byteLength":32,
			"byteOffset":1520,
			"target":34962
		},
		{
			"buffer":0,
			"byteLength":12,
			"byteOffset":1552,
			"target":34963
		}
	],
	"buffers":[
		{
			"byteLength":1564,
			"uri":"shitty%20mirror.bin"
		}
	]
}
