{
	"asset":{
		"generator":"Khronos glTF Blender I/O v4.2.70",
		"version":"2.0"
	},
	"scene":0,
	"scenes":[
		{
			"name":"Scene",
			"nodes":[
				0
			]
		}
	],
	"nodes":[
		{
			"mesh":0,
			"name":"Circle.004"
		}
	],
	"materials":[
		{
			"doubleSided":true,
			"name":"Toilet_Main White",
			"normalTexture":{
				"index":0,
				"scale":0.5
			},
			"pbrMetallicRoughness":{
				"baseColorFactor":[
					0.800000011920929,
					0.800000011920929,
					0.800000011920929,
					1
				],
				"metallicFactor":0,
				"metallicRoughnessTexture":{
					"index":1
				}
			}
		},
		{
			"doubleSided":true,
			"name":"Toilet_Lock",
			"normalTexture":{
				"index":2,
				"scale":0.5
			},
			"pbrMetallicRoughness":{
				"baseColorFactor":[
					0.047744378447532654,
					0.047744378447532654,
					0.047744378447532654,
					1
				],
				"metallicFactor":0,
				"roughnessFactor":0.5
			}
		},
		{
			"doubleSided":true,
			"name":"Toilet_Metal",
			"normalTexture":{
				"index":3,
				"scale":0.5
			},
			"pbrMetallicRoughness":{
				"baseColorFactor":[
					0.6752294898033142,
					0.6752294898033142,
					0.6752294898033142,
					1
				],
				"metallicRoughnessTexture":{
					"index":4
				}
			}
		},
		{
			"doubleSided":true,
			"name":"Toilet_Plastic",
			"normalTexture":{
				"index":5,
				"scale":0.5
			},
			"pbrMetallicRoughness":{
				"metallicFactor":0,
				"metallicRoughnessTexture":{
					"index":6
				}
			}
		}
	],
	"meshes":[
		{
			"name":"Circle.006",
			"primitives":[
				{
					"attributes":{
						"POSITION":0,
						"NORMAL":1,
						"TEXCOORD_0":2
					},
					"indices":3,
					"material":0
				},
				{
					"attributes":{
						"POSITION":4,
						"NORMAL":5,
						"TEXCOORD_0":6
					},
					"indices":7,
					"material":1
				},
				{
					"attributes":{
						"POSITION":8,
						"NORMAL":9,
						"TEXCOORD_0":10
					},
					"indices":11,
					"material":2
				},
				{
					"attributes":{
						"POSITION":12,
						"NORMAL":13,
						"TEXCOORD_0":14
					},
					"indices":15,
					"material":3
				}
			]
		}
	],
	"textures":[
		{
			"sampler":0,
			"source":0
		},
		{
			"sampler":0,
			"source":1
		},
		{
			"sampler":0,
			"source":0
		},
		{
			"sampler":0,
			"source":2
		},
		{
			"sampler":0,
			"source":3
		},
		{
			"sampler":0,
			"source":4
		},
		{
			"sampler":0,
			"source":5
		}
	],
	"images":[
		{
			"mimeType":"image/jpeg",
			"name":"Marble008_2K_Normal",
			"uri":"Marble008_2K_Normal.jpg"
		},
		{
			"mimeType":"image/png",
			"name":"Marble008_2K_Roughness",
			"uri":"Marble008_2K_Roughness.png"
		},
		{
			"mimeType":"image/jpeg",
			"name":"Metal001_2K_Normal",
			"uri":"Metal001_2K_Normal.jpg"
		},
		{
			"mimeType":"image/png",
			"name":"Metal001_2K_Color.jpg-Metal001_2K_Roughness",
			"uri":"Metal001_2K_Color_jpg-Metal001_2K_Roughness.png"
		},
		{
			"mimeType":"image/jpeg",
			"name":"Plastic011_2K_Normal",
			"uri":"Plastic011_2K_Normal.jpg"
		},
		{
			"mimeType":"image/png",
			"name":"Plastic011_2K_Roughness",
			"uri":"Plastic011_2K_Roughness.png"
		}
	],
	"accessors":[
		{
			"bufferView":0,
			"componentType":5126,
			"count":2024,
			"max":[
				0.2014329880475998,
				0.7491797208786011,
				0.39386844635009766
			],
			"min":[
				-0.20143342018127441,
				0.0003460822335910052,
				-0.3187524974346161
			],
			"type":"VEC3"
		},
		{
			"bufferView":1,
			"componentType":5126,
			"count":2024,
			"type":"VEC3"
		},
		{
			"bufferView":2,
			"componentType":5126,
			"count":2024,
			"type":"VEC2"
		},
		{
			"bufferView":3,
			"componentType":5123,
			"count":2394,
			"type":"SCALAR"
		},
		{
			"bufferView":4,
			"componentType":5126,
			"count":288,
			"max":[
				0.06771004945039749,
				0.04212542623281479,
				0.12130431830883026
			],
			"min":[
				-0.06636925041675568,
				0.0289397481828928,
				-0.09456844627857208
			],
			"type":"VEC3"
		},
		{
			"bufferView":5,
			"componentType":5126,
			"count":288,
			"type":"VEC3"
		},
		{
			"bufferView":6,
			"componentType":5126,
			"count":288,
			"type":"VEC2"
		},
		{
			"bufferView":7,
			"componentType":5123,
			"count":294,
			"type":"SCALAR"
		},
		{
			"bufferView":8,
			"componentType":5126,
			"count":112,
			"max":[
				-0.15765263140201569,
				0.6849249601364136,
				-0.1703723967075348
			],
			"min":[
				-0.21097028255462646,
				0.6628907918930054,
				-0.24518950283527374
			],
			"type":"VEC3"
		},
		{
			"bufferView":9,
			"componentType":5126,
			"count":112,
			"type":"VEC3"
		},
		{
			"bufferView":10,
			"componentType":5126,
			"count":112,
			"type":"VEC2"
		},
		{
			"bufferView":11,
			"componentType":5123,
			"count":126,
			"type":"SCALAR"
		},
		{
			"bufferView":12,
			"componentType":5126,
			"count":663,
			"max":[
				0.189982607960701,
				0.7645725607872009,
				0.39675137400627136
			],
			"min":[
				-0.18759705126285553,
				0.3664376437664032,
				-0.14940057694911957
			],
			"type":"VEC3"
		},
		{
			"bufferView":13,
			"componentType":5126,
			"count":663,
			"type":"VEC3"
		},
		{
			"bufferView":14,
			"componentType":5126,
			"count":663,
			"type":"VEC2"
		},
		{
			"bufferView":15,
			"componentType":5123,
			"count":804,
			"type":"SCALAR"
		}
	],
	"bufferViews":[
		{
			"buffer":0,
			"byteLength":24288,
			"byteOffset":0,
			"target":34962
		},
		{
			"buffer":0,
			"byteLength":24288,
			"byteOffset":24288,
			"target":34962
		},
		{
			"buffer":0,
			"byteLength":16192,
			"byteOffset":48576,
			"target":34962
		},
		{
			"buffer":0,
			"byteLength":4788,
			"byteOffset":64768,
			"target":34963
		},
		{
			"buffer":0,
			"byteLength":3456,
			"byteOffset":69556,
			"target":34962
		},
		{
			"buffer":0,
			"byteLength":3456,
			"byteOffset":73012,
			"target":34962
		},
		{
			"buffer":0,
			"byteLength":2304,
			"byteOffset":76468,
			"target":34962
		},
		{
			"buffer":0,
			"byteLength":588,
			"byteOffset":78772,
			"target":34963
		},
		{
			"buffer":0,
			"byteLength":1344,
			"byteOffset":79360,
			"target":34962
		},
		{
			"buffer":0,
			"byteLength":1344,
			"byteOffset":80704,
			"target":34962
		},
		{
			"buffer":0,
			"byteLength":896,
			"byteOffset":82048,
			"target":34962
		},
		{
			"buffer":0,
			"byteLength":252,
			"byteOffset":82944,
			"target":34963
		},
		{
			"buffer":0,
			"byteLength":7956,
			"byteOffset":83196,
			"target":34962
		},
		{
			"buffer":0,
			"byteLength":7956,
			"byteOffset":91152,
			"target":34962
		},
		{
			"buffer":0,
			"byteLength":5304,
			"byteOffset":99108,
			"target":34962
		},
		{
			"buffer":0,
			"byteLength":1608,
			"byteOffset":104412,
			"target":34963
		}
	],
	"samplers":[
		{
			"magFilter":9729,
			"minFilter":9987
		}
	],
	"buffers":[
		{
			"byteLength":106020,
			"uri":"toilet.bin"
		}
	]
}
