{
	"asset":{
		"generator":"Khronos glTF Blender I/O v4.2.70",
		"version":"2.0"
	},
	"scene":0,
	"scenes":[
		{
			"name":"Scene",
			"nodes":[
				0
			]
		}
	],
	"nodes":[
		{
			"mesh":0,
			"name":"CardBoard"
		}
	],
	"materials":[
		{
			"alphaMode":"BLEND",
			"name":"Board_mat",
			"normalTexture":{
				"index":0
			},
			"pbrMetallicRoughness":{
				"baseColorTexture":{
					"index":1
				},
				"metallicFactor":0,
				"metallicRoughnessTexture":{
					"index":2
				}
			}
		},
		{
			"alphaMode":"BLEND",
			"doubleSided":true,
			"name":"Board_Opacity",
			"normalTexture":{
				"index":3
			},
			"pbrMetallicRoughness":{
				"baseColorTexture":{
					"index":4
				},
				"metallicFactor":0,
				"metallicRoughnessTexture":{
					"index":5
				}
			}
		}
	],
	"meshes":[
		{
			"name":"Mesh.001",
			"primitives":[
				{
					"attributes":{
						"POSITION":0,
						"NORMAL":1,
						"TEXCOORD_0":2
					},
					"indices":3,
					"material":0
				},
				{
					"attributes":{
						"POSITION":4,
						"NORMAL":5,
						"TEXCOORD_0":6
					},
					"indices":7,
					"material":1
				}
			]
		}
	],
	"textures":[
		{
			"sampler":0,
			"source":0
		},
		{
			"sampler":0,
			"source":1
		},
		{
			"sampler":0,
			"source":2
		},
		{
			"sampler":0,
			"source":0
		},
		{
			"sampler":0,
			"source":1
		},
		{
			"sampler":0,
			"source":2
		}
	],
	"images":[
		{
			"mimeType":"image/jpeg",
			"name":"CardBoard_Board_mat_GL",
			"uri":"CardBoard_Board_mat_GL.jpg"
		},
		{
			"mimeType":"image/png",
			"name":"CardBoard_Board_mat_BaseColor-Grayscale",
			"uri":"CardBoard_Board_mat_BaseColor-Grayscale.png"
		},
		{
			"mimeType":"image/png",
			"name":"CardBoard_Board_mat_Roughness",
			"uri":"CardBoard_Board_mat_Roughness.png"
		}
	],
	"accessors":[
		{
			"bufferView":0,
			"componentType":5126,
			"count":229,
			"max":[
				0.3837122321128845,
				0.03949350491166115,
				0.6695564389228821
			],
			"min":[
				-0.3744010627269745,
				0.001569160958752036,
				-0.5980007648468018
			],
			"type":"VEC3"
		},
		{
			"bufferView":1,
			"componentType":5126,
			"count":229,
			"type":"VEC3"
		},
		{
			"bufferView":2,
			"componentType":5126,
			"count":229,
			"type":"VEC2"
		},
		{
			"bufferView":3,
			"componentType":5123,
			"count":600,
			"type":"SCALAR"
		},
		{
			"bufferView":4,
			"componentType":5126,
			"count":22,
			"max":[
				0.45842865109443665,
				0.01763813942670822,
				0.08266996592283249
			],
			"min":[
				-0.4444721043109894,
				0.005480045918375254,
				-0.6633062958717346
			],
			"type":"VEC3"
		},
		{
			"bufferView":5,
			"componentType":5126,
			"count":22,
			"type":"VEC3"
		},
		{
			"bufferView":6,
			"componentType":5126,
			"count":22,
			"type":"VEC2"
		},
		{
			"bufferView":7,
			"componentType":5123,
			"count":42,
			"type":"SCALAR"
		}
	],
	"bufferViews":[
		{
			"buffer":0,
			"byteLength":2748,
			"byteOffset":0,
			"target":34962
		},
		{
			"buffer":0,
			"byteLength":2748,
			"byteOffset":2748,
			"target":34962
		},
		{
			"buffer":0,
			"byteLength":1832,
			"byteOffset":5496,
			"target":34962
		},
		{
			"buffer":0,
			"byteLength":1200,
			"byteOffset":7328,
			"target":34963
		},
		{
			"buffer":0,
			"byteLength":264,
			"byteOffset":8528,
			"target":34962
		},
		{
			"buffer":0,
			"byteLength":264,
			"byteOffset":8792,
			"target":34962
		},
		{
			"buffer":0,
			"byteLength":176,
			"byteOffset":9056,
			"target":34962
		},
		{
			"buffer":0,
			"byteLength":84,
			"byteOffset":9232,
			"target":34963
		}
	],
	"samplers":[
		{
			"magFilter":9729,
			"minFilter":9987
		}
	],
	"buffers":[
		{
			"byteLength":9316,
			"uri":"hr%20cardboard.bin"
		}
	]
}
