{
	"asset":{
		"generator":"Khronos glTF Blender I/O v4.2.70",
		"version":"2.0"
	},
	"extensionsUsed":[
		"KHR_materials_clearcoat"
	],
	"scene":0,
	"scenes":[
		{
			"name":"Scene",
			"nodes":[
				0
			]
		}
	],
	"nodes":[
		{
			"mesh":0,
			"name":"Bene Office Desk"
		}
	],
	"materials":[
		{
			"doubleSided":true,
			"extensions":{
				"KHR_materials_clearcoat":{
					"clearcoatFactor":1
				}
			},
			"name":"Gloss White",
			"pbrMetallicRoughness":{
				"metallicFactor":0,
				"roughnessFactor":0
			}
		},
		{
			"doubleSided":true,
			"name":"Chrome",
			"pbrMetallicRoughness":{
				"roughnessFactor":0
			}
		},
		{
			"doubleSided":true,
			"name":"Matte Black",
			"pbrMetallicRoughness":{
				"baseColorFactor":[
					0.009999999776482582,
					0.009999999776482582,
					0.009999999776482582,
					1
				],
				"metallicFactor":0,
				"roughnessFactor":0.75
			}
		}
	],
	"meshes":[
		{
			"name":"Mesh.012",
			"primitives":[
				{
					"attributes":{
						"POSITION":0,
						"NORMAL":1,
						"TEXCOORD_0":2
					},
					"indices":3,
					"material":0
				},
				{
					"attributes":{
						"POSITION":4,
						"NORMAL":5,
						"TEXCOORD_0":6
					},
					"indices":7,
					"material":1
				},
				{
					"attributes":{
						"POSITION":8,
						"NORMAL":9,
						"TEXCOORD_0":10
					},
					"indices":11,
					"material":2
				}
			]
		}
	],
	"accessors":[
		{
			"bufferView":0,
			"componentType":5126,
			"count":410,
			"max":[
				0.9334701299667358,
				0.7108789682388306,
				0.4931740462779999
			],
			"min":[
				-0.931413471698761,
				0.015086238272488117,
				-0.4931740462779999
			],
			"type":"VEC3"
		},
		{
			"bufferView":1,
			"componentType":5126,
			"count":410,
			"type":"VEC3"
		},
		{
			"bufferView":2,
			"componentType":5126,
			"count":410,
			"type":"VEC2"
		},
		{
			"bufferView":3,
			"componentType":5123,
			"count":570,
			"type":"SCALAR"
		},
		{
			"bufferView":4,
			"componentType":5126,
			"count":1776,
			"max":[
				0.9293801188468933,
				0.691938579082489,
				0.4910503327846527
			],
			"min":[
				-0.9336656928062439,
				0.008031883276998997,
				-0.491566002368927
			],
			"type":"VEC3"
		},
		{
			"bufferView":5,
			"componentType":5126,
			"count":1776,
			"type":"VEC3"
		},
		{
			"bufferView":6,
			"componentType":5126,
			"count":1776,
			"type":"VEC2"
		},
		{
			"bufferView":7,
			"componentType":5123,
			"count":3690,
			"type":"SCALAR"
		},
		{
			"bufferView":8,
			"componentType":5126,
			"count":3140,
			"max":[
				0.9258332848548889,
				0.046044934540987015,
				0.4888870120048523
			],
			"min":[
				-0.9255312085151672,
				-5.6573288020445034e-05,
				-0.48994478583335876
			],
			"type":"VEC3"
		},
		{
			"bufferView":9,
			"componentType":5126,
			"count":3140,
			"type":"VEC3"
		},
		{
			"bufferView":10,
			"componentType":5126,
			"count":3140,
			"type":"VEC2"
		},
		{
			"bufferView":11,
			"componentType":5123,
			"count":8262,
			"type":"SCALAR"
		}
	],
	"bufferViews":[
		{
			"buffer":0,
			"byteLength":4920,
			"byteOffset":0,
			"target":34962
		},
		{
			"buffer":0,
			"byteLength":4920,
			"byteOffset":4920,
			"target":34962
		},
		{
			"buffer":0,
			"byteLength":3280,
			"byteOffset":9840,
			"target":34962
		},
		{
			"buffer":0,
			"byteLength":1140,
			"byteOffset":13120,
			"target":34963
		},
		{
			"buffer":0,
			"byteLength":21312,
			"byteOffset":14260,
			"target":34962
		},
		{
			"buffer":0,
			"byteLength":21312,
			"byteOffset":35572,
			"target":34962
		},
		{
			"buffer":0,
			"byteLength":14208,
			"byteOffset":56884,
			"target":34962
		},
		{
			"buffer":0,
			"byteLength":7380,
			"byteOffset":71092,
			"target":34963
		},
		{
			"buffer":0,
			"byteLength":37680,
			"byteOffset":78472,
			"target":34962
		},
		{
			"buffer":0,
			"byteLength":37680,
			"byteOffset":116152,
			"target":34962
		},
		{
			"buffer":0,
			"byteLength":25120,
			"byteOffset":153832,
			"target":34962
		},
		{
			"buffer":0,
			"byteLength":16524,
			"byteOffset":178952,
			"target":34963
		}
	],
	"buffers":[
		{
			"byteLength":195476,
			"uri":"hr%20desk.bin"
		}
	]
}
