{
	"asset":{
		"generator":"Khronos glTF Blender I/O v4.2.70",
		"version":"2.0"
	},
	"scene":0,
	"scenes":[
		{
			"name":"Scene",
			"nodes":[
				0
			]
		}
	],
	"nodes":[
		{
			"mesh":0,
			"name":"base",
			"translation":[
				0,
				0.0030253103468567133,
				0
			]
		}
	],
	"materials":[
		{
			"doubleSided":true,
			"name":"metallo",
			"pbrMetallicRoughness":{
				"baseColorFactor":[
					0.022173862904310226,
					0.022173859179019928,
					0.02217388153076172,
					1
				],
				"roughnessFactor":0.3499999940395355
			}
		},
		{
			"alphaMode":"BLEND",
			"doubleSided":true,
			"name":"rete",
			"normalTexture":{
				"index":0
			},
			"pbrMetallicRoughness":{
				"baseColorFactor":[
					0.022173862904310226,
					0.022173859179019928,
					0.02217388153076172,
					1
				],
				"baseColorTexture":{
					"index":1
				},
				"roughnessFactor":0.3499999940395355
			}
		}
	],
	"meshes":[
		{
			"name":"Circle",
			"primitives":[
				{
					"attributes":{
						"POSITION":0,
						"NORMAL":1,
						"TEXCOORD_0":2
					},
					"indices":3,
					"material":0
				},
				{
					"attributes":{
						"POSITION":4,
						"NORMAL":5,
						"TEXCOORD_0":6
					},
					"indices":7,
					"material":1
				}
			]
		}
	],
	"textures":[
		{
			"sampler":0,
			"source":0
		},
		{
			"sampler":0,
			"source":1
		}
	],
	"images":[
		{
			"mimeType":"image/jpeg",
			"name":"Rete_cestino_Normal",
			"uri":"Rete_cestino_Normal.jpg"
		},
		{
			"mimeType":"image/png",
			"name":"Rete_cestino_Mask",
			"uri":"Rete_cestino_Mask.png"
		}
	],
	"accessors":[
		{
			"bufferView":0,
			"componentType":5126,
			"count":1317,
			"max":[
				0.1419999897480011,
				0.3439999222755432,
				0.1419999897480011
			],
			"min":[
				-0.1419999897480011,
				-0.003000000026077032,
				-0.1419999897480011
			],
			"type":"VEC3"
		},
		{
			"bufferView":1,
			"componentType":5126,
			"count":1317,
			"type":"VEC3"
		},
		{
			"bufferView":2,
			"componentType":5126,
			"count":1317,
			"type":"VEC2"
		},
		{
			"bufferView":3,
			"componentType":5123,
			"count":7644,
			"type":"SCALAR"
		},
		{
			"bufferView":4,
			"componentType":5126,
			"count":66,
			"max":[
				0.13899999856948853,
				0.3400000035762787,
				0.13899999856948853
			],
			"min":[
				-0.13899999856948853,
				0.021838784217834473,
				-0.13899999856948853
			],
			"type":"VEC3"
		},
		{
			"bufferView":5,
			"componentType":5126,
			"count":66,
			"type":"VEC3"
		},
		{
			"bufferView":6,
			"componentType":5126,
			"count":66,
			"type":"VEC2"
		},
		{
			"bufferView":7,
			"componentType":5123,
			"count":192,
			"type":"SCALAR"
		}
	],
	"bufferViews":[
		{
			"buffer":0,
			"byteLength":15804,
			"byteOffset":0,
			"target":34962
		},
		{
			"buffer":0,
			"byteLength":15804,
			"byteOffset":15804,
			"target":34962
		},
		{
			"buffer":0,
			"byteLength":10536,
			"byteOffset":31608,
			"target":34962
		},
		{
			"buffer":0,
			"byteLength":15288,
			"byteOffset":42144,
			"target":34963
		},
		{
			"buffer":0,
			"byteLength":792,
			"byteOffset":57432,
			"target":34962
		},
		{
			"buffer":0,
			"byteLength":792,
			"byteOffset":58224,
			"target":34962
		},
		{
			"buffer":0,
			"byteLength":528,
			"byteOffset":59016,
			"target":34962
		},
		{
			"buffer":0,
			"byteLength":384,
			"byteOffset":59544,
			"target":34963
		}
	],
	"samplers":[
		{
			"magFilter":9729,
			"minFilter":9987
		}
	],
	"buffers":[
		{
			"byteLength":59928,
			"uri":"trash%20can.bin"
		}
	]
}
