{
	"asset":{
		"generator":"Khronos glTF Blender I/O v4.2.70",
		"version":"2.0"
	},
	"extensionsUsed":[
		"KHR_texture_transform"
	],
	"extensionsRequired":[
		"KHR_texture_transform"
	],
	"scene":0,
	"scenes":[
		{
			"name":"Scene",
			"nodes":[
				0
			]
		}
	],
	"nodes":[
		{
			"mesh":0,
			"name":"conference chair",
			"rotation":[
				0,
				-0.9999951124191284,
				0,
				0.0031549446284770966
			],
			"scale":[
				1.0770127773284912,
				1.0770127773284912,
				1.0770127773284912
			],
			"translation":[
				-0.02454027533531189,
				0.3461762070655823,
				-0.057844310998916626
			]
		}
	],
	"materials":[
		{
			"doubleSided":true,
			"name":"Oak_wood",
			"normalTexture":{
				"extensions":{
					"KHR_texture_transform":{
						"offset":[
							0,
							-2
						],
						"scale":[
							3,
							3
						]
					}
				},
				"index":0
			},
			"pbrMetallicRoughness":{
				"baseColorTexture":{
					"extensions":{
						"KHR_texture_transform":{
							"offset":[
								0,
								-2
							],
							"scale":[
								3,
								3
							]
						}
					},
					"index":1
				},
				"metallicFactor":0,
				"metallicRoughnessTexture":{
					"extensions":{
						"KHR_texture_transform":{
							"offset":[
								0,
								-2
							],
							"scale":[
								3,
								3
							]
						}
					},
					"index":2
				}
			}
		},
		{
			"doubleSided":true,
			"name":"Metal",
			"pbrMetallicRoughness":{
				"baseColorFactor":[
					0.20880615711212158,
					0.18367910385131836,
					0.15163032710552216,
					1
				],
				"roughnessFactor":0.25
			}
		},
		{
			"doubleSided":true,
			"name":"Hole",
			"pbrMetallicRoughness":{
				"baseColorFactor":[
					0,
					0,
					0,
					1
				],
				"metallicFactor":0
			}
		},
		{
			"doubleSided":true,
			"name":"Fabric",
			"normalTexture":{
				"extensions":{
					"KHR_texture_transform":{
						"offset":[
							0,
							-1.0999999046325684
						],
						"scale":[
							2.0999999046325684,
							2.0999999046325684
						]
					}
				},
				"index":3
			},
			"pbrMetallicRoughness":{
				"baseColorTexture":{
					"extensions":{
						"KHR_texture_transform":{
							"offset":[
								0,
								-1.0999999046325684
							],
							"scale":[
								2.0999999046325684,
								2.0999999046325684
							]
						}
					},
					"index":4
				},
				"metallicFactor":0,
				"metallicRoughnessTexture":{
					"extensions":{
						"KHR_texture_transform":{
							"offset":[
								0,
								-1.0999999046325684
							],
							"scale":[
								2.0999999046325684,
								2.0999999046325684
							]
						}
					},
					"index":5
				}
			}
		},
		{
			"doubleSided":true,
			"name":"Oak_wood_light",
			"normalTexture":{
				"extensions":{
					"KHR_texture_transform":{
						"offset":[
							0,
							-2
						],
						"scale":[
							3,
							3
						]
					}
				},
				"index":6
			},
			"pbrMetallicRoughness":{
				"baseColorTexture":{
					"extensions":{
						"KHR_texture_transform":{
							"offset":[
								0,
								-2
							],
							"scale":[
								3,
								3
							]
						}
					},
					"index":7
				},
				"metallicFactor":0,
				"metallicRoughnessTexture":{
					"extensions":{
						"KHR_texture_transform":{
							"offset":[
								0,
								-2
							],
							"scale":[
								3,
								3
							]
						}
					},
					"index":8
				}
			}
		}
	],
	"meshes":[
		{
			"name":"Cube.016",
			"primitives":[
				{
					"attributes":{
						"POSITION":0,
						"NORMAL":1,
						"TEXCOORD_0":2
					},
					"indices":3,
					"material":0
				},
				{
					"attributes":{
						"POSITION":4,
						"NORMAL":5,
						"TEXCOORD_0":6
					},
					"indices":7,
					"material":1
				},
				{
					"attributes":{
						"POSITION":8,
						"NORMAL":9,
						"TEXCOORD_0":10
					},
					"indices":11,
					"material":2
				},
				{
					"attributes":{
						"POSITION":12,
						"NORMAL":13,
						"TEXCOORD_0":14
					},
					"indices":15,
					"material":3
				},
				{
					"attributes":{
						"POSITION":16,
						"NORMAL":17,
						"TEXCOORD_0":18
					},
					"indices":19,
					"material":4
				}
			]
		}
	],
	"textures":[
		{
			"sampler":0,
			"source":0
		},
		{
			"sampler":0,
			"source":1
		},
		{
			"sampler":0,
			"source":2
		},
		{
			"sampler":0,
			"source":3
		},
		{
			"sampler":0,
			"source":4
		},
		{
			"sampler":0,
			"source":5
		},
		{
			"sampler":0,
			"source":0
		},
		{
			"sampler":0,
			"source":1
		},
		{
			"sampler":0,
			"source":2
		}
	],
	"images":[
		{
			"mimeType":"image/jpeg",
			"name":"Wood026_1K-JPG_NormalGL",
			"uri":"Wood026_1K-JPG_NormalGL.jpg"
		},
		{
			"mimeType":"image/jpeg",
			"name":"Wood026_1K-JPG_Color",
			"uri":"Wood026_1K-JPG_Color.jpg"
		},
		{
			"mimeType":"image/png",
			"name":"Wood026_1K-JPG_Roughness",
			"uri":"Wood026_1K-JPG_Roughness.png"
		},
		{
			"mimeType":"image/jpeg",
			"name":"Fabric030_1K-JPG_NormalGL",
			"uri":"Fabric030_1K-JPG_NormalGL.jpg"
		},
		{
			"mimeType":"image/jpeg",
			"name":"Fabric030_2K-JPG_AmbientOcclusion",
			"uri":"Fabric030_2K-JPG_AmbientOcclusion.jpg"
		},
		{
			"mimeType":"image/png",
			"name":"Fabric030_1K-JPG_Roughness",
			"uri":"Fabric030_1K-JPG_Roughness.png"
		}
	],
	"accessors":[
		{
			"bufferView":0,
			"componentType":5126,
			"count":232,
			"max":[
				0.4192216098308563,
				0.10994360595941544,
				0.3254752457141876
			],
			"min":[
				-0.47313687205314636,
				-0.32205191254615784,
				-0.4451834559440613
			],
			"type":"VEC3"
		},
		{
			"bufferView":1,
			"componentType":5126,
			"count":232,
			"type":"VEC3"
		},
		{
			"bufferView":2,
			"componentType":5126,
			"count":232,
			"type":"VEC2"
		},
		{
			"bufferView":3,
			"componentType":5123,
			"count":402,
			"type":"SCALAR"
		},
		{
			"bufferView":4,
			"componentType":5126,
			"count":18,
			"max":[
				0.42030906677246094,
				-0.15118436515331268,
				0.32833826541900635
			],
			"min":[
				-0.47312843799591064,
				-0.21511761844158173,
				-0.3768700957298279
			],
			"type":"VEC3"
		},
		{
			"bufferView":5,
			"componentType":5126,
			"count":18,
			"type":"VEC3"
		},
		{
			"bufferView":6,
			"componentType":5126,
			"count":18,
			"type":"VEC2"
		},
		{
			"bufferView":7,
			"componentType":5123,
			"count":18,
			"type":"SCALAR"
		},
		{
			"bufferView":8,
			"componentType":5126,
			"count":6,
			"max":[
				0.34646502137184143,
				-0.19371578097343445,
				0.32819074392318726
			],
			"min":[
				-0.47345107793807983,
				-0.2116505205631256,
				-0.3730311095714569
			],
			"type":"VEC3"
		},
		{
			"bufferView":9,
			"componentType":5126,
			"count":6,
			"type":"VEC3"
		},
		{
			"bufferView":10,
			"componentType":5126,
			"count":6,
			"type":"VEC2"
		},
		{
			"bufferView":11,
			"componentType":5123,
			"count":6,
			"type":"SCALAR"
		},
		{
			"bufferView":12,
			"componentType":5126,
			"count":356,
			"max":[
				0.39444729685783386,
				0.30706360936164856,
				0.3052598237991333
			],
			"min":[
				-0.4483899474143982,
				-0.14618080854415894,
				-0.46270260214805603
			],
			"type":"VEC3"
		},
		{
			"bufferView":13,
			"componentType":5126,
			"count":356,
			"type":"VEC3"
		},
		{
			"bufferView":14,
			"componentType":5126,
			"count":356,
			"type":"VEC2"
		},
		{
			"bufferView":15,
			"componentType":5123,
			"count":1176,
			"type":"SCALAR"
		},
		{
			"bufferView":16,
			"componentType":5126,
			"count":4,
			"max":[
				0.3892931044101715,
				-0.1547604501247406,
				-0.39885061979293823
			],
			"min":[
				-0.44320836663246155,
				-0.19935941696166992,
				-0.4451834559440613
			],
			"type":"VEC3"
		},
		{
			"bufferView":17,
			"componentType":5126,
			"count":4,
			"type":"VEC3"
		},
		{
			"bufferView":18,
			"componentType":5126,
			"count":4,
			"type":"VEC2"
		},
		{
			"bufferView":19,
			"componentType":5123,
			"count":6,
			"type":"SCALAR"
		}
	],
	"bufferViews":[
		{
			"buffer":0,
			"byteLength":2784,
			"byteOffset":0,
			"target":34962
		},
		{
			"buffer":0,
			"byteLength":2784,
			"byteOffset":2784,
			"target":34962
		},
		{
			"buffer":0,
			"byteLength":1856,
			"byteOffset":5568,
			"target":34962
		},
		{
			"buffer":0,
			"byteLength":804,
			"byteOffset":7424,
			"target":34963
		},
		{
			"buffer":0,
			"byteLength":216,
			"byteOffset":8228,
			"target":34962
		},
		{
			"buffer":0,
			"byteLength":216,
			"byteOffset":8444,
			"target":34962
		},
		{
			"buffer":0,
			"byteLength":144,
			"byteOffset":8660,
			"target":34962
		},
		{
			"buffer":0,
			"byteLength":36,
			"byteOffset":8804,
			"target":34963
		},
		{
			"buffer":0,
			"byteLength":72,
			"byteOffset":8840,
			"target":34962
		},
		{
			"buffer":0,
			"byteLength":72,
			"byteOffset":8912,
			"target":34962
		},
		{
			"buffer":0,
			"byteLength":48,
			"byteOffset":8984,
			"target":34962
		},
		{
			"buffer":0,
			"byteLength":12,
			"byteOffset":9032,
			"target":34963
		},
		{
			"buffer":0,
			"byteLength":4272,
			"byteOffset":9044,
			"target":34962
		},
		{
			"buffer":0,
			"byteLength":4272,
			"byteOffset":13316,
			"target":34962
		},
		{
			"buffer":0,
			"byteLength":2848,
			"byteOffset":17588,
			"target":34962
		},
		{
			"buffer":0,
			"byteLength":2352,
			"byteOffset":20436,
			"target":34963
		},
		{
			"buffer":0,
			"byteLength":48,
			"byteOffset":22788,
			"target":34962
		},
		{
			"buffer":0,
			"byteLength":48,
			"byteOffset":22836,
			"target":34962
		},
		{
			"buffer":0,
			"byteLength":32,
			"byteOffset":22884,
			"target":34962
		},
		{
			"buffer":0,
			"byteLength":12,
			"byteOffset":22916,
			"target":34963
		}
	],
	"samplers":[
		{
			"magFilter":9729,
			"minFilter":9987
		}
	],
	"buffers":[
		{
			"byteLength":22928,
			"uri":"conference%20chair.bin"
		}
	]
}
